<?xml version="1.0" standalone="no"?>
<!DOCTYPE svg PUBLIC "-//W3C//DTD SVG 1.1//EN" "http://www.w3.org/Graphics/SVG/1.1/DTD/svg11.dtd" >
<svg xmlns="http://www.w3.org/2000/svg" xmlns:xlink="http://www.w3.org/1999/xlink" version="1.1">
<metadata>
Created by FontForge 20170731 at Fri May  4 10:57:41 2018
 By Aleksey,,,
Copyright (c) 2018 by Gumpita Rahayu. All rights reserved.
</metadata>
<defs>
<font id="Mohave-Regular" horiz-adv-x="469" >
  <font-face 
    font-family="Mohave"
    font-weight="400"
    font-stretch="normal"
    units-per-em="1000"
    panose-1="0 0 5 0 0 0 0 0 0 0"
    ascent="780"
    descent="-220"
    x-height="544"
    cap-height="750"
    bbox="-155 -403 960 986"
    underline-thickness="58"
    underline-position="-138"
    unicode-range="U+0020-FB02"
  />
<missing-glyph horiz-adv-x="504" 
d="M82 750h340v-750h-340v750zM356 66v618h-208v-618h208z" />
    <glyph glyph-name="fi" unicode="fi" horiz-adv-x="541" 
d="M105 468h-101v76h101v35q0 80 47.5 130.5t125.5 50.5h40v-80h-40q-42 0 -67.5 -28t-25.5 -73v-35h133v-76h-133v-468h-80v468zM391 720h81v-119h-81v119zM391 544h81v-544h-81v544z" />
    <glyph glyph-name="fl" unicode="fl" horiz-adv-x="541" 
d="M105 468h-101v76h101v35q0 80 47.5 130.5t125.5 50.5h40v-80h-40q-42 0 -67.5 -28t-25.5 -73v-35h133v-76h-133v-468h-80v468zM391 750h81v-750h-81v750z" />
    <glyph glyph-name="f_f" unicode="ff" horiz-adv-x="644" 
d="M105 468h-101v76h101v35q0 80 47.5 130.5t125.5 50.5h40v-80h-40q-42 0 -67.5 -28t-25.5 -73v-35h133v-76h-133v-468h-80v468zM427 468h-101v76h101v35q0 80 47.5 130.5t125.5 50.5h40v-80h-40q-42 0 -67.5 -28t-25.5 -73v-35h133v-76h-133v-468h-80v468z" />
    <glyph glyph-name="f_f_i" unicode="ffi" horiz-adv-x="863" 
d="M105 468h-101v76h101v35q0 80 47.5 130.5t125.5 50.5h40v-80h-40q-42 0 -67.5 -28t-25.5 -73v-35h133v-76h-133v-468h-80v468zM427 468h-101v76h101v35q0 80 47.5 130.5t125.5 50.5h40v-80h-40q-42 0 -67.5 -28t-25.5 -73v-35h133v-76h-133v-468h-80v468zM713 720h81
v-119h-81v119zM713 544h81v-544h-81v544z" />
    <glyph glyph-name="f_f_l" unicode="ffl" horiz-adv-x="863" 
d="M105 468h-101v76h101v35q0 80 47.5 130.5t125.5 50.5h40v-80h-40q-42 0 -67.5 -28t-25.5 -73v-35h133v-76h-133v-468h-80v468zM427 468h-101v76h101v35q0 80 47.5 130.5t125.5 50.5h40v-80h-40q-42 0 -67.5 -28t-25.5 -73v-35h133v-76h-133v-468h-80v468zM713 750h81
v-750h-81v750z" />
    <glyph glyph-name=".notdef" horiz-adv-x="504" 
d="M82 750h340v-750h-340v750zM356 66v618h-208v-618h208z" />
    <glyph glyph-name="uni0000" horiz-adv-x="600" 
 />
    <glyph glyph-name="uni0000" horiz-adv-x="600" 
 />
    <glyph glyph-name="nonmarkingreturn" horiz-adv-x="333" 
 />
    <glyph glyph-name="space" unicode=" " horiz-adv-x="218" 
 />
    <glyph glyph-name="exclam" unicode="!" horiz-adv-x="276" 
d="M96 750h84v-540h-84v540zM96 150h84v-150h-84v150z" />
    <glyph glyph-name="quotedbl" unicode="&#x22;" horiz-adv-x="426" 
d="M116 750h80l-40 -224h-80zM269 750h81l-40 -224h-81z" />
    <glyph glyph-name="numbersign" unicode="#" horiz-adv-x="574" 
d="M441 494v-214h84v-84h-84v-196h-84v196l-139 1v-197h-84v197h-85v83h85v215h-85v83h85v172h84v-172h139v172h84v-172h84v-84h-84zM357 494l-139 1v-215h139v214z" />
    <glyph glyph-name="dollar" unicode="$" horiz-adv-x="496" 
d="M343 554v27q0 38 -18.5 64t-50.5 34v-267q70 -8 111.5 -58t41.5 -126v-59q0 -76 -41.5 -126t-111.5 -58v-85h-55v86q-69 9 -109.5 58t-40.5 125v27h84v-27q0 -37 17.5 -63t48.5 -34v259q-69 9 -109.5 58t-40.5 125v67q0 76 40.5 125t109.5 58v86h55v-85q70 -8 111.5 -58
t41.5 -126v-27h-84zM170.5 451q17.5 -26 48.5 -34v261q-31 -8 -48.5 -34t-17.5 -63v-67q0 -37 17.5 -63zM324.5 292q-18.5 26 -50.5 34v-255q32 8 50.5 34t18.5 64v59q0 38 -18.5 64z" />
    <glyph glyph-name="percent" unicode="%" horiz-adv-x="710" 
d="M85.5 441q-33.5 34 -33.5 89v109q0 56 33.5 90t88.5 34q54 0 87.5 -34.5t33.5 -89.5v-109q0 -55 -33.5 -89t-87.5 -34q-55 0 -88.5 34zM484 750h71l-329 -750h-71zM214 488q15 16 15 42v109q0 26 -15 42.5t-40 16.5t-40.5 -16.5t-15.5 -42.5v-109q0 -26 15.5 -42
t40.5 -16t40 16zM448.5 21q-33.5 34 -33.5 89v109q0 55 33.5 89.5t87.5 34.5q55 0 88 -34t33 -90v-109q0 -56 -33 -89.5t-88 -33.5q-54 0 -87.5 34zM576 68q15 16 15 42v109q0 26 -15 42.5t-40 16.5t-40.5 -16.5t-15.5 -42.5v-109q0 -26 15.5 -42t40.5 -16t40 16z" />
    <glyph glyph-name="ampersand" unicode="&#x26;" horiz-adv-x="534" 
d="M126 38q-49 51 -49 134v68q0 53 21 94t58 65l-79 136v43q0 83 49 134t130 51t130 -51t49 -134v-27h-84v27q0 46 -26 73.5t-69 27.5t-69 -27.5t-26 -73.5v-43l196 -333l40 215h70l-55 -311l54 -92v-14h-78l-20 33q-41 -46 -112 -46q-81 0 -130 51zM329 102l-130 221
q-18 -13 -28 -34.5t-10 -48.5v-68q0 -46 26 -73.5t69 -27.5q48 0 73 31z" />
    <glyph glyph-name="quotesingle" unicode="'" horiz-adv-x="272" 
d="M116 750h80l-40 -224h-80z" />
    <glyph glyph-name="parenleft" unicode="(" horiz-adv-x="329" 
d="M119.5 -129q-48.5 51 -48.5 134v590q0 83 48.5 134t129.5 51h58v-84h-58q-43 0 -68.5 -27.5t-25.5 -73.5v-590q0 -46 25.5 -73.5t68.5 -27.5h58v-84h-58q-81 0 -129.5 51z" />
    <glyph glyph-name="parenright" unicode=")" horiz-adv-x="329" 
d="M22 -96h58q43 0 68.5 27.5t25.5 73.5v590q0 46 -25.5 73.5t-68.5 27.5h-58v84h58q81 0 129.5 -51t48.5 -134v-590q0 -83 -48.5 -134t-129.5 -51h-58v84z" />
    <glyph glyph-name="asterisk" unicode="*" horiz-adv-x="452" 
d="M288 597l99 -58l-30 -53l-100 58v-102h-61v102l-100 -58l-30 53l100 58l-100 58l29 53l101 -58v100h61v-101l101 58l29 -53z" />
    <glyph glyph-name="plus" unicode="+" horiz-adv-x="538" 
d="M483 230h-171v-151h-85v151h-172v84h172v152h85v-152h171v-84z" />
    <glyph glyph-name="comma" unicode="," horiz-adv-x="272" 
d="M116 125h80l-40 -182h-80z" />
    <glyph glyph-name="hyphen" unicode="-" horiz-adv-x="426" 
d="M69 314h287v-84h-287v84z" />
    <glyph glyph-name="period" unicode="." horiz-adv-x="276" 
d="M96 125h84v-125h-84v125z" />
    <glyph glyph-name="slash" unicode="/" horiz-adv-x="355" 
d="M268 780h87l-268 -830h-87z" />
    <glyph glyph-name="zero" unicode="0" horiz-adv-x="499" 
d="M379.5 715q48.5 -51 48.5 -134v-412q0 -83 -48.5 -134t-129.5 -51t-130 51t-49 134v412q0 83 49 134t130 51t129.5 -51zM155 169q0 -19 4 -32l144 530q-22 15 -53 15q-43 0 -69 -27.5t-26 -73.5v-412zM344 581q0 17 -3 30l-145 -528q23 -15 54 -15q43 0 68.5 27.5
t25.5 73.5v412z" />
    <glyph glyph-name="one" unicode="1" horiz-adv-x="289" 
d="M123 580h-104v84h20q40 0 62 20t22 55v11h84v-750h-84v580z" />
    <glyph glyph-name="two" unicode="2" horiz-adv-x="447" 
d="M380.5 426.5q-19.5 -37.5 -47 -68t-74.5 -73.5q-43 -39 -68.5 -65.5t-42.5 -58.5t-17 -67v-10h269v-84h-357v72q0 59 22.5 106.5t54.5 82.5t82 80q58 51 86 87t28 79v74q0 46 -25.5 73.5t-68.5 27.5t-69 -27.5t-26 -73.5v-27h-84v27q0 83 49 134t130 51t129.5 -51
t48.5 -134v-74q0 -43 -19.5 -80.5z" />
    <glyph glyph-name="three" unicode="3" horiz-adv-x="463" 
d="M383 444.5q-15 -36.5 -44 -59.5q59 -51 59 -144v-72q0 -83 -48.5 -134t-129.5 -51t-130 51t-49 134v27h84v-27q0 -46 26 -73.5t69 -27.5t68.5 27.5t25.5 73.5v72q0 46 -25.5 73.5t-68.5 27.5h-62v84h62q43 0 68.5 27.5t25.5 73.5v54q0 46 -25.5 73.5t-68.5 27.5
t-69 -27.5t-26 -73.5v-27h-84v27q0 83 49 134t130 51t129.5 -51t48.5 -134v-54q0 -46 -15 -82.5z" />
    <glyph glyph-name="four" unicode="4" horiz-adv-x="478" 
d="M450 241v-83h-68v-158h-84v158h-276v76l279 516h81v-509h68zM298 596l-188 -355h188v355z" />
    <glyph glyph-name="five" unicode="5" horiz-adv-x="483" 
d="M381.5 449q48.5 -51 48.5 -134v-146q0 -83 -49 -134t-130 -51q-80 0 -129 51t-49 134v27h84v-27q0 -46 25.5 -73.5t68.5 -27.5t69 27.5t26 73.5v146q0 46 -26.5 73.5t-71.5 27.5q-42 0 -66.5 -27.5t-24.5 -73.5v-10h-84v445h346v-84h-262v-206q35 40 98 40
q78 0 126.5 -51z" />
    <glyph glyph-name="six" unicode="6" horiz-adv-x="490" 
d="M344 554v27q0 46 -25.5 73.5t-68.5 27.5t-69 -27.5t-26 -73.5v-122q36 41 98 41q79 0 127 -51t48 -134v-146q0 -83 -48.5 -134t-129.5 -51t-130 51t-49 134v412q0 83 49 134t130 51t129.5 -51t48.5 -134v-27h-84zM179.5 388.5q-24.5 -27.5 -24.5 -73.5v-146
q0 -46 26 -73.5t69 -27.5t68.5 27.5t25.5 73.5v146q0 46 -26.5 73.5t-71.5 27.5q-42 0 -66.5 -27.5z" />
    <glyph glyph-name="seven" unicode="7" horiz-adv-x="390" 
d="M365 750v-75l-188 -675h-89l190 666h-262v84h349z" />
    <glyph glyph-name="eight" unicode="8" horiz-adv-x="486" 
d="M406.5 444q-15.5 -36 -44.5 -60q29 -25 44.5 -62t15.5 -82v-71q0 -83 -49 -134t-130 -51t-129.5 51t-48.5 134v71q0 46 15 82.5t44 61.5q-29 23 -44 59.5t-15 82.5v55q0 83 48.5 134t129.5 51t130 -51t49 -134v-55q0 -46 -15.5 -82zM338 581q0 46 -26 73.5t-69 27.5
t-68.5 -27.5t-25.5 -73.5v-55q0 -46 25.5 -73.5t68.5 -27.5t69 27.5t26 73.5v55zM338 240q0 45 -26 73t-69 28t-68.5 -28t-25.5 -73v-71q0 -46 25.5 -73.5t68.5 -27.5t69 27.5t26 73.5v71z" />
    <glyph glyph-name="nine" unicode="9" horiz-adv-x="491" 
d="M371 715q49 -51 49 -134v-412q0 -83 -49 -134t-130 -51t-130 51t-49 134v27h84v-27q0 -46 26 -73.5t69 -27.5t69 27.5t26 73.5v122q-36 -41 -99 -41q-78 0 -126.5 51t-48.5 134v146q0 83 49 134t130 51t130 -51zM311.5 361.5q24.5 27.5 24.5 73.5v146q0 46 -26 73.5
t-69 27.5t-69 -27.5t-26 -73.5v-146q0 -45 27 -73t72 -28q42 0 66.5 27.5z" />
    <glyph glyph-name="colon" unicode=":" horiz-adv-x="276" 
d="M180 329v-215h-84v215h84z" />
    <glyph glyph-name="semicolon" unicode=";" horiz-adv-x="274" 
d="M176 240h9l-26 -158h-84l16 97h-1l14 150h81z" />
    <glyph glyph-name="less" unicode="&#x3c;" horiz-adv-x="432" 
d="M42 234v63l329 232v-88l-243 -176l243 -177v-88z" />
    <glyph glyph-name="equal" unicode="=" horiz-adv-x="544" 
d="M103 414h338v-84h-338v84zM103 214h338v-84h-338v84z" />
    <glyph glyph-name="greater" unicode="&#x3e;" horiz-adv-x="432" 
d="M60 88l242 177l-242 176v88l328 -232v-63l-328 -234v88z" />
    <glyph glyph-name="question" unicode="?" horiz-adv-x="437" 
d="M163 208q0 57 21 96t62 87q32 36 46.5 60.5t14.5 55.5v74q0 46 -25.5 73.5t-68.5 27.5t-69 -27.5t-26 -73.5v-27h-84v27q0 83 49 134t130 51t129.5 -51t48.5 -134v-74q0 -43 -18.5 -76t-54.5 -77t-53.5 -75t-17.5 -71v-35h-84v35zM163 127h84v-127h-84v127z" />
    <glyph glyph-name="at" unicode="@" horiz-adv-x="682" 
d="M476 731q59 -32 91 -91t32 -136v-504h-80v38q-17 -23 -47.5 -37t-63.5 -14q-66 0 -107 46.5t-41 122.5v155q0 76 41.5 122.5t109.5 46.5q33 0 62.5 -13.5t45.5 -34.5v72q0 81 -49 130t-131 49q-78 0 -126.5 -49t-48.5 -130v-432q0 -72 43.5 -116t115.5 -44h206v-81h-206
q-71 0 -125.5 30t-84.5 85t-30 126v432q0 77 32 136t90.5 91t134.5 32q77 0 136 -32zM493.5 88.5q25.5 25.5 25.5 67.5v155q0 41 -25.5 66.5t-67.5 25.5q-38 0 -61.5 -25.5t-23.5 -66.5v-155q0 -42 23.5 -67.5t61.5 -25.5q42 0 67.5 25.5z" />
    <glyph glyph-name="A" unicode="A" horiz-adv-x="459" 
d="M434 0h-87l-29 145h-176l-30 -145h-87l160 750h90zM303 229l-73 371l-73 -371h146z" />
    <glyph glyph-name="B" unicode="B" horiz-adv-x="509" 
d="M432 330.5q15 -34.5 15 -77.5v-81q0 -77 -45.5 -124.5t-120.5 -47.5h-195v750h185q75 0 120.5 -47.5t45.5 -124.5v-64q0 -38 -12.5 -70.5t-34.5 -55.5q27 -23 42 -57.5zM170 425h101q37 0 59.5 24.5t22.5 64.5v64q0 40 -22.5 64t-59.5 24h-101v-241zM363 253
q0 40 -22.5 64t-59.5 24h-111v-257h111q37 0 59.5 24t22.5 64v81z" />
    <glyph glyph-name="C" unicode="C" horiz-adv-x="476" 
d="M432 169q0 -83 -49 -134t-130 -51t-129.5 51t-48.5 134v412q0 83 48.5 134t129.5 51t130 -51t49 -134v-27h-84v27q0 46 -26 73.5t-69 27.5t-68.5 -27.5t-25.5 -73.5v-412q0 -46 25.5 -73.5t68.5 -27.5t69 27.5t26 73.5v27h84v-27z" />
    <glyph glyph-name="D" unicode="D" horiz-adv-x="507" 
d="M86 750h172q81 0 130 -51t49 -134v-380q0 -83 -49 -134t-130 -51h-172v750zM258 84q43 0 69 27.5t26 73.5v380q0 46 -26 73.5t-69 27.5h-88v-582h88z" />
    <glyph glyph-name="E" unicode="E" horiz-adv-x="431" 
d="M389 666h-219v-246h192v-84h-192v-252h219v-84h-303v750h303v-84z" />
    <glyph glyph-name="F" unicode="F" horiz-adv-x="417" 
d="M86 750h303v-84h-219v-297h192v-84h-192v-285h-84v750z" />
    <glyph glyph-name="G" unicode="G" horiz-adv-x="494" 
d="M123.5 35q-48.5 51 -48.5 134v412q0 83 48.5 134t129.5 51t130 -51t49 -134v-27h-84v27q0 46 -26 73.5t-69 27.5t-68.5 -27.5t-25.5 -73.5v-412q0 -46 25.5 -73.5t68.5 -27.5t69 27.5t26 73.5v109h-95v84h179v-193q0 -83 -49 -134t-130 -51t-129.5 51z" />
    <glyph glyph-name="H" unicode="H" horiz-adv-x="515" 
d="M86 750h84v-381h175v381h84v-750h-84v285h-175v-285h-84v750z" />
    <glyph glyph-name="I" unicode="I" horiz-adv-x="256" 
d="M86 0v750h84v-750h-84z" />
    <glyph glyph-name="J" unicode="J" horiz-adv-x="328" 
d="M17 78h53q43 0 69 27.5t26 73.5v571h84v-571q0 -83 -49 -134t-130 -51h-53v84z" />
    <glyph glyph-name="K" unicode="K" horiz-adv-x="492" 
d="M470 0h-91l-172 385l-37 -54v-331h-84v750h84v-281l195 281h90l-191 -281z" />
    <glyph glyph-name="L" unicode="L" horiz-adv-x="389" 
d="M170 84h199v-84h-283v750h84v-666z" />
    <glyph glyph-name="M" unicode="M" horiz-adv-x="652" 
d="M566 750v-750h-80v488l-129 -488h-63l-128 488v-488h-80v750h84l156 -596l156 596h84z" />
    <glyph glyph-name="N" unicode="N" horiz-adv-x="525" 
d="M439 750v-750h-71l-202 531v-531h-80v750h71l202 -531v531h80z" />
    <glyph glyph-name="O" unicode="O" horiz-adv-x="507" 
d="M123.5 35q-48.5 51 -48.5 134v412q0 83 48.5 134t129.5 51t130 -51t49 -134v-412q0 -83 -49 -134t-130 -51t-129.5 51zM322 95.5q26 27.5 26 73.5v412q0 46 -26 73.5t-69 27.5t-68.5 -27.5t-25.5 -73.5v-412q0 -46 25.5 -73.5t68.5 -27.5t69 27.5z" />
    <glyph glyph-name="P" unicode="P" horiz-adv-x="474" 
d="M86 750h185q75 0 120.5 -47.5t45.5 -124.5v-84q0 -78 -45.5 -125.5t-120.5 -47.5h-101v-321h-84v750zM271 405q37 0 59.5 24.5t22.5 64.5v84q0 40 -22.5 64t-59.5 24h-101v-261h101z" />
    <glyph glyph-name="Q" unicode="Q" horiz-adv-x="507" 
d="M415.5 83.5q-16.5 -37.5 -47.5 -62.5l34 -112h-85l-24 79q-17 -4 -40 -4q-81 0 -129.5 51t-48.5 134v412q0 83 48.5 134t129.5 51t130 -51t49 -134v-412q0 -48 -16.5 -85.5zM338 120q10 20 10 49v412q0 46 -26 73.5t-69 27.5t-68.5 -27.5t-25.5 -73.5v-412
q0 -46 25.5 -73.5t68.5 -27.5q10 0 15 1l-46 150h86z" />
    <glyph glyph-name="R" unicode="R" horiz-adv-x="510" 
d="M421.5 393.5q-15.5 -35.5 -45.5 -58.5q29 -18 45 -48t16 -67v-220h-84v220q0 37 -22.5 59t-59.5 22h-101v-301h-84v750h185q75 0 120.5 -47.5t45.5 -124.5v-104q0 -45 -15.5 -80.5zM330.5 409.5q22.5 24.5 22.5 64.5v104q0 40 -22.5 64t-59.5 24h-101v-281h101
q37 0 59.5 24.5z" />
    <glyph glyph-name="S" unicode="S" horiz-adv-x="471" 
d="M106 35q-49 51 -49 134v27h84v-27q0 -46 26 -73.5t69 -27.5t69 27.5t26 73.5v59q0 46 -26 73.5t-69 27.5q-81 0 -130 51t-49 134v67q0 83 49 134t130 51t130 -51t49 -134v-27h-84v27q0 46 -26 73.5t-69 27.5t-69 -27.5t-26 -73.5v-67q0 -45 26 -73t69 -28q81 0 130 -51
t49 -134v-59q0 -83 -49 -134t-130 -51t-130 51z" />
    <glyph glyph-name="T" unicode="T" horiz-adv-x="371" 
d="M144 666h-126v84h336v-84h-126v-666h-84v666z" />
    <glyph glyph-name="U" unicode="U" horiz-adv-x="519" 
d="M438 169q0 -83 -49 -134t-130 -51t-129.5 51t-48.5 134v581h84v-581q0 -46 25.5 -73.5t68.5 -27.5t69 27.5t26 73.5v581h84v-581z" />
    <glyph glyph-name="V" unicode="V" horiz-adv-x="459" 
d="M434 750l-159 -750h-90l-160 750h87l118 -580l117 580h87z" />
    <glyph glyph-name="W" unicode="W" horiz-adv-x="654" 
d="M617 750l-103 -750h-90l-96 519l-98 -519h-90l-103 750h86l72 -561l95 561h74l95 -561l72 561h86z" />
    <glyph glyph-name="X" unicode="X" horiz-adv-x="457" 
d="M272 376l160 -376h-87l-116 271l-117 -271h-87l160 376l-160 374h87l117 -270l116 270h87z" />
    <glyph glyph-name="Y" unicode="Y" 
d="M455 750l-178 -372v-378h-84v378l-179 372h86l135 -285l134 285h86z" />
    <glyph glyph-name="Z" unicode="Z" horiz-adv-x="422" 
d="M388 686l-263 -602h263v-84h-353v64l262 602h-262v84h353v-64z" />
    <glyph glyph-name="bracketleft" unicode="[" horiz-adv-x="340" 
d="M82 780h236v-84h-152v-792h152v-84h-236v960z" />
    <glyph glyph-name="backslash" unicode="\" horiz-adv-x="355" 
d="M257 -50l-268 830h87l268 -830h-87z" />
    <glyph glyph-name="bracketright" unicode="]" horiz-adv-x="340" 
d="M22 -96h152v792h-152v84h236v-960h-236v84z" />
    <glyph glyph-name="asciicircum" unicode="^" horiz-adv-x="440" 
d="M190 750h63l142 -252h-81l-93 172l-94 -172h-82z" />
    <glyph glyph-name="underscore" unicode="_" horiz-adv-x="559" 
d="M96 -20h367v-84h-367v84z" />
    <glyph glyph-name="grave" unicode="`" horiz-adv-x="213" 
d="M25 780h86l66 -172h-62z" />
    <glyph glyph-name="a" unicode="a" horiz-adv-x="452" 
d="M343 507q48 -49 48 -128v-379h-80v39q-40 -51 -120 -51q-73 0 -113.5 40.5t-40.5 106.5q0 54 26.5 85.5t70.5 49.5q17 7 39.5 13.5t31.5 9.5q37 10 57.5 18t34.5 22t14 37v12q0 42 -25.5 68t-67.5 26t-66 -26t-24 -68v-17h-81v14q0 79 47 128t124 49t125 -49zM284 91
q27 27 27 76v93q-16 -11 -34.5 -17t-47.5 -13q-32 -8 -47 -13q-31 -11 -48 -28.5t-17 -46.5q0 -35 24.5 -56.5t67.5 -21.5q48 0 75 27z" />
    <glyph glyph-name="b" unicode="b" horiz-adv-x="468" 
d="M368.5 511q43.5 -45 43.5 -129v-220q0 -84 -43.5 -129t-112.5 -45q-33 0 -60.5 12t-45.5 34v-34h-81v750h81v-240q18 22 45.5 34t60.5 12q69 0 112.5 -45zM331 382q0 43 -24.5 68.5t-66.5 25.5q-43 0 -66.5 -25.5t-23.5 -68.5v-221q0 -43 23.5 -68t66.5 -25
q42 0 66.5 25.5t24.5 68.5v220z" />
    <glyph glyph-name="c" unicode="c" horiz-adv-x="433" 
d="M397 166q0 -80 -47 -129t-124 -49t-125 49t-48 129v213q0 79 48 128t125 49t124 -49t47 -128v-10h-81v13q0 42 -24 68t-66 26t-67 -26t-25 -68v-220q0 -42 25 -68t67 -26t66 26t24 68v14h81v-10z" />
    <glyph glyph-name="d" unicode="d" horiz-adv-x="468" 
d="M398 750v-750h-80v34q-40 -46 -106 -46q-69 0 -112.5 45t-43.5 129v220q0 84 43.5 129t112.5 45q67 0 106 -47v241h80zM294 93q24 25 24 68v221q0 43 -24 68.5t-67 25.5q-42 0 -66.5 -26t-24.5 -68v-220q0 -42 24.5 -68t66.5 -26q43 0 67 25z" />
    <glyph glyph-name="e" unicode="e" horiz-adv-x="447" 
d="M134 258v-96q0 -42 25 -68t67 -26t66 26t24 68v14h81v-10q0 -80 -47 -129t-124 -49t-125 49t-48 129v213q0 79 48 128t125 49t124 -49t47 -128v-121h-263zM159 450q-25 -26 -25 -68v-48h182v48q0 42 -24 68t-66 26t-67 -26z" />
    <glyph glyph-name="f" unicode="f" horiz-adv-x="322" 
d="M105 468h-101v76h101v35q0 80 47.5 130.5t125.5 50.5h40v-80h-40q-42 0 -67.5 -28t-25.5 -73v-35h133v-76h-133v-468h-80v468z" />
    <glyph glyph-name="g" unicode="g" horiz-adv-x="458" 
d="M389 544v-550q0 -79 -47.5 -128t-124.5 -49t-124 49t-47 129v14h80v-18q0 -42 24.5 -68t66.5 -26t67 26t25 68v113q-40 -46 -107 -46q-68 0 -111.5 45t-43.5 129v150q0 84 43.5 129t111.5 45t107 -47v35h80zM285 163q24 25 24 68v151q0 43 -24 68.5t-67 25.5
q-42 0 -66.5 -26t-24.5 -68v-150q0 -42 24.5 -68t66.5 -26q43 0 67 25z" />
    <glyph glyph-name="h" unicode="h" horiz-adv-x="470" 
d="M364.5 514q41.5 -43 41.5 -120v-394h-80v383q0 42 -24 67.5t-64 25.5t-64 -25.5t-24 -67.5v-383h-81v750h81v-241q39 48 108 48q65 0 106.5 -43z" />
    <glyph glyph-name="i" unicode="i" horiz-adv-x="219" 
d="M69 720h81v-119h-81v119zM69 544h81v-544h-81v544z" />
    <glyph glyph-name="j" unicode="j" horiz-adv-x="219" 
d="M69 720h81v-119h-81v119zM-54 -103h32q41 0 66 28t25 73v546h81v-542q0 -83 -47 -134t-125 -51h-32v80z" />
    <glyph glyph-name="k" unicode="k" horiz-adv-x="429" 
d="M426 0h-85l-142 288l-49 -64v-224h-81v750h81v-406l160 200h86l-144 -186z" />
    <glyph glyph-name="l" unicode="l" horiz-adv-x="219" 
d="M69 750h81v-750h-81v750z" />
    <glyph glyph-name="m" unicode="m" horiz-adv-x="727" 
d="M621.5 513.5q41.5 -42.5 41.5 -120.5v-393h-80v382q0 42 -24 68t-64 26t-64.5 -26t-24.5 -68v-382h-80v382q0 42 -24 68t-64 26t-64 -26t-24 -68v-382h-81v544h81v-36q39 48 108 48q44 0 78 -19.5t52 -57.5q18 37 50.5 57t76.5 20q65 0 106.5 -42.5z" />
    <glyph glyph-name="n" unicode="n" 
d="M366 509q40 -47 40 -127v-382h-80v382q0 42 -24 68t-64 26t-64 -26t-24 -68v-382h-81v544h81v-37q38 49 108 49q68 0 108 -47z" />
    <glyph glyph-name="o" unicode="o" horiz-adv-x="451" 
d="M101 37q-48 49 -48 129v213q0 79 48 128t125 49t124 -49t47 -128v-213q0 -80 -47 -129t-124 -49t-125 49zM292 94q24 26 24 68v220q0 42 -24 68t-66 26t-67 -26t-25 -68v-220q0 -42 25 -68t67 -26t66 26z" />
    <glyph glyph-name="p" unicode="p" horiz-adv-x="467" 
d="M368.5 511q43.5 -45 43.5 -129v-220q0 -84 -43.5 -129t-112.5 -45q-33 0 -60.5 12t-45.5 34v-214h-81v724h81v-34q18 22 45.5 34t60.5 12q69 0 112.5 -45zM331 382q0 43 -24.5 68.5t-66.5 25.5q-43 0 -66.5 -25.5t-23.5 -68.5v-221q0 -43 23.5 -68t66.5 -25
q42 0 66.5 25.5t24.5 68.5v220z" />
    <glyph glyph-name="q" unicode="q" horiz-adv-x="467" 
d="M398 544v-720h-81v210q-18 -22 -45.5 -34t-60.5 -12q-69 0 -112.5 45t-43.5 129v220q0 84 43.5 129t112.5 45q33 0 60.5 -12t45.5 -34v34h81zM293.5 93q23.5 25 23.5 68v221q0 43 -23.5 68.5t-66.5 25.5q-42 0 -66.5 -25.5t-24.5 -68.5v-220q0 -43 24.5 -68.5t66.5 -25.5
q43 0 66.5 25z" />
    <glyph glyph-name="r" unicode="r" horiz-adv-x="285" 
d="M282 550v-80h-44q-41 0 -64.5 -24.5t-23.5 -67.5v-378h-81v544h81v-42q38 48 108 48h24z" />
    <glyph glyph-name="s" unicode="s" horiz-adv-x="423" 
d="M90 33.5q-47 45.5 -47 120.5v17h81v-21q0 -37 25 -59.5t65 -22.5q39 0 62.5 23t23.5 59q0 37 -24 60.5t-63 23.5q-77 0 -123.5 44t-46.5 116q0 73 46.5 117.5t123.5 44.5q76 0 122 -45.5t46 -120.5v-16h-81v20q0 37 -23.5 59.5t-63.5 22.5q-41 0 -65 -23t-24 -59
q0 -38 24 -61t65 -23q76 0 122 -44t46 -116q0 -73 -45.5 -117.5t-121.5 -44.5q-77 0 -124 45.5z" />
    <glyph glyph-name="t" unicode="t" horiz-adv-x="334" 
d="M148 42.5q-47 48.5 -47 131.5v295h-96v75h96v136h80v-136h131v-75h-131v-295q0 -45 25 -72.5t67 -27.5h39v-80h-39q-78 0 -125 48.5z" />
    <glyph glyph-name="u" unicode="u" 
d="M400 544v-544h-80v36q-39 -48 -108 -48q-67 0 -108 44t-41 129v383h80v-383q0 -42 24 -67.5t64 -25.5t64.5 25.5t24.5 67.5v383h80z" />
    <glyph glyph-name="v" unicode="v" horiz-adv-x="419" 
d="M410 544l-151 -544h-97l-153 544h86l115 -423l114 423h86z" />
    <glyph glyph-name="w" unicode="w" horiz-adv-x="559" 
d="M534 544l-88 -544h-89l-77 372l-78 -372h-89l-88 544h83l54 -416l80 416h75l80 -416l53 416h84z" />
    <glyph glyph-name="x" unicode="x" horiz-adv-x="396" 
d="M239 272l148 -272h-86l-103 189l-103 -189h-85l148 272l-148 272h85l103 -188l103 188h86z" />
    <glyph glyph-name="y" unicode="y" horiz-adv-x="419" 
d="M410 544l-207 -724h-86l49 170l-157 554h88l113 -414l112 414h88z" />
    <glyph glyph-name="z" unicode="z" horiz-adv-x="382" 
d="M358 481l-232 -401h226v-80h-328v63l236 400h-231v81h329v-63z" />
    <glyph glyph-name="braceleft" unicode="{" horiz-adv-x="378" 
d="M169 -129q-49 51 -49 134v192q0 28 -15 45t-40 17h-50v84h50q25 0 40 16.5t15 44.5v191q0 83 49 134t130 51h57v-84h-57q-43 0 -69 -27.5t-26 -73.5v-191q0 -31 -12 -58.5t-33 -44.5q21 -18 33 -45.5t12 -58.5v-192q0 -46 26 -73.5t69 -27.5h57v-84h-57q-81 0 -130 51z
" />
    <glyph glyph-name="bar" unicode="|" horiz-adv-x="291" 
d="M103 -150v930h84v-930h-84z" />
    <glyph glyph-name="braceright" unicode="}" horiz-adv-x="378" 
d="M22 -96h58q43 0 68.5 27.5t25.5 73.5v192q0 31 12 58.5t33 45.5q-21 17 -33 44.5t-12 58.5v191q0 46 -25.5 73.5t-68.5 27.5h-58v84h58q81 0 129.5 -51t48.5 -134v-191q0 -28 15.5 -44.5t40.5 -16.5h50v-84h-50q-25 0 -40.5 -17t-15.5 -45v-192q0 -83 -48.5 -134
t-129.5 -51h-58v84z" />
    <glyph glyph-name="asciitilde" unicode="~" horiz-adv-x="569" 
d="M87 219q0 54 30 84.5t84 30.5q31 0 53.5 -9.5t47.5 -26.5q19 -12 32 -18t27 -6q20 0 30 11.5t10 30.5v21h79v-26q0 -52 -27 -82t-73 -30q-26 0 -47 9t-49 27q-25 15 -39 21.5t-30 6.5q-22 0 -35.5 -13t-13.5 -35v-17h-79v21z" />
    <glyph glyph-name="uni00A0" unicode="&#xa0;" horiz-adv-x="218" 
 />
    <glyph glyph-name="exclamdown" unicode="&#xa1;" horiz-adv-x="276" 
d="M96 544h84v-150h-84v150zM96 334h84v-540h-84v540z" />
    <glyph glyph-name="cent" unicode="&#xa2;" horiz-adv-x="484" 
d="M339 369v13q0 35 -17 59.5t-48 31.5v-402q31 7 48 31.5t17 59.5v14h81v-10q0 -73 -40 -121t-106 -56v-89h-55v90q-65 10 -104 57.5t-39 118.5v213q0 71 39 118t104 57v90h55v-89q66 -8 106 -56t40 -120v-10h-81zM173.5 104q16.5 -24 45.5 -32v400q-29 -8 -45.5 -32
t-16.5 -58v-220q0 -34 16.5 -58z" />
    <glyph glyph-name="sterling" unicode="&#xa3;" horiz-adv-x="540" 
d="M405 551v27q0 46 -26 73.5t-69 27.5t-69 -27.5t-26 -73.5v-164h139v-77h-139v-260h220v-77h-375v77h71v260h-71v77h71v164q0 83 49 134t130 51t130 -51t49 -134v-27h-84z" />
    <glyph glyph-name="currency" unicode="&#xa4;" horiz-adv-x="561" 
d="M73 113l67 67q-28 41 -28 97t28 96l-67 66l43 44l68 -67q40 29 96 29q57 0 97 -28l65 66l44 -44l-65 -65q27 -41 27 -97q0 -57 -28 -97l66 -67l-44 -44l-66 68q-38 -28 -96 -28q-56 0 -96 28l-68 -68zM349 207q28 27 28 70t-28 70t-69 27t-69 -27t-28 -70t28 -70t69 -27
t69 27z" />
    <glyph glyph-name="yen" unicode="&#xa5;" horiz-adv-x="520" 
d="M305 383h102v-77h-104v-108h104v-76h-104v-122h-84v122h-106v76h106v108h-106v77h104l-178 367h87l135 -273l133 273h87z" />
    <glyph glyph-name="brokenbar" unicode="&#xa6;" horiz-adv-x="291" 
d="M103 415v365h84v-365h-84zM103 -150v365h84v-365h-84z" />
    <glyph glyph-name="section" unicode="&#xa7;" horiz-adv-x="495" 
d="M127 3q-47 51 -47 134v10h80v-14q0 -45 25 -72.5t66 -27.5q39 0 62.5 22.5t23.5 59.5t-24 60t-64 23q-76 0 -122.5 44.5t-46.5 116.5q0 35 14.5 67.5t38.5 52.5q-25 19 -40.5 53t-15.5 69q0 73 46 117.5t121 44.5q77 0 124 -51t47 -134v-10h-80v15q0 45 -25 72.5
t-66 27.5q-39 0 -63 -22.5t-24 -59.5t24.5 -60t64.5 -24q76 0 122.5 -44t46.5 -116q0 -35 -14.5 -67.5t-38.5 -53.5q25 -19 40.5 -52.5t15.5 -68.5q0 -73 -46 -118t-121 -45q-77 0 -124 51zM311.5 297.5q23.5 22.5 23.5 59.5q0 38 -24.5 61t-64.5 23q-38 0 -62 -22.5
t-24 -59.5q0 -38 24 -61t65 -23q39 0 62.5 22.5z" />
    <glyph glyph-name="dieresis" unicode="&#xa8;" horiz-adv-x="352" 
d="M69 780h72v-117h-72v117zM212 780h71v-117h-71v117z" />
    <glyph glyph-name="copyright" unicode="&#xa9;" horiz-adv-x="841" 
d="M231.5 35.5q-81.5 48.5 -126.5 136.5t-45 204q0 115 45 203t126.5 136t188.5 48t189 -47.5t127 -133.5t45 -199q0 -118 -45 -207.5t-127 -139t-189 -49.5t-188.5 48.5zM578.5 88q68.5 42 106 118.5t37.5 176.5q0 95 -37.5 168t-106 113t-158.5 40q-89 0 -157.5 -41
t-106 -115.5t-37.5 -171.5q0 -98 37.5 -173t106 -116t157.5 -41q90 0 158.5 42zM341.5 171.5q-29.5 30.5 -29.5 80.5v246q0 50 29.5 80.5t78.5 30.5t78.5 -30.5t29.5 -80.5v-19h-59v19q0 23 -13.5 37t-35.5 14t-35.5 -14t-13.5 -37v-246q0 -23 13.5 -37t35.5 -14t35.5 14
t13.5 37v19h59v-19q0 -50 -29.5 -80.5t-78.5 -30.5t-78.5 30.5z" />
    <glyph glyph-name="ordfeminine" unicode="&#xaa;" horiz-adv-x="363" 
d="M252.5 730q28.5 -30 28.5 -78v-227h-56v20q-24 -27 -68 -27q-42 0 -66 24.5t-24 64.5q0 56 57 81q21 9 42 15q31 10 45 18.5t14 26.5v8q0 21 -13 34.5t-35 13.5q-21 0 -34 -13.5t-13 -34.5v-13h-57v9q0 49 28.5 78.5t75.5 29.5t75.5 -30zM210.5 484q14.5 14 14.5 40v53
q-14 -9 -43 -17q-18 -5 -24 -7q-17 -7 -25.5 -16.5t-8.5 -24.5q0 -18 13 -30t35 -12q24 0 38.5 14z" />
    <glyph glyph-name="guillemotleft" unicode="&#xab;" horiz-adv-x="542" 
d="M23 220v48l223 220v-98l-143 -146l143 -146v-98zM271 220v48l223 220v-98l-143 -146l143 -146v-98z" />
    <glyph glyph-name="logicalnot" unicode="&#xac;" horiz-adv-x="562" 
d="M375 230h-304v84h388v-200h-84v116z" />
    <glyph glyph-name="uni00AD" unicode="&#xad;" horiz-adv-x="426" 
d="M74 314h287v-84h-287v84z" />
    <glyph glyph-name="registered" unicode="&#xae;" horiz-adv-x="841" 
d="M231.5 35.5q-81.5 48.5 -126.5 136.5t-45 204q0 115 45 203t126.5 136t188.5 48t189 -47.5t127 -133.5t45 -199q0 -118 -45 -207.5t-127 -139t-189 -49.5t-188.5 48.5zM578.5 88q68.5 42 106 118.5t37.5 176.5q0 95 -37.5 168t-106 113t-158.5 40q-89 0 -157.5 -41
t-106 -115.5t-37.5 -171.5q0 -98 37.5 -173t106 -116t157.5 -41q90 0 158.5 42zM313 600h111q47 0 75 -29t28 -77v-65q0 -53 -35 -82q35 -23 35 -67v-130h-59v130q0 20 -12 31.5t-32 11.5h-51v-173h-60v450zM424 383q20 0 32 13t12 33v65q0 21 -12 34t-32 13h-51v-158h51z
" />
    <glyph glyph-name="macron" unicode="&#xaf;" horiz-adv-x="360" 
d="M290 750v-63h-221v63h221z" />
    <glyph glyph-name="degree" unicode="&#xb0;" horiz-adv-x="411" 
d="M115.5 546q-36.5 35 -36.5 91t36.5 91t88.5 35q53 0 90 -35t37 -91t-37 -91t-90 -35q-52 0 -88.5 35zM251 589q20 19 20 48q0 30 -20 48.5t-47 18.5t-46.5 -18.5t-19.5 -48.5q0 -29 20 -48t46 -19q27 0 47 19z" />
    <glyph glyph-name="plusminus" unicode="&#xb1;" horiz-adv-x="521" 
d="M454 372v-84h-151v-131h-84v131h-152v84h152v132h84v-132h151zM67 84h387v-84h-387v84z" />
    <glyph glyph-name="uni00B2" unicode="&#xb2;" horiz-adv-x="283" 
d="M31 383q0 52 24 85.5t70 71.5q33 29 48 47.5t15 42.5v49q0 23 -13.5 37.5t-35.5 14.5t-35 -14.5t-13 -37.5v-19h-60v19q0 49 30 80t78 31q49 0 79 -30.5t30 -80.5v-49q0 -38 -21 -66t-62 -63q-36 -32 -53.5 -54t-17.5 -51v-6h154v-60h-217v53z" />
    <glyph glyph-name="uni00B3" unicode="&#xb3;" horiz-adv-x="294" 
d="M59 350.5q-30 30.5 -30 80.5v19h60v-19q0 -23 13.5 -37t35.5 -14t35.5 14t13.5 37v49q0 23 -13.5 37t-35.5 14h-40v60h40q22 0 35.5 14t13.5 37v37q0 23 -13.5 37.5t-35.5 14.5t-35.5 -14.5t-13.5 -37.5v-19h-60v19q0 50 30 80.5t79 30.5t78.5 -30.5t29.5 -80.5v-37
q0 -52 -33 -81q33 -30 33 -81v-49q0 -50 -29.5 -80.5t-78.5 -30.5t-79 30.5z" />
    <glyph glyph-name="acute" unicode="&#xb4;" horiz-adv-x="213" 
d="M102 780h85l-89 -172h-62z" />
    <glyph glyph-name="uni00B5" unicode="&#xb5;" horiz-adv-x="533" 
d="M442 544v-544h-80v37q-40 -49 -108 -49q-38 0 -70 15v-153h-81v694h81v-376q0 -46 23.5 -73t65.5 -27t65.5 27t23.5 73v376h80z" />
    <glyph glyph-name="paragraph" unicode="&#xb6;" horiz-adv-x="460" 
d="M273 -150v529h-63q-75 0 -120.5 47.5t-45.5 124.5v27q0 77 45.5 124.5t120.5 47.5h147v-900h-84z" />
    <glyph glyph-name="periodcentered" unicode="&#xb7;" horiz-adv-x="269" 
d="M96 332h77v-120h-77v120z" />
    <glyph glyph-name="cedilla" unicode="&#xb8;" horiz-adv-x="264" 
d="M137 -46q39 0 64 -25.5t25 -60.5q0 -42 -27 -67.5t-71 -25.5h-68v61h68q16 0 26 9t10 23t-10 23.5t-26 9.5h-38l-28 18v100h62v-66z" />
    <glyph glyph-name="uni00B9" unicode="&#xb9;" horiz-adv-x="196" 
d="M77 675h-65v59h15q23 0 36.5 12t13.5 33v7h59v-456h-59v345z" />
    <glyph glyph-name="ordmasculine" unicode="&#xba;" horiz-adv-x="346" 
d="M98 448q-29 30 -29 78v126q0 49 28.5 78.5t75.5 29.5q46 0 74.5 -29.5t28.5 -78.5v-126q0 -49 -28.5 -78.5t-74.5 -29.5t-75 30zM207.5 487q12.5 13 12.5 35v134q0 21 -13 34.5t-34 13.5t-34 -13.5t-13 -34.5v-134q0 -21 13 -34.5t34 -13.5q22 0 34.5 13z" />
    <glyph glyph-name="guillemotright" unicode="&#xbb;" horiz-adv-x="542" 
d="M48 98l143 146l-143 146v98l223 -220v-48l-223 -220v98zM295 98l144 146l-144 146v98l223 -220v-48l-223 -220v98z" />
    <glyph glyph-name="onequarter" unicode="&#xbc;" horiz-adv-x="700" 
d="M77 645h-65v59h15q23 0 36.5 12t13.5 33v7h59v-456h-59v345zM429 750h71l-329 -750h-71zM574 89h-161v54l165 307h55v-301h39v-60h-39v-89h-59v89zM574 149v188l-99 -188h99z" />
    <glyph glyph-name="onehalf" unicode="&#xbd;" horiz-adv-x="687" 
d="M77 645h-65v59h15q23 0 36.5 12t13.5 33v7h59v-456h-59v345zM429 750h71l-329 -750h-71zM435 53q0 52 24 85.5t70 71.5q33 29 48 47.5t15 42.5v49q0 23 -13.5 37.5t-35.5 14.5t-35 -14.5t-13 -37.5v-19h-60v19q0 49 30 80t78 31q49 0 79 -30.5t30 -80.5v-49
q0 -38 -21 -66t-62 -63q-36 -32 -53.5 -54t-17.5 -51v-6h154v-60h-217v53z" />
    <glyph glyph-name="threequarters" unicode="&#xbe;" horiz-adv-x="798" 
d="M59 320.5q-30 30.5 -30 80.5v19h60v-19q0 -23 13.5 -37t35.5 -14t35.5 14t13.5 37v49q0 23 -13.5 37t-35.5 14h-40v60h40q22 0 35.5 14t13.5 37v37q0 23 -13.5 37.5t-35.5 14.5t-35.5 -14.5t-13.5 -37.5v-19h-60v19q0 50 30 80.5t79 30.5t78.5 -30.5t29.5 -80.5v-37
q0 -52 -33 -81q33 -30 33 -81v-49q0 -50 -29.5 -80.5t-78.5 -30.5t-79 30.5zM527 750h71l-329 -750h-71zM672 89h-161v54l165 307h55v-301h39v-60h-39v-89h-59v89zM672 149v188l-99 -188h99z" />
    <glyph glyph-name="questiondown" unicode="&#xbf;" horiz-adv-x="437" 
d="M274 416h-84v128h84v-128zM274 336q0 -57 -21.5 -97t-61.5 -87q-32 -36 -46.5 -60.5t-14.5 -55.5v-73q0 -46 25.5 -73.5t68.5 -27.5t69 27.5t26 73.5v27h84v-27q0 -83 -49 -134t-130 -51q-80 0 -129 51t-49 134v73q0 43 18 75.5t55 78.5q35 42 53 74t18 72v34h84v-34z
" />
    <glyph glyph-name="Agrave" unicode="&#xc0;" horiz-adv-x="459" 
d="M434 0h-87l-29 145h-176l-30 -145h-87l160 750h90zM303 229l-73 371l-73 -371h146zM111 986h86l66 -172h-62z" />
    <glyph glyph-name="Aacute" unicode="&#xc1;" horiz-adv-x="459" 
d="M434 0h-87l-29 145h-176l-30 -145h-87l160 750h90zM303 229l-73 371l-73 -371h146zM264 986h85l-89 -172h-62z" />
    <glyph glyph-name="Acircumflex" unicode="&#xc2;" horiz-adv-x="459" 
d="M434 0h-87l-29 145h-176l-30 -145h-87l160 750h90zM303 229l-73 371l-73 -371h146zM196 986h67l112 -146h-79l-66 92l-67 -92h-79z" />
    <glyph glyph-name="Atilde" unicode="&#xc3;" horiz-adv-x="459" 
d="M434 0h-87l-29 145h-176l-30 -145h-87l160 750h90zM303 229l-73 371l-73 -371h146zM258 841q-14 6 -31 18q-6 4 -15.5 11.5t-16.5 11t-13 3.5q-10 0 -14.5 -8t-4.5 -18v-19h-65v23q0 37 18 56.5t47 19.5q34 0 68 -25q3 -3 12 -10.5t17 -11t15 -3.5q9 0 14 8t5 19v21h64
v-27q0 -36 -18 -55.5t-47 -19.5q-21 0 -35 6z" />
    <glyph glyph-name="Adieresis" unicode="&#xc4;" horiz-adv-x="459" 
d="M434 0h-87l-29 145h-176l-30 -145h-87l160 750h90zM303 229l-73 371l-73 -371h146zM125 986h72v-117h-72v117zM268 986h71v-117h-71v117z" />
    <glyph glyph-name="Aring" unicode="&#xc5;" horiz-adv-x="459" 
d="M434 0h-87l-29 145h-176l-30 -145h-87l160 750h90zM303 229l-73 371l-73 -371h146zM163.5 805.5q-27.5 26.5 -27.5 67.5t27.5 67.5t66.5 26.5t66.5 -26.5t27.5 -67.5t-27.5 -67.5t-66.5 -26.5t-66.5 26.5zM259.5 843.5q12.5 11.5 12.5 29.5t-12.5 29.5t-29.5 11.5
q-16 0 -28.5 -11.5t-12.5 -29.5t12.5 -29.5t28.5 -11.5q17 0 29.5 11.5z" />
    <glyph glyph-name="AE" unicode="&#xc6;" horiz-adv-x="648" 
d="M185 750h421v-84h-221v-246h194v-84h-194v-252h221v-84h-305v145h-159l-30 -145h-87zM301 229v437h-53l-90 -437h143z" />
    <glyph glyph-name="Ccedilla" unicode="&#xc7;" horiz-adv-x="476" 
d="M348 554v27q0 46 -26 73.5t-69 27.5t-68.5 -27.5t-25.5 -73.5v-412q0 -46 25.5 -73.5t68.5 -27.5t69 27.5t26 73.5v27h84v-27q0 -74 -39 -122.5t-105 -59.5v-34l13 1q39 0 64 -25.5t25 -60.5q0 -42 -27 -67.5t-71 -25.5h-68v61h68q16 0 26 9t10 23t-10 23.5t-26 9.5h-38
l-28 18v67q-70 8 -110.5 57.5t-40.5 125.5v412q0 83 48.5 134t129.5 51t130 -51t49 -134v-27h-84z" />
    <glyph glyph-name="Egrave" unicode="&#xc8;" horiz-adv-x="431" 
d="M389 666h-219v-246h192v-84h-192v-252h219v-84h-303v750h303v-84zM93 986h86l66 -172h-62z" />
    <glyph glyph-name="Eacute" unicode="&#xc9;" horiz-adv-x="431" 
d="M389 666h-219v-246h192v-84h-192v-252h219v-84h-303v750h303v-84zM246 986h85l-89 -172h-62z" />
    <glyph glyph-name="Ecircumflex" unicode="&#xca;" horiz-adv-x="431" 
d="M389 666h-219v-246h192v-84h-192v-252h219v-84h-303v750h303v-84zM178 986h67l112 -146h-79l-66 92l-67 -92h-79z" />
    <glyph glyph-name="Edieresis" unicode="&#xcb;" horiz-adv-x="431" 
d="M389 666h-219v-246h192v-84h-192v-252h219v-84h-303v750h303v-84zM107 986h72v-117h-72v117zM250 986h71v-117h-71v117z" />
    <glyph glyph-name="Igrave" unicode="&#xcc;" horiz-adv-x="256" 
d="M86 0v750h84v-750h-84zM9 986h86l66 -172h-62z" />
    <glyph glyph-name="Iacute" unicode="&#xcd;" horiz-adv-x="256" 
d="M86 0v750h84v-750h-84zM162 986h85l-89 -172h-62z" />
    <glyph glyph-name="Icircumflex" unicode="&#xce;" horiz-adv-x="256" 
d="M86 0v750h84v-750h-84zM94 986h67l112 -146h-79l-66 92l-67 -92h-79z" />
    <glyph glyph-name="Idieresis" unicode="&#xcf;" horiz-adv-x="256" 
d="M86 0v750h84v-750h-84zM23 986h72v-117h-72v117zM166 986h71v-117h-71v117z" />
    <glyph glyph-name="Eth" unicode="&#xd0;" horiz-adv-x="507" 
d="M388 699q49 -51 49 -134v-380q0 -83 -49 -134t-130 -51h-172v340h-77v70h77v340h172q81 0 130 -51zM353 565q0 46 -26 73.5t-69 27.5h-88v-256h76v-70h-76v-256h88q43 0 69 27.5t26 73.5v380z" />
    <glyph glyph-name="Ntilde" unicode="&#xd1;" horiz-adv-x="525" 
d="M439 750v-750h-71l-202 531v-531h-80v750h71l202 -531v531h80zM291 841q-14 6 -31 18q-6 4 -15.5 11.5t-16.5 11t-13 3.5q-10 0 -14.5 -8t-4.5 -18v-19h-65v23q0 37 18 56.5t47 19.5q34 0 68 -25q3 -3 12 -10.5t17 -11t15 -3.5q9 0 14 8t5 19v21h64v-27q0 -36 -18 -55.5
t-47 -19.5q-21 0 -35 6z" />
    <glyph glyph-name="Ograve" unicode="&#xd2;" horiz-adv-x="507" 
d="M123.5 35q-48.5 51 -48.5 134v412q0 83 48.5 134t129.5 51t130 -51t49 -134v-412q0 -83 -49 -134t-130 -51t-129.5 51zM322 95.5q26 27.5 26 73.5v412q0 46 -26 73.5t-69 27.5t-68.5 -27.5t-25.5 -73.5v-412q0 -46 25.5 -73.5t68.5 -27.5t69 27.5zM134 986h86l66 -172
h-62z" />
    <glyph glyph-name="Oacute" unicode="&#xd3;" horiz-adv-x="507" 
d="M123.5 35q-48.5 51 -48.5 134v412q0 83 48.5 134t129.5 51t130 -51t49 -134v-412q0 -83 -49 -134t-130 -51t-129.5 51zM322 95.5q26 27.5 26 73.5v412q0 46 -26 73.5t-69 27.5t-68.5 -27.5t-25.5 -73.5v-412q0 -46 25.5 -73.5t68.5 -27.5t69 27.5zM287 986h85l-89 -172
h-62z" />
    <glyph glyph-name="Ocircumflex" unicode="&#xd4;" horiz-adv-x="507" 
d="M123.5 35q-48.5 51 -48.5 134v412q0 83 48.5 134t129.5 51t130 -51t49 -134v-412q0 -83 -49 -134t-130 -51t-129.5 51zM322 95.5q26 27.5 26 73.5v412q0 46 -26 73.5t-69 27.5t-68.5 -27.5t-25.5 -73.5v-412q0 -46 25.5 -73.5t68.5 -27.5t69 27.5zM219 986h67l112 -146
h-79l-66 92l-67 -92h-79z" />
    <glyph glyph-name="Otilde" unicode="&#xd5;" horiz-adv-x="507" 
d="M123.5 35q-48.5 51 -48.5 134v412q0 83 48.5 134t129.5 51t130 -51t49 -134v-412q0 -83 -49 -134t-130 -51t-129.5 51zM322 95.5q26 27.5 26 73.5v412q0 46 -26 73.5t-69 27.5t-68.5 -27.5t-25.5 -73.5v-412q0 -46 25.5 -73.5t68.5 -27.5t69 27.5zM281 841q-14 6 -31 18
q-6 4 -15.5 11.5t-16.5 11t-13 3.5q-10 0 -14.5 -8t-4.5 -18v-19h-65v23q0 37 18 56.5t47 19.5q34 0 68 -25q3 -3 12 -10.5t17 -11t15 -3.5q9 0 14 8t5 19v21h64v-27q0 -36 -18 -55.5t-47 -19.5q-21 0 -35 6z" />
    <glyph glyph-name="Odieresis" unicode="&#xd6;" horiz-adv-x="507" 
d="M123.5 35q-48.5 51 -48.5 134v412q0 83 48.5 134t129.5 51t130 -51t49 -134v-412q0 -83 -49 -134t-130 -51t-129.5 51zM322 95.5q26 27.5 26 73.5v412q0 46 -26 73.5t-69 27.5t-68.5 -27.5t-25.5 -73.5v-412q0 -46 25.5 -73.5t68.5 -27.5t69 27.5zM148 986h72v-117h-72
v117zM291 986h71v-117h-71v117z" />
    <glyph glyph-name="multiply" unicode="&#xd7;" horiz-adv-x="451" 
d="M333 107l-107 107l-108 -108l-59 60l108 107l-107 107l59 60l107 -107l107 106l59 -59l-106 -106l107 -108z" />
    <glyph glyph-name="Oslash" unicode="&#xd8;" horiz-adv-x="507" 
d="M420 655q12 -33 12 -74v-412q0 -83 -49 -134t-130 -51q-84 0 -135 56l-36 -74h-58l63 129q-12 33 -12 74v412q0 83 48.5 134t129.5 51q42 0 77 -15t59 -42l36 74h58zM159 241l184 375q-8 31 -32 48.5t-58 17.5q-43 0 -68.5 -27.5t-25.5 -73.5v-340zM348 508l-184 -375
q9 -30 32.5 -47.5t56.5 -17.5q43 0 69 27.5t26 73.5v339z" />
    <glyph glyph-name="Ugrave" unicode="&#xd9;" horiz-adv-x="519" 
d="M438 169q0 -83 -49 -134t-130 -51t-129.5 51t-48.5 134v581h84v-581q0 -46 25.5 -73.5t68.5 -27.5t69 27.5t26 73.5v581h84v-581zM141 986h86l66 -172h-62z" />
    <glyph glyph-name="Uacute" unicode="&#xda;" horiz-adv-x="519" 
d="M438 169q0 -83 -49 -134t-130 -51t-129.5 51t-48.5 134v581h84v-581q0 -46 25.5 -73.5t68.5 -27.5t69 27.5t26 73.5v581h84v-581zM294 986h85l-89 -172h-62z" />
    <glyph glyph-name="Ucircumflex" unicode="&#xdb;" horiz-adv-x="519" 
d="M438 169q0 -83 -49 -134t-130 -51t-129.5 51t-48.5 134v581h84v-581q0 -46 25.5 -73.5t68.5 -27.5t69 27.5t26 73.5v581h84v-581zM226 986h67l112 -146h-79l-66 92l-67 -92h-79z" />
    <glyph glyph-name="Udieresis" unicode="&#xdc;" horiz-adv-x="519" 
d="M438 169q0 -83 -49 -134t-130 -51t-129.5 51t-48.5 134v581h84v-581q0 -46 25.5 -73.5t68.5 -27.5t69 27.5t26 73.5v581h84v-581zM155 986h72v-117h-72v117zM298 986h71v-117h-71v117z" />
    <glyph glyph-name="Yacute" unicode="&#xdd;" 
d="M455 750l-178 -372v-378h-84v378l-179 372h86l135 -285l134 285h86zM269 986h85l-89 -172h-62z" />
    <glyph glyph-name="Thorn" unicode="&#xde;" horiz-adv-x="474" 
d="M86 750h84v-111h101q75 0 120.5 -47.5t45.5 -125.5v-84q0 -77 -45.5 -124.5t-120.5 -47.5h-101v-210h-84v750zM271 294q37 0 59.5 24t22.5 64v84q0 40 -22.5 64.5t-59.5 24.5h-101v-261h101z" />
    <glyph glyph-name="germandbls" unicode="&#xdf;" horiz-adv-x="494" 
d="M429 330.5q15 -34.5 15 -77.5v-86q0 -78 -45.5 -125t-120.5 -47h-51v84h51q37 0 59.5 24t22.5 64v86q0 40 -22.5 64t-59.5 24h-51v84h41q37 0 59.5 24.5t22.5 64.5v63q0 47 -27.5 76t-71.5 29t-71 -29t-27 -76v-697h-84v697q0 85 50 137t132 52q83 0 133 -52t50 -137v-63
q0 -76 -47 -126q27 -23 42 -57.5z" />
    <glyph glyph-name="agrave" unicode="&#xe0;" horiz-adv-x="452" 
d="M343 507q48 -49 48 -128v-379h-80v39q-40 -51 -120 -51q-73 0 -113.5 40.5t-40.5 106.5q0 54 26.5 85.5t70.5 49.5q17 7 39.5 13.5t31.5 9.5q37 10 57.5 18t34.5 22t14 37v12q0 42 -25.5 68t-67.5 26t-66 -26t-24 -68v-17h-81v14q0 79 47 128t124 49t125 -49zM284 91
q27 27 27 76v93q-16 -11 -34.5 -17t-47.5 -13q-32 -8 -47 -13q-31 -11 -48 -28.5t-17 -46.5q0 -35 24.5 -56.5t67.5 -21.5q48 0 75 27zM99 780h86l66 -172h-62z" />
    <glyph glyph-name="aacute" unicode="&#xe1;" horiz-adv-x="452" 
d="M343 507q48 -49 48 -128v-379h-80v39q-40 -51 -120 -51q-73 0 -113.5 40.5t-40.5 106.5q0 54 26.5 85.5t70.5 49.5q17 7 39.5 13.5t31.5 9.5q37 10 57.5 18t34.5 22t14 37v12q0 42 -25.5 68t-67.5 26t-66 -26t-24 -68v-17h-81v14q0 79 47 128t124 49t125 -49zM284 91
q27 27 27 76v93q-16 -11 -34.5 -17t-47.5 -13q-32 -8 -47 -13q-31 -11 -48 -28.5t-17 -46.5q0 -35 24.5 -56.5t67.5 -21.5q48 0 75 27zM252 780h85l-89 -172h-62z" />
    <glyph glyph-name="acircumflex" unicode="&#xe2;" horiz-adv-x="452" 
d="M343 507q48 -49 48 -128v-379h-80v39q-40 -51 -120 -51q-73 0 -113.5 40.5t-40.5 106.5q0 54 26.5 85.5t70.5 49.5q17 7 39.5 13.5t31.5 9.5q37 10 57.5 18t34.5 22t14 37v12q0 42 -25.5 68t-67.5 26t-66 -26t-24 -68v-17h-81v14q0 79 47 128t124 49t125 -49zM284 91
q27 27 27 76v93q-16 -11 -34.5 -17t-47.5 -13q-32 -8 -47 -13q-31 -11 -48 -28.5t-17 -46.5q0 -35 24.5 -56.5t67.5 -21.5q48 0 75 27zM184 780h67l112 -146h-79l-66 92l-67 -92h-79z" />
    <glyph glyph-name="atilde" unicode="&#xe3;" horiz-adv-x="452" 
d="M343 507q48 -49 48 -128v-379h-80v39q-40 -51 -120 -51q-73 0 -113.5 40.5t-40.5 106.5q0 54 26.5 85.5t70.5 49.5q17 7 39.5 13.5t31.5 9.5q37 10 57.5 18t34.5 22t14 37v12q0 42 -25.5 68t-67.5 26t-66 -26t-24 -68v-17h-81v14q0 79 47 128t124 49t125 -49zM284 91
q27 27 27 76v93q-16 -11 -34.5 -17t-47.5 -13q-32 -8 -47 -13q-31 -11 -48 -28.5t-17 -46.5q0 -35 24.5 -56.5t67.5 -21.5q48 0 75 27zM246 635q-14 6 -31 18q-6 4 -15.5 11.5t-16.5 11t-13 3.5q-10 0 -14.5 -8t-4.5 -18v-19h-65v23q0 37 18 56.5t47 19.5q34 0 68 -25
q3 -3 12 -10.5t17 -11t15 -3.5q9 0 14 8t5 19v21h64v-27q0 -36 -18 -55.5t-47 -19.5q-21 0 -35 6z" />
    <glyph glyph-name="adieresis" unicode="&#xe4;" horiz-adv-x="452" 
d="M343 507q48 -49 48 -128v-379h-80v39q-40 -51 -120 -51q-73 0 -113.5 40.5t-40.5 106.5q0 54 26.5 85.5t70.5 49.5q17 7 39.5 13.5t31.5 9.5q37 10 57.5 18t34.5 22t14 37v12q0 42 -25.5 68t-67.5 26t-66 -26t-24 -68v-17h-81v14q0 79 47 128t124 49t125 -49zM284 91
q27 27 27 76v93q-16 -11 -34.5 -17t-47.5 -13q-32 -8 -47 -13q-31 -11 -48 -28.5t-17 -46.5q0 -35 24.5 -56.5t67.5 -21.5q48 0 75 27zM113 780h72v-117h-72v117zM256 780h71v-117h-71v117z" />
    <glyph glyph-name="aring" unicode="&#xe5;" horiz-adv-x="452" 
d="M343 507q48 -49 48 -128v-379h-80v39q-40 -51 -120 -51q-73 0 -113.5 40.5t-40.5 106.5q0 54 26.5 85.5t70.5 49.5q17 7 39.5 13.5t31.5 9.5q37 10 57.5 18t34.5 22t14 37v12q0 42 -25.5 68t-67.5 26t-66 -26t-24 -68v-17h-81v14q0 79 47 128t124 49t125 -49zM284 91
q27 27 27 76v93q-16 -11 -34.5 -17t-47.5 -13q-32 -8 -47 -13q-31 -11 -48 -28.5t-17 -46.5q0 -35 24.5 -56.5t67.5 -21.5q48 0 75 27zM151.5 599.5q-27.5 26.5 -27.5 67.5t27.5 67.5t66.5 26.5t66.5 -26.5t27.5 -67.5t-27.5 -67.5t-66.5 -26.5t-66.5 26.5zM247.5 637.5
q12.5 11.5 12.5 29.5t-12.5 29.5t-29.5 11.5q-16 0 -28.5 -11.5t-12.5 -29.5t12.5 -29.5t28.5 -11.5q17 0 29.5 11.5z" />
    <glyph glyph-name="ae" unicode="&#xe6;" horiz-adv-x="704" 
d="M391 258v-96q0 -42 25 -68t67 -26t66.5 26t24.5 68v14h80v-10q0 -80 -47 -129t-124 -49q-49 0 -87.5 20.5t-60.5 58.5q-22 -40 -60.5 -59.5t-83.5 -19.5q-73 0 -113.5 40.5t-40.5 106.5q0 54 26.5 85.5t70.5 49.5q17 7 39.5 13.5t31.5 9.5q37 10 57.5 18t34.5 22t14 37
v12q0 42 -25.5 68t-67.5 26t-66 -26t-24 -68v-17h-81v14q0 79 47 128t124 49q42 0 76 -15t57 -43q23 28 56.5 43t75.5 15q77 0 124 -48.5t47 -128.5v-121h-263zM391 334h183v48q0 42 -24.5 68t-66.5 26t-67 -26t-25 -68v-48zM311 260q-16 -11 -34.5 -17t-47.5 -13
q-32 -8 -47 -13q-31 -11 -48 -28.5t-17 -46.5q0 -35 24.5 -56.5t67.5 -21.5q48 0 75 27t27 76v93z" />
    <glyph glyph-name="ccedilla" unicode="&#xe7;" horiz-adv-x="433" 
d="M316 369v13q0 42 -24 68t-66 26t-67 -26t-25 -68v-220q0 -42 25 -68t67 -26t66 26t24 68v14h81v-10q0 -70 -37 -117t-99 -58v-38l13 1q39 0 64 -25.5t25 -60.5q0 -42 -27 -67.5t-71 -25.5h-68v61h68q16 0 26 9t10 23t-10 23.5t-26 9.5h-38l-28 18v71q-66 8 -106 56
t-40 120v213q0 79 48 128t125 49t124 -49t47 -128v-10h-81z" />
    <glyph glyph-name="egrave" unicode="&#xe8;" horiz-adv-x="447" 
d="M134 258v-96q0 -42 25 -68t67 -26t66 26t24 68v14h81v-10q0 -80 -47 -129t-124 -49t-125 49t-48 129v213q0 79 48 128t125 49t124 -49t47 -128v-121h-263zM159 450q-25 -26 -25 -68v-48h182v48q0 42 -24 68t-66 26t-67 -26zM107 780h86l66 -172h-62z" />
    <glyph glyph-name="eacute" unicode="&#xe9;" horiz-adv-x="447" 
d="M134 258v-96q0 -42 25 -68t67 -26t66 26t24 68v14h81v-10q0 -80 -47 -129t-124 -49t-125 49t-48 129v213q0 79 48 128t125 49t124 -49t47 -128v-121h-263zM159 450q-25 -26 -25 -68v-48h182v48q0 42 -24 68t-66 26t-67 -26zM260 780h85l-89 -172h-62z" />
    <glyph glyph-name="ecircumflex" unicode="&#xea;" horiz-adv-x="447" 
d="M134 258v-96q0 -42 25 -68t67 -26t66 26t24 68v14h81v-10q0 -80 -47 -129t-124 -49t-125 49t-48 129v213q0 79 48 128t125 49t124 -49t47 -128v-121h-263zM159 450q-25 -26 -25 -68v-48h182v48q0 42 -24 68t-66 26t-67 -26zM192 780h67l112 -146h-79l-66 92l-67 -92h-79z
" />
    <glyph glyph-name="edieresis" unicode="&#xeb;" horiz-adv-x="447" 
d="M134 258v-96q0 -42 25 -68t67 -26t66 26t24 68v14h81v-10q0 -80 -47 -129t-124 -49t-125 49t-48 129v213q0 79 48 128t125 49t124 -49t47 -128v-121h-263zM159 450q-25 -26 -25 -68v-48h182v48q0 42 -24 68t-66 26t-67 -26zM121 780h72v-117h-72v117zM264 780h71v-117
h-71v117z" />
    <glyph glyph-name="igrave" unicode="&#xec;" horiz-adv-x="219" 
d="M69 544h81v-544h-81v544zM-9 780h86l66 -172h-62z" />
    <glyph glyph-name="iacute" unicode="&#xed;" horiz-adv-x="219" 
d="M69 544h81v-544h-81v544zM144 780h85l-89 -172h-62z" />
    <glyph glyph-name="icircumflex" unicode="&#xee;" horiz-adv-x="219" 
d="M69 544h81v-544h-81v544zM76 780h67l112 -146h-79l-66 92l-67 -92h-79z" />
    <glyph glyph-name="idieresis" unicode="&#xef;" horiz-adv-x="219" 
d="M69 544h81v-544h-81v544zM5 780h72v-117h-72v117zM148 780h71v-117h-71v117z" />
    <glyph glyph-name="eth" unicode="&#xf0;" horiz-adv-x="468" 
d="M453 631l-57 -15q2 -16 2 -26v-590h-80v34q-40 -46 -106 -46q-69 0 -112.5 45t-43.5 129v220q0 84 43.5 129t112.5 45q67 0 106 -47v81v5l-85 -23v58l68 19q-11 17 -30.5 26t-43.5 9h-23v66h41q46 0 81.5 -21t54.5 -59l72 20v-59zM294 93q24 25 24 68v221q0 43 -24 68.5
t-67 25.5q-42 0 -66.5 -26t-24.5 -68v-220q0 -42 24.5 -68t66.5 -26q43 0 67 25z" />
    <glyph glyph-name="ntilde" unicode="&#xf1;" 
d="M366 509q40 -47 40 -127v-382h-80v382q0 42 -24 68t-64 26t-64 -26t-24 -68v-382h-81v544h81v-37q38 49 108 49q68 0 108 -47zM266 635q-14 6 -31 18q-6 4 -15.5 11.5t-16.5 11t-13 3.5q-10 0 -14.5 -8t-4.5 -18v-19h-65v23q0 37 18 56.5t47 19.5q34 0 68 -25
q3 -3 12 -10.5t17 -11t15 -3.5q9 0 14 8t5 19v21h64v-27q0 -36 -18 -55.5t-47 -19.5q-21 0 -35 6z" />
    <glyph glyph-name="ograve" unicode="&#xf2;" horiz-adv-x="451" 
d="M101 37q-48 49 -48 129v213q0 79 48 128t125 49t124 -49t47 -128v-213q0 -80 -47 -129t-124 -49t-125 49zM292 94q24 26 24 68v220q0 42 -24 68t-66 26t-67 -26t-25 -68v-220q0 -42 25 -68t67 -26t66 26zM107 780h86l66 -172h-62z" />
    <glyph glyph-name="oacute" unicode="&#xf3;" horiz-adv-x="451" 
d="M101 37q-48 49 -48 129v213q0 79 48 128t125 49t124 -49t47 -128v-213q0 -80 -47 -129t-124 -49t-125 49zM292 94q24 26 24 68v220q0 42 -24 68t-66 26t-67 -26t-25 -68v-220q0 -42 25 -68t67 -26t66 26zM260 780h85l-89 -172h-62z" />
    <glyph glyph-name="ocircumflex" unicode="&#xf4;" horiz-adv-x="451" 
d="M101 37q-48 49 -48 129v213q0 79 48 128t125 49t124 -49t47 -128v-213q0 -80 -47 -129t-124 -49t-125 49zM292 94q24 26 24 68v220q0 42 -24 68t-66 26t-67 -26t-25 -68v-220q0 -42 25 -68t67 -26t66 26zM192 780h67l112 -146h-79l-66 92l-67 -92h-79z" />
    <glyph glyph-name="otilde" unicode="&#xf5;" horiz-adv-x="451" 
d="M101 37q-48 49 -48 129v213q0 79 48 128t125 49t124 -49t47 -128v-213q0 -80 -47 -129t-124 -49t-125 49zM292 94q24 26 24 68v220q0 42 -24 68t-66 26t-67 -26t-25 -68v-220q0 -42 25 -68t67 -26t66 26zM254 635q-14 6 -31 18q-6 4 -15.5 11.5t-16.5 11t-13 3.5
q-10 0 -14.5 -8t-4.5 -18v-19h-65v23q0 37 18 56.5t47 19.5q34 0 68 -25q3 -3 12 -10.5t17 -11t15 -3.5q9 0 14 8t5 19v21h64v-27q0 -36 -18 -55.5t-47 -19.5q-21 0 -35 6z" />
    <glyph glyph-name="odieresis" unicode="&#xf6;" horiz-adv-x="451" 
d="M101 37q-48 49 -48 129v213q0 79 48 128t125 49t124 -49t47 -128v-213q0 -80 -47 -129t-124 -49t-125 49zM292 94q24 26 24 68v220q0 42 -24 68t-66 26t-67 -26t-25 -68v-220q0 -42 25 -68t67 -26t66 26zM121 780h72v-117h-72v117zM264 780h71v-117h-71v117z" />
    <glyph glyph-name="divide" unicode="&#xf7;" horiz-adv-x="533" 
d="M225 481h84v-125h-84v125zM53 314h427v-84h-427v84zM225 190h84v-125h-84v125z" />
    <glyph glyph-name="oslash" unicode="&#xf8;" horiz-adv-x="451" 
d="M369 482q28 -44 28 -103v-213q0 -80 -47 -129t-124 -49q-63 0 -107 33l-23 -41h-58l44 81q-29 43 -29 105v213q0 79 48 128t125 49q64 0 107 -34l23 42h58zM134 157l159 292q-24 27 -67 27q-42 0 -67 -26t-25 -68v-220v-5zM316 384l-158 -290q26 -26 68 -26t66 26t24 68
v220v2z" />
    <glyph glyph-name="ugrave" unicode="&#xf9;" 
d="M400 544v-544h-80v36q-39 -48 -108 -48q-67 0 -108 44t-41 129v383h80v-383q0 -42 24 -67.5t64 -25.5t64.5 25.5t24.5 67.5v383h80zM112 780h86l66 -172h-62z" />
    <glyph glyph-name="uacute" unicode="&#xfa;" 
d="M400 544v-544h-80v36q-39 -48 -108 -48q-67 0 -108 44t-41 129v383h80v-383q0 -42 24 -67.5t64 -25.5t64.5 25.5t24.5 67.5v383h80zM265 780h85l-89 -172h-62z" />
    <glyph glyph-name="ucircumflex" unicode="&#xfb;" 
d="M400 544v-544h-80v36q-39 -48 -108 -48q-67 0 -108 44t-41 129v383h80v-383q0 -42 24 -67.5t64 -25.5t64.5 25.5t24.5 67.5v383h80zM197 780h67l112 -146h-79l-66 92l-67 -92h-79z" />
    <glyph glyph-name="udieresis" unicode="&#xfc;" 
d="M400 544v-544h-80v36q-39 -48 -108 -48q-67 0 -108 44t-41 129v383h80v-383q0 -42 24 -67.5t64 -25.5t64.5 25.5t24.5 67.5v383h80zM126 780h72v-117h-72v117zM269 780h71v-117h-71v117z" />
    <glyph glyph-name="yacute" unicode="&#xfd;" horiz-adv-x="419" 
d="M410 544l-207 -724h-86l49 170l-157 554h88l113 -414l112 414h88zM244 780h85l-89 -172h-62z" />
    <glyph glyph-name="thorn" unicode="&#xfe;" horiz-adv-x="467" 
d="M368.5 511q43.5 -45 43.5 -129v-220q0 -84 -43.5 -129t-112.5 -45q-33 0 -60.5 12t-45.5 34v-214h-81v930h81v-240q18 22 45.5 34t60.5 12q69 0 112.5 -45zM331 382q0 43 -24.5 68.5t-66.5 25.5q-43 0 -66.5 -25.5t-23.5 -68.5v-221q0 -43 23.5 -68t66.5 -25
q42 0 66.5 25.5t24.5 68.5v220z" />
    <glyph glyph-name="ydieresis" unicode="&#xff;" horiz-adv-x="419" 
d="M410 544l-207 -724h-86l49 170l-157 554h88l113 -414l112 414h88zM105 780h72v-117h-72v117zM248 780h71v-117h-71v117z" />
    <glyph glyph-name="Amacron" unicode="&#x100;" horiz-adv-x="459" 
d="M434 0h-87l-29 145h-176l-30 -145h-87l160 750h90zM303 229l-73 371l-73 -371h146zM340 894v-63h-221v63h221z" />
    <glyph glyph-name="amacron" unicode="&#x101;" horiz-adv-x="452" 
d="M343 507q48 -49 48 -128v-379h-80v39q-40 -51 -120 -51q-73 0 -113.5 40.5t-40.5 106.5q0 54 26.5 85.5t70.5 49.5q17 7 39.5 13.5t31.5 9.5q37 10 57.5 18t34.5 22t14 37v12q0 42 -25.5 68t-67.5 26t-66 -26t-24 -68v-17h-81v14q0 79 47 128t124 49t125 -49zM284 91
q27 27 27 76v93q-16 -11 -34.5 -17t-47.5 -13q-32 -8 -47 -13q-31 -11 -48 -28.5t-17 -46.5q0 -35 24.5 -56.5t67.5 -21.5q48 0 75 27zM328 688v-63h-221v63h221z" />
    <glyph glyph-name="Abreve" unicode="&#x102;" horiz-adv-x="459" 
d="M434 0h-87l-29 145h-176l-30 -145h-87l160 750h90zM303 229l-73 371l-73 -371h146zM149 898q-32 30 -32 78v10h58v-10q0 -25 15.5 -40.5t39.5 -15.5t39 15.5t15 40.5v10h57v-10q0 -48 -31 -78t-80 -30t-81 30z" />
    <glyph glyph-name="abreve" unicode="&#x103;" horiz-adv-x="452" 
d="M343 507q48 -49 48 -128v-379h-80v39q-40 -51 -120 -51q-73 0 -113.5 40.5t-40.5 106.5q0 54 26.5 85.5t70.5 49.5q17 7 39.5 13.5t31.5 9.5q37 10 57.5 18t34.5 22t14 37v12q0 42 -25.5 68t-67.5 26t-66 -26t-24 -68v-17h-81v14q0 79 47 128t124 49t125 -49zM284 91
q27 27 27 76v93q-16 -11 -34.5 -17t-47.5 -13q-32 -8 -47 -13q-31 -11 -48 -28.5t-17 -46.5q0 -35 24.5 -56.5t67.5 -21.5q48 0 75 27zM137 692q-32 30 -32 78v10h58v-10q0 -25 15.5 -40.5t39.5 -15.5t39 15.5t15 40.5v10h57v-10q0 -48 -31 -78t-80 -30t-81 30z" />
    <glyph glyph-name="Aogonek" unicode="&#x104;" horiz-adv-x="459" 
d="M436 -151v-62h-19q-58 0 -90.5 27.5t-32.5 73.5q0 63 61 112h-8l-29 145h-176l-30 -145h-87l160 750h90l159 -750h-18q-29 -24 -44 -48t-15 -51q0 -24 17 -38t47 -14h15zM303 229l-73 371l-73 -371h146z" />
    <glyph glyph-name="aogonek" unicode="&#x105;" horiz-adv-x="452" 
d="M393 -151v-62h-19q-58 0 -90.5 27.5t-32.5 73.5q0 63 61 112h-1v39q-40 -51 -120 -51q-73 0 -113.5 40.5t-40.5 106.5q0 54 26.5 85.5t70.5 49.5q17 7 39.5 13.5t31.5 9.5q37 10 57.5 18t34.5 22t14 37v12q0 42 -25.5 68t-67.5 26t-66 -26t-24 -68v-17h-81v14
q0 79 47 128t124 49t125 -49t48 -128v-379h-18q-29 -24 -44 -48t-15 -51q0 -24 17 -38t47 -14h15zM284 91q27 27 27 76v93q-16 -11 -34.5 -17t-47.5 -13q-32 -8 -47 -13q-31 -11 -48 -28.5t-17 -46.5q0 -35 24.5 -56.5t67.5 -21.5q48 0 75 27z" />
    <glyph glyph-name="Cacute" unicode="&#x106;" horiz-adv-x="476" 
d="M432 169q0 -83 -49 -134t-130 -51t-129.5 51t-48.5 134v412q0 83 48.5 134t129.5 51t130 -51t49 -134v-27h-84v27q0 46 -26 73.5t-69 27.5t-68.5 -27.5t-25.5 -73.5v-412q0 -46 25.5 -73.5t68.5 -27.5t69 27.5t26 73.5v27h84v-27zM287 986h85l-89 -172h-62z" />
    <glyph glyph-name="cacute" unicode="&#x107;" horiz-adv-x="433" 
d="M397 166q0 -80 -47 -129t-124 -49t-125 49t-48 129v213q0 79 48 128t125 49t124 -49t47 -128v-10h-81v13q0 42 -24 68t-66 26t-67 -26t-25 -68v-220q0 -42 25 -68t67 -26t66 26t24 68v14h81v-10zM260 780h85l-89 -172h-62z" />
    <glyph glyph-name="Ccircumflex" unicode="&#x108;" horiz-adv-x="476" 
d="M432 169q0 -83 -49 -134t-130 -51t-129.5 51t-48.5 134v412q0 83 48.5 134t129.5 51t130 -51t49 -134v-27h-84v27q0 46 -26 73.5t-69 27.5t-68.5 -27.5t-25.5 -73.5v-412q0 -46 25.5 -73.5t68.5 -27.5t69 27.5t26 73.5v27h84v-27zM219 986h67l112 -146h-79l-66 92
l-67 -92h-79z" />
    <glyph glyph-name="ccircumflex" unicode="&#x109;" horiz-adv-x="433" 
d="M397 166q0 -80 -47 -129t-124 -49t-125 49t-48 129v213q0 79 48 128t125 49t124 -49t47 -128v-10h-81v13q0 42 -24 68t-66 26t-67 -26t-25 -68v-220q0 -42 25 -68t67 -26t66 26t24 68v14h81v-10zM192 780h67l112 -146h-79l-66 92l-67 -92h-79z" />
    <glyph glyph-name="Cdotaccent" unicode="&#x10a;" horiz-adv-x="476" 
d="M432 169q0 -83 -49 -134t-130 -51t-129.5 51t-48.5 134v412q0 83 48.5 134t129.5 51t130 -51t49 -134v-27h-84v27q0 46 -26 73.5t-69 27.5t-68.5 -27.5t-25.5 -73.5v-412q0 -46 25.5 -73.5t68.5 -27.5t69 27.5t26 73.5v27h84v-27zM217 956h72v-117h-72v117z" />
    <glyph glyph-name="cdotaccent" unicode="&#x10b;" horiz-adv-x="433" 
d="M397 166q0 -80 -47 -129t-124 -49t-125 49t-48 129v213q0 79 48 128t125 49t124 -49t47 -128v-10h-81v13q0 42 -24 68t-66 26t-67 -26t-25 -68v-220q0 -42 25 -68t67 -26t66 26t24 68v14h81v-10zM190 750h72v-117h-72v117z" />
    <glyph glyph-name="Ccaron" unicode="&#x10c;" horiz-adv-x="476" 
d="M432 169q0 -83 -49 -134t-130 -51t-129.5 51t-48.5 134v412q0 83 48.5 134t129.5 51t130 -51t49 -134v-27h-84v27q0 46 -26 73.5t-69 27.5t-68.5 -27.5t-25.5 -73.5v-412q0 -46 25.5 -73.5t68.5 -27.5t69 27.5t26 73.5v27h84v-27zM107 986h79l67 -92l66 92h79l-112 -146
h-67z" />
    <glyph glyph-name="ccaron" unicode="&#x10d;" horiz-adv-x="433" 
d="M397 166q0 -80 -47 -129t-124 -49t-125 49t-48 129v213q0 79 48 128t125 49t124 -49t47 -128v-10h-81v13q0 42 -24 68t-66 26t-67 -26t-25 -68v-220q0 -42 25 -68t67 -26t66 26t24 68v14h81v-10zM80 780h79l67 -92l66 92h79l-112 -146h-67z" />
    <glyph glyph-name="Dcaron" unicode="&#x10e;" horiz-adv-x="507" 
d="M86 750h172q81 0 130 -51t49 -134v-380q0 -83 -49 -134t-130 -51h-172v750zM258 84q43 0 69 27.5t26 73.5v380q0 46 -26 73.5t-69 27.5h-88v-582h88zM108 986h79l67 -92l66 92h79l-112 -146h-67z" />
    <glyph glyph-name="dcaron" unicode="&#x10f;" horiz-adv-x="651" 
d="M398 750v-750h-80v34q-40 -46 -106 -46q-69 0 -112.5 45t-43.5 129v220q0 84 43.5 129t112.5 45q67 0 106 -47v241h80zM294 93q24 25 24 68v221q0 43 -24 68.5t-67 25.5q-42 0 -66.5 -26t-24.5 -68v-220q0 -42 24.5 -68t66.5 -26q43 0 67 25zM495 750h80l-40 -224h-80z
" />
    <glyph glyph-name="Dcroat" unicode="&#x110;" horiz-adv-x="507" 
d="M388 699q49 -51 49 -134v-380q0 -83 -49 -134t-130 -51h-172v340h-77v70h77v340h172q81 0 130 -51zM353 565q0 46 -26 73.5t-69 27.5h-88v-256h76v-70h-76v-256h88q43 0 69 27.5t26 73.5v380z" />
    <glyph glyph-name="dcroat" unicode="&#x111;" horiz-adv-x="468" 
d="M476 608h-78v-608h-80v34q-40 -46 -106 -46q-69 0 -112.5 45t-43.5 129v220q0 84 43.5 129t112.5 45q67 0 106 -47v99h-79v70h79v72h80v-72h78v-70zM294 93q24 25 24 68v221q0 43 -24 68.5t-67 25.5q-42 0 -66.5 -26t-24.5 -68v-220q0 -42 24.5 -68t66.5 -26q43 0 67 25z
" />
    <glyph glyph-name="Emacron" unicode="&#x112;" horiz-adv-x="431" 
d="M389 666h-219v-246h192v-84h-192v-252h219v-84h-303v750h303v-84zM322 894v-63h-221v63h221z" />
    <glyph glyph-name="emacron" unicode="&#x113;" horiz-adv-x="447" 
d="M134 258v-96q0 -42 25 -68t67 -26t66 26t24 68v14h81v-10q0 -80 -47 -129t-124 -49t-125 49t-48 129v213q0 79 48 128t125 49t124 -49t47 -128v-121h-263zM159 450q-25 -26 -25 -68v-48h182v48q0 42 -24 68t-66 26t-67 -26zM336 688v-63h-221v63h221z" />
    <glyph glyph-name="Ebreve" unicode="&#x114;" horiz-adv-x="431" 
d="M389 666h-219v-246h192v-84h-192v-252h219v-84h-303v750h303v-84zM131 898q-32 30 -32 78v10h58v-10q0 -25 15.5 -40.5t39.5 -15.5t39 15.5t15 40.5v10h57v-10q0 -48 -31 -78t-80 -30t-81 30z" />
    <glyph glyph-name="ebreve" unicode="&#x115;" horiz-adv-x="447" 
d="M134 258v-96q0 -42 25 -68t67 -26t66 26t24 68v14h81v-10q0 -80 -47 -129t-124 -49t-125 49t-48 129v213q0 79 48 128t125 49t124 -49t47 -128v-121h-263zM159 450q-25 -26 -25 -68v-48h182v48q0 42 -24 68t-66 26t-67 -26zM145 692q-32 30 -32 78v10h58v-10
q0 -25 15.5 -40.5t39.5 -15.5t39 15.5t15 40.5v10h57v-10q0 -48 -31 -78t-80 -30t-81 30z" />
    <glyph glyph-name="Edotaccent" unicode="&#x116;" horiz-adv-x="431" 
d="M389 666h-219v-246h192v-84h-192v-252h219v-84h-303v750h303v-84zM176 956h72v-117h-72v117z" />
    <glyph glyph-name="edotaccent" unicode="&#x117;" horiz-adv-x="447" 
d="M134 258v-96q0 -42 25 -68t67 -26t66 26t24 68v14h81v-10q0 -80 -47 -129t-124 -49t-125 49t-48 129v213q0 79 48 128t125 49t124 -49t47 -128v-121h-263zM159 450q-25 -26 -25 -68v-48h182v48q0 42 -24 68t-66 26t-67 -26zM190 750h72v-117h-72v117z" />
    <glyph glyph-name="Eogonek" unicode="&#x118;" horiz-adv-x="431" 
d="M170 666v-246h192v-84h-192v-252h219v-84h-117q-29 -24 -44 -48t-15 -51q0 -24 17 -38t47 -14h15v-62h-19q-58 0 -90.5 27.5t-32.5 73.5q0 63 61 112h-125v750h303v-84h-219z" />
    <glyph glyph-name="eogonek" unicode="&#x119;" horiz-adv-x="447" 
d="M134 258v-96q0 -42 25 -68t67 -26t66 26t24 68v14h81v-10q0 -65 -31 -110t-85 -60q-54 -46 -54 -95q0 -24 17 -38t47 -14h15v-62h-19q-58 0 -90.5 27.5t-32.5 73.5q0 56 47 100q-72 5 -115 53.5t-43 124.5v213q0 79 48 128t125 49t124 -49t47 -128v-121h-263zM159 450
q-25 -26 -25 -68v-48h182v48q0 42 -24 68t-66 26t-67 -26z" />
    <glyph glyph-name="Ecaron" unicode="&#x11a;" horiz-adv-x="431" 
d="M389 666h-219v-246h192v-84h-192v-252h219v-84h-303v750h303v-84zM66 986h79l67 -92l66 92h79l-112 -146h-67z" />
    <glyph glyph-name="ecaron" unicode="&#x11b;" horiz-adv-x="447" 
d="M134 258v-96q0 -42 25 -68t67 -26t66 26t24 68v14h81v-10q0 -80 -47 -129t-124 -49t-125 49t-48 129v213q0 79 48 128t125 49t124 -49t47 -128v-121h-263zM159 450q-25 -26 -25 -68v-48h182v48q0 42 -24 68t-66 26t-67 -26zM80 780h79l67 -92l66 92h79l-112 -146h-67z
" />
    <glyph glyph-name="Gcircumflex" unicode="&#x11c;" horiz-adv-x="494" 
d="M123.5 35q-48.5 51 -48.5 134v412q0 83 48.5 134t129.5 51t130 -51t49 -134v-27h-84v27q0 46 -26 73.5t-69 27.5t-68.5 -27.5t-25.5 -73.5v-412q0 -46 25.5 -73.5t68.5 -27.5t69 27.5t26 73.5v109h-95v84h179v-193q0 -83 -49 -134t-130 -51t-129.5 51zM219 986h67
l112 -146h-79l-66 92l-67 -92h-79z" />
    <glyph glyph-name="gcircumflex" unicode="&#x11d;" horiz-adv-x="458" 
d="M389 544v-550q0 -79 -47.5 -128t-124.5 -49t-124 49t-47 129v14h80v-18q0 -42 24.5 -68t66.5 -26t67 26t25 68v113q-40 -46 -107 -46q-68 0 -111.5 45t-43.5 129v150q0 84 43.5 129t111.5 45t107 -47v35h80zM285 163q24 25 24 68v151q0 43 -24 68.5t-67 25.5
q-42 0 -66.5 -26t-24.5 -68v-150q0 -42 24.5 -68t66.5 -26q43 0 67 25zM184 780h67l112 -146h-79l-66 92l-67 -92h-79z" />
    <glyph glyph-name="Gbreve" unicode="&#x11e;" horiz-adv-x="494" 
d="M123.5 35q-48.5 51 -48.5 134v412q0 83 48.5 134t129.5 51t130 -51t49 -134v-27h-84v27q0 46 -26 73.5t-69 27.5t-68.5 -27.5t-25.5 -73.5v-412q0 -46 25.5 -73.5t68.5 -27.5t69 27.5t26 73.5v109h-95v84h179v-193q0 -83 -49 -134t-130 -51t-129.5 51zM172 898
q-32 30 -32 78v10h58v-10q0 -25 15.5 -40.5t39.5 -15.5t39 15.5t15 40.5v10h57v-10q0 -48 -31 -78t-80 -30t-81 30z" />
    <glyph glyph-name="gbreve" unicode="&#x11f;" horiz-adv-x="458" 
d="M389 544v-550q0 -79 -47.5 -128t-124.5 -49t-124 49t-47 129v14h80v-18q0 -42 24.5 -68t66.5 -26t67 26t25 68v113q-40 -46 -107 -46q-68 0 -111.5 45t-43.5 129v150q0 84 43.5 129t111.5 45t107 -47v35h80zM285 163q24 25 24 68v151q0 43 -24 68.5t-67 25.5
q-42 0 -66.5 -26t-24.5 -68v-150q0 -42 24.5 -68t66.5 -26q43 0 67 25zM137 692q-32 30 -32 78v10h58v-10q0 -25 15.5 -40.5t39.5 -15.5t39 15.5t15 40.5v10h57v-10q0 -48 -31 -78t-80 -30t-81 30z" />
    <glyph glyph-name="Gdotaccent" unicode="&#x120;" horiz-adv-x="494" 
d="M123.5 35q-48.5 51 -48.5 134v412q0 83 48.5 134t129.5 51t130 -51t49 -134v-27h-84v27q0 46 -26 73.5t-69 27.5t-68.5 -27.5t-25.5 -73.5v-412q0 -46 25.5 -73.5t68.5 -27.5t69 27.5t26 73.5v109h-95v84h179v-193q0 -83 -49 -134t-130 -51t-129.5 51zM217 956h72v-117
h-72v117z" />
    <glyph glyph-name="gdotaccent" unicode="&#x121;" horiz-adv-x="458" 
d="M389 544v-550q0 -79 -47.5 -128t-124.5 -49t-124 49t-47 129v14h80v-18q0 -42 24.5 -68t66.5 -26t67 26t25 68v113q-40 -46 -107 -46q-68 0 -111.5 45t-43.5 129v150q0 84 43.5 129t111.5 45t107 -47v35h80zM285 163q24 25 24 68v151q0 43 -24 68.5t-67 25.5
q-42 0 -66.5 -26t-24.5 -68v-150q0 -42 24.5 -68t66.5 -26q43 0 67 25zM182 750h72v-117h-72v117z" />
    <glyph glyph-name="Gcommaaccent" unicode="&#x122;" horiz-adv-x="494" 
d="M123.5 35q-48.5 51 -48.5 134v412q0 83 48.5 134t129.5 51t130 -51t49 -134v-27h-84v27q0 46 -26 73.5t-69 27.5t-68.5 -27.5t-25.5 -73.5v-412q0 -46 25.5 -73.5t68.5 -27.5t69 27.5t26 73.5v109h-95v84h179v-193q0 -83 -49 -134t-130 -51t-129.5 51zM215 -61h92
l-61 -159h-55z" />
    <glyph glyph-name="gcommaaccent" unicode="&#x123;" horiz-adv-x="458" 
d="M389 544v-550q0 -79 -47.5 -128t-124.5 -49t-124 49t-47 129v14h80v-18q0 -42 24.5 -68t66.5 -26t67 26t25 68v113q-40 -46 -107 -46q-68 0 -111.5 45t-43.5 129v150q0 84 43.5 129t111.5 45t107 -47v35h80zM285 163q24 25 24 68v151q0 43 -24 68.5t-67 25.5
q-42 0 -66.5 -26t-24.5 -68v-150q0 -42 24.5 -68t66.5 -26q43 0 67 25zM179 -244h92l-61 -159h-55z" />
    <glyph glyph-name="Hcircumflex" unicode="&#x124;" horiz-adv-x="515" 
d="M86 750h84v-381h175v381h84v-750h-84v285h-175v-285h-84v750zM224 986h67l112 -146h-79l-66 92l-67 -92h-79z" />
    <glyph glyph-name="hcircumflex" unicode="&#x125;" horiz-adv-x="470" 
d="M364.5 514q41.5 -43 41.5 -120v-394h-80v383q0 42 -24 67.5t-64 25.5t-64 -25.5t-24 -67.5v-383h-81v750h81v-241q39 48 108 48q65 0 106.5 -43zM75 986h67l112 -146h-79l-66 92l-67 -92h-79z" />
    <glyph glyph-name="Hbar" unicode="&#x126;" horiz-adv-x="515" 
d="M483 509h-54v-509h-84v285h-175v-285h-84v509h-53v70h53v171h84v-171h175v171h84v-171h54v-70zM345 509h-175v-140h175v140z" />
    <glyph glyph-name="hbar" unicode="&#x127;" horiz-adv-x="470" 
d="M364.5 514q41.5 -43 41.5 -120v-394h-80v383q0 42 -24 67.5t-64 25.5t-64 -25.5t-24 -67.5v-383h-81v617h-79v70h79v63h81v-63h77v-70h-77v-108q39 48 108 48q65 0 106.5 -43z" />
    <glyph glyph-name="Itilde" unicode="&#x128;" horiz-adv-x="256" 
d="M86 0v750h84v-750h-84zM156 841q-14 6 -31 18q-6 4 -15.5 11.5t-16.5 11t-13 3.5q-10 0 -14.5 -8t-4.5 -18v-19h-65v23q0 37 18 56.5t47 19.5q34 0 68 -25q3 -3 12 -10.5t17 -11t15 -3.5q9 0 14 8t5 19v21h64v-27q0 -36 -18 -55.5t-47 -19.5q-21 0 -35 6z" />
    <glyph glyph-name="itilde" unicode="&#x129;" horiz-adv-x="219" 
d="M69 544h81v-544h-81v544zM138 635q-14 6 -31 18q-6 4 -15.5 11.5t-16.5 11t-13 3.5q-10 0 -14.5 -8t-4.5 -18v-19h-65v23q0 37 18 56.5t47 19.5q34 0 68 -25q3 -3 12 -10.5t17 -11t15 -3.5q9 0 14 8t5 19v21h64v-27q0 -36 -18 -55.5t-47 -19.5q-21 0 -35 6z" />
    <glyph glyph-name="Imacron" unicode="&#x12a;" horiz-adv-x="256" 
d="M86 0v750h84v-750h-84zM238 894v-63h-221v63h221z" />
    <glyph glyph-name="imacron" unicode="&#x12b;" horiz-adv-x="219" 
d="M69 544h81v-544h-81v544zM220 688v-63h-221v63h221z" />
    <glyph glyph-name="Iogonek" unicode="&#x12e;" horiz-adv-x="256" 
d="M100 -48q-15 -24 -15 -51q0 -24 17 -38t47 -14h15v-62h-19q-58 0 -90.5 27.5t-32.5 73.5q0 34 16 62t48 53v747h84v-750h-26q-29 -24 -44 -48z" />
    <glyph glyph-name="iogonek" unicode="&#x12f;" horiz-adv-x="219" 
d="M146 633h-72v117h72v-117zM82 -48q-15 -24 -15 -51q0 -24 17 -38t47 -14h15v-62h-19q-58 0 -90.5 27.5t-32.5 73.5q0 34 16 62t49 53v541h81v-544h-24q-29 -24 -44 -48z" />
    <glyph glyph-name="Idotaccent" unicode="&#x130;" horiz-adv-x="256" 
d="M86 0v750h84v-750h-84zM92 956h72v-117h-72v117z" />
    <glyph glyph-name="dotlessi" unicode="&#x131;" horiz-adv-x="219" 
d="M69 544h81v-544h-81v544z" />
    <glyph glyph-name="IJ" unicode="&#x132;" horiz-adv-x="584" 
d="M86 0v750h84v-750h-84zM273 78h53q43 0 69 27.5t26 73.5v571h84v-571q0 -83 -49 -134t-130 -51h-53v84z" />
    <glyph glyph-name="ij" unicode="&#x133;" horiz-adv-x="438" 
d="M69 720h81v-119h-81v119zM69 544h81v-544h-81v544zM288 720h81v-119h-81v119zM165 -103h32q41 0 66 28t25 73v546h81v-542q0 -83 -47 -134t-125 -51h-32v80z" />
    <glyph glyph-name="Jcircumflex" unicode="&#x134;" horiz-adv-x="328" 
d="M17 78h53q43 0 69 27.5t26 73.5v571h84v-571q0 -83 -49 -134t-130 -51h-53v84zM171 986h67l112 -146h-79l-66 92l-67 -92h-79z" />
    <glyph glyph-name="jcircumflex" unicode="&#x135;" horiz-adv-x="219" 
d="M-54 -103h32q41 0 66 28t25 73v546h81v-542q0 -83 -47 -134t-125 -51h-32v80zM76 780h67l112 -146h-79l-66 92l-67 -92h-79z" />
    <glyph glyph-name="Kcommaaccent" unicode="&#x136;" horiz-adv-x="492" 
d="M470 0h-91l-172 385l-37 -54v-331h-84v750h84v-281l195 281h90l-191 -281zM200 -61h92l-61 -159h-55z" />
    <glyph glyph-name="kcommaaccent" unicode="&#x137;" horiz-adv-x="429" 
d="M426 0h-85l-142 288l-49 -64v-224h-81v750h81v-406l160 200h86l-144 -186zM170 -61h92l-61 -159h-55z" />
    <glyph glyph-name="kgreenlandic" unicode="&#x138;" horiz-adv-x="428" 
d="M341 0l-191 336v-336h-81v544h81v-196l160 196h86l-167 -205l197 -339h-85z" />
    <glyph glyph-name="Lacute" unicode="&#x139;" horiz-adv-x="389" 
d="M170 84h199v-84h-283v750h84v-666zM217 986h85l-89 -172h-62z" />
    <glyph glyph-name="lacute" unicode="&#x13a;" horiz-adv-x="219" 
d="M69 750h81v-750h-81v750zM144 986h85l-89 -172h-62z" />
    <glyph glyph-name="Lcommaaccent" unicode="&#x13b;" horiz-adv-x="389" 
d="M170 84h199v-84h-283v750h84v-666zM145 -61h92l-61 -159h-55z" />
    <glyph glyph-name="lcommaaccent" unicode="&#x13c;" horiz-adv-x="219" 
d="M69 750h81v-750h-81v750zM72 -61h92l-61 -159h-55z" />
    <glyph glyph-name="Lcaron" unicode="&#x13d;" horiz-adv-x="389" 
d="M170 84h199v-84h-283v750h84v-666zM37 986h79l67 -92l66 92h79l-112 -146h-67z" />
    <glyph glyph-name="lcaron" unicode="&#x13e;" horiz-adv-x="440" 
d="M69 750h81v-750h-81v750zM284 750h80l-40 -224h-80z" />
    <glyph glyph-name="Ldot" unicode="&#x13f;" horiz-adv-x="388" 
d="M170 84h199v-84h-283v750h84v-666zM239 436h77v-120h-77v120z" />
    <glyph glyph-name="ldot" unicode="&#x140;" horiz-adv-x="368" 
d="M69 750h81v-750h-81v750zM222 435h77v-120h-77v120z" />
    <glyph glyph-name="Lslash" unicode="&#x141;" horiz-adv-x="389" 
d="M369 84v-84h-283v322l-99 -35v77l99 35v351h84v-321l98 35v-77l-98 -35v-268h199z" />
    <glyph glyph-name="lslash" unicode="&#x142;" horiz-adv-x="219" 
d="M237 368l-87 -23v-345h-81v324l-86 -23v80l86 23v346h81v-324l87 23v-81z" />
    <glyph glyph-name="Nacute" unicode="&#x143;" horiz-adv-x="525" 
d="M439 750v-750h-71l-202 531v-531h-80v750h71l202 -531v531h80zM297 986h85l-89 -172h-62z" />
    <glyph glyph-name="nacute" unicode="&#x144;" 
d="M366 509q40 -47 40 -127v-382h-80v382q0 42 -24 68t-64 26t-64 -26t-24 -68v-382h-81v544h81v-37q38 49 108 49q68 0 108 -47zM272 780h85l-89 -172h-62z" />
    <glyph glyph-name="Ncommaaccent" unicode="&#x145;" horiz-adv-x="525" 
d="M439 750v-750h-71l-202 531v-531h-80v750h71l202 -531v531h80zM225 -61h92l-61 -159h-55z" />
    <glyph glyph-name="ncommaaccent" unicode="&#x146;" 
d="M366 509q40 -47 40 -127v-382h-80v382q0 42 -24 68t-64 26t-64 -26t-24 -68v-382h-81v544h81v-37q38 49 108 49q68 0 108 -47zM200 -61h92l-61 -159h-55z" />
    <glyph glyph-name="Ncaron" unicode="&#x147;" horiz-adv-x="525" 
d="M439 750v-750h-71l-202 531v-531h-80v750h71l202 -531v531h80zM117 986h79l67 -92l66 92h79l-112 -146h-67z" />
    <glyph glyph-name="ncaron" unicode="&#x148;" 
d="M366 509q40 -47 40 -127v-382h-80v382q0 42 -24 68t-64 26t-64 -26t-24 -68v-382h-81v544h81v-37q38 49 108 49q68 0 108 -47zM92 780h79l67 -92l66 92h79l-112 -146h-67z" />
    <glyph glyph-name="napostrophe" unicode="&#x149;" horiz-adv-x="651" 
d="M110 612h-34v138h84v-138l-26 -86h-50zM548 509q40 -47 40 -127v-382h-80v382q0 42 -24 68t-64 26t-64 -26t-24 -68v-382h-81v544h81v-37q38 49 108 49q68 0 108 -47z" />
    <glyph glyph-name="Omacron" unicode="&#x14c;" horiz-adv-x="507" 
d="M123.5 35q-48.5 51 -48.5 134v412q0 83 48.5 134t129.5 51t130 -51t49 -134v-412q0 -83 -49 -134t-130 -51t-129.5 51zM322 95.5q26 27.5 26 73.5v412q0 46 -26 73.5t-69 27.5t-68.5 -27.5t-25.5 -73.5v-412q0 -46 25.5 -73.5t68.5 -27.5t69 27.5zM363 894v-63h-221v63
h221z" />
    <glyph glyph-name="omacron" unicode="&#x14d;" horiz-adv-x="451" 
d="M101 37q-48 49 -48 129v213q0 79 48 128t125 49t124 -49t47 -128v-213q0 -80 -47 -129t-124 -49t-125 49zM292 94q24 26 24 68v220q0 42 -24 68t-66 26t-67 -26t-25 -68v-220q0 -42 25 -68t67 -26t66 26zM336 688v-63h-221v63h221z" />
    <glyph glyph-name="Obreve" unicode="&#x14e;" horiz-adv-x="507" 
d="M123.5 35q-48.5 51 -48.5 134v412q0 83 48.5 134t129.5 51t130 -51t49 -134v-412q0 -83 -49 -134t-130 -51t-129.5 51zM322 95.5q26 27.5 26 73.5v412q0 46 -26 73.5t-69 27.5t-68.5 -27.5t-25.5 -73.5v-412q0 -46 25.5 -73.5t68.5 -27.5t69 27.5zM172 898q-32 30 -32 78
v10h58v-10q0 -25 15.5 -40.5t39.5 -15.5t39 15.5t15 40.5v10h57v-10q0 -48 -31 -78t-80 -30t-81 30z" />
    <glyph glyph-name="obreve" unicode="&#x14f;" horiz-adv-x="451" 
d="M101 37q-48 49 -48 129v213q0 79 48 128t125 49t124 -49t47 -128v-213q0 -80 -47 -129t-124 -49t-125 49zM292 94q24 26 24 68v220q0 42 -24 68t-66 26t-67 -26t-25 -68v-220q0 -42 25 -68t67 -26t66 26zM145 692q-32 30 -32 78v10h58v-10q0 -25 15.5 -40.5t39.5 -15.5
t39 15.5t15 40.5v10h57v-10q0 -48 -31 -78t-80 -30t-81 30z" />
    <glyph glyph-name="Ohungarumlaut" unicode="&#x150;" horiz-adv-x="507" 
d="M123.5 35q-48.5 51 -48.5 134v412q0 83 48.5 134t129.5 51t130 -51t49 -134v-412q0 -83 -49 -134t-130 -51t-129.5 51zM322 95.5q26 27.5 26 73.5v412q0 46 -26 73.5t-69 27.5t-68.5 -27.5t-25.5 -73.5v-412q0 -46 25.5 -73.5t68.5 -27.5t69 27.5zM209 986h85l-89 -172
h-62zM359 986h85l-89 -172h-62z" />
    <glyph glyph-name="ohungarumlaut" unicode="&#x151;" horiz-adv-x="451" 
d="M101 37q-48 49 -48 129v213q0 79 48 128t125 49t124 -49t47 -128v-213q0 -80 -47 -129t-124 -49t-125 49zM292 94q24 26 24 68v220q0 42 -24 68t-66 26t-67 -26t-25 -68v-220q0 -42 25 -68t67 -26t66 26zM182 780h85l-89 -172h-62zM332 780h85l-89 -172h-62z" />
    <glyph glyph-name="OE" unicode="&#x152;" horiz-adv-x="727" 
d="M123.5 35q-48.5 51 -48.5 134v412q0 83 48.5 134t129.5 51q79 0 128 -49v33h304v-84h-220v-246h193v-84h-193v-252h220v-84h-304v33q-49 -49 -128 -49q-81 0 -129.5 51zM322 95.5q26 27.5 26 73.5v412q0 46 -26 73.5t-69 27.5t-68.5 -27.5t-25.5 -73.5v-412
q0 -46 25.5 -73.5t68.5 -27.5t69 27.5z" />
    <glyph glyph-name="oe" unicode="&#x153;" horiz-adv-x="710" 
d="M397 258v-96q0 -42 25 -68t67 -26t66.5 26t24.5 68v14h80v-10q0 -80 -47 -129t-124 -49q-41 0 -75 15t-57 43q-23 -28 -56.5 -43t-74.5 -15q-77 0 -125 49t-48 129v213q0 79 48 128t125 49q41 0 74.5 -15t56.5 -43q23 28 57 43t75 15q77 0 124 -49t47 -128v-121h-263z
M316 382q0 42 -24 68t-66 26t-67 -26t-25 -68v-220q0 -42 25 -68t67 -26t66 26t24 68v220zM397 334h183v48q0 42 -24.5 68t-66.5 26t-67 -26t-25 -68v-48z" />
    <glyph glyph-name="Racute" unicode="&#x154;" horiz-adv-x="510" 
d="M421.5 393.5q-15.5 -35.5 -45.5 -58.5q29 -18 45 -48t16 -67v-220h-84v220q0 37 -22.5 59t-59.5 22h-101v-301h-84v750h185q75 0 120.5 -47.5t45.5 -124.5v-104q0 -45 -15.5 -80.5zM330.5 409.5q22.5 24.5 22.5 64.5v104q0 40 -22.5 64t-59.5 24h-101v-281h101
q37 0 59.5 24.5zM289 986h85l-89 -172h-62z" />
    <glyph glyph-name="racute" unicode="&#x155;" horiz-adv-x="285" 
d="M282 550v-80h-44q-41 0 -64.5 -24.5t-23.5 -67.5v-378h-81v544h81v-42q38 48 108 48h24zM211 780h85l-89 -172h-62z" />
    <glyph glyph-name="Rcommaaccent" unicode="&#x156;" horiz-adv-x="510" 
d="M421.5 393.5q-15.5 -35.5 -45.5 -58.5q29 -18 45 -48t16 -67v-220h-84v220q0 37 -22.5 59t-59.5 22h-101v-301h-84v750h185q75 0 120.5 -47.5t45.5 -124.5v-104q0 -45 -15.5 -80.5zM330.5 409.5q22.5 24.5 22.5 64.5v104q0 40 -22.5 64t-59.5 24h-101v-281h101
q37 0 59.5 24.5zM217 -61h92l-61 -159h-55z" />
    <glyph glyph-name="rcommaaccent" unicode="&#x157;" horiz-adv-x="285" 
d="M282 550v-80h-44q-41 0 -64.5 -24.5t-23.5 -67.5v-378h-81v544h81v-42q38 48 108 48h24zM71 -61h92l-61 -159h-55z" />
    <glyph glyph-name="Rcaron" unicode="&#x158;" horiz-adv-x="510" 
d="M421.5 393.5q-15.5 -35.5 -45.5 -58.5q29 -18 45 -48t16 -67v-220h-84v220q0 37 -22.5 59t-59.5 22h-101v-301h-84v750h185q75 0 120.5 -47.5t45.5 -124.5v-104q0 -45 -15.5 -80.5zM330.5 409.5q22.5 24.5 22.5 64.5v104q0 40 -22.5 64t-59.5 24h-101v-281h101
q37 0 59.5 24.5zM109 986h79l67 -92l66 92h79l-112 -146h-67z" />
    <glyph glyph-name="rcaron" unicode="&#x159;" horiz-adv-x="285" 
d="M282 550v-80h-44q-41 0 -64.5 -24.5t-23.5 -67.5v-378h-81v544h81v-42q38 48 108 48h24zM31 780h79l67 -92l66 92h79l-112 -146h-67z" />
    <glyph glyph-name="Sacute" unicode="&#x15a;" horiz-adv-x="471" 
d="M106 35q-49 51 -49 134v27h84v-27q0 -46 26 -73.5t69 -27.5t69 27.5t26 73.5v59q0 46 -26 73.5t-69 27.5q-81 0 -130 51t-49 134v67q0 83 49 134t130 51t130 -51t49 -134v-27h-84v27q0 46 -26 73.5t-69 27.5t-69 -27.5t-26 -73.5v-67q0 -45 26 -73t69 -28q81 0 130 -51
t49 -134v-59q0 -83 -49 -134t-130 -51t-130 51zM270 986h85l-89 -172h-62z" />
    <glyph glyph-name="sacute" unicode="&#x15b;" horiz-adv-x="423" 
d="M90 33.5q-47 45.5 -47 120.5v17h81v-21q0 -37 25 -59.5t65 -22.5q39 0 62.5 23t23.5 59q0 37 -24 60.5t-63 23.5q-77 0 -123.5 44t-46.5 116q0 73 46.5 117.5t123.5 44.5q76 0 122 -45.5t46 -120.5v-16h-81v20q0 37 -23.5 59.5t-63.5 22.5q-41 0 -65 -23t-24 -59
q0 -38 24 -61t65 -23q76 0 122 -44t46 -116q0 -73 -45.5 -117.5t-121.5 -44.5q-77 0 -124 45.5zM246 780h85l-89 -172h-62z" />
    <glyph glyph-name="Scircumflex" unicode="&#x15c;" horiz-adv-x="471" 
d="M106 35q-49 51 -49 134v27h84v-27q0 -46 26 -73.5t69 -27.5t69 27.5t26 73.5v59q0 46 -26 73.5t-69 27.5q-81 0 -130 51t-49 134v67q0 83 49 134t130 51t130 -51t49 -134v-27h-84v27q0 46 -26 73.5t-69 27.5t-69 -27.5t-26 -73.5v-67q0 -45 26 -73t69 -28q81 0 130 -51
t49 -134v-59q0 -83 -49 -134t-130 -51t-130 51zM202 986h67l112 -146h-79l-66 92l-67 -92h-79z" />
    <glyph glyph-name="scircumflex" unicode="&#x15d;" horiz-adv-x="423" 
d="M90 33.5q-47 45.5 -47 120.5v17h81v-21q0 -37 25 -59.5t65 -22.5q39 0 62.5 23t23.5 59q0 37 -24 60.5t-63 23.5q-77 0 -123.5 44t-46.5 116q0 73 46.5 117.5t123.5 44.5q76 0 122 -45.5t46 -120.5v-16h-81v20q0 37 -23.5 59.5t-63.5 22.5q-41 0 -65 -23t-24 -59
q0 -38 24 -61t65 -23q76 0 122 -44t46 -116q0 -73 -45.5 -117.5t-121.5 -44.5q-77 0 -124 45.5zM178 780h67l112 -146h-79l-66 92l-67 -92h-79z" />
    <glyph glyph-name="Scedilla" unicode="&#x15e;" horiz-adv-x="471" 
d="M331 554v27q0 46 -26 73.5t-69 27.5t-69 -27.5t-26 -73.5v-67q0 -45 26 -73t69 -28q81 0 130 -51t49 -134v-59q0 -74 -39 -122.5t-105 -59.5v-34l13 1q39 0 64 -25.5t25 -60.5q0 -42 -27 -67.5t-71 -25.5h-68v61h68q16 0 26 9t10 23t-10 23.5t-26 9.5h-38l-28 18v67
q-70 8 -111 57.5t-41 125.5v27h84v-27q0 -46 26 -73.5t69 -27.5t69 27.5t26 73.5v59q0 46 -26 73.5t-69 27.5q-81 0 -130 51t-49 134v67q0 83 49 134t130 51t130 -51t49 -134v-27h-84z" />
    <glyph glyph-name="scedilla" unicode="&#x15f;" horiz-adv-x="423" 
d="M300 374v20q0 37 -23.5 59.5t-63.5 22.5q-41 0 -65 -23t-24 -59q0 -38 24 -61t65 -23q76 0 122 -44t46 -116q0 -64 -36 -107t-98 -53v-37l13 1q39 0 64 -25.5t25 -60.5q0 -42 -27 -67.5t-71 -25.5h-68v61h68q16 0 26 9t10 23t-10 23.5t-26 9.5h-38l-28 18v71
q-65 8 -103.5 52.5t-38.5 111.5v17h81v-21q0 -37 25 -59.5t65 -22.5q39 0 62.5 23t23.5 59q0 37 -24 60.5t-63 23.5q-77 0 -123.5 44t-46.5 116q0 73 46.5 117.5t123.5 44.5q76 0 122 -45.5t46 -120.5v-16h-81z" />
    <glyph glyph-name="Scaron" unicode="&#x160;" horiz-adv-x="471" 
d="M106 35q-49 51 -49 134v27h84v-27q0 -46 26 -73.5t69 -27.5t69 27.5t26 73.5v59q0 46 -26 73.5t-69 27.5q-81 0 -130 51t-49 134v67q0 83 49 134t130 51t130 -51t49 -134v-27h-84v27q0 46 -26 73.5t-69 27.5t-69 -27.5t-26 -73.5v-67q0 -45 26 -73t69 -28q81 0 130 -51
t49 -134v-59q0 -83 -49 -134t-130 -51t-130 51zM90 986h79l67 -92l66 92h79l-112 -146h-67z" />
    <glyph glyph-name="scaron" unicode="&#x161;" horiz-adv-x="423" 
d="M90 33.5q-47 45.5 -47 120.5v17h81v-21q0 -37 25 -59.5t65 -22.5q39 0 62.5 23t23.5 59q0 37 -24 60.5t-63 23.5q-77 0 -123.5 44t-46.5 116q0 73 46.5 117.5t123.5 44.5q76 0 122 -45.5t46 -120.5v-16h-81v20q0 37 -23.5 59.5t-63.5 22.5q-41 0 -65 -23t-24 -59
q0 -38 24 -61t65 -23q76 0 122 -44t46 -116q0 -73 -45.5 -117.5t-121.5 -44.5q-77 0 -124 45.5zM66 780h79l67 -92l66 92h79l-112 -146h-67z" />
    <glyph glyph-name="uni0162" unicode="&#x162;" horiz-adv-x="371" 
d="M218 0v-47l13 1q39 0 64 -25.5t25 -60.5q0 -42 -27 -67.5t-71 -25.5h-68v61h68q16 0 26 9t10 23t-10 23.5t-26 9.5h-38l-28 18v81h-12v666h-126v84h336v-84h-126v-666h-10z" />
    <glyph glyph-name="uni0163" unicode="&#x163;" horiz-adv-x="334" 
d="M289 -46q39 0 64 -25.5t25 -60.5q0 -42 -27 -67.5t-71 -25.5h-68v61h68q16 0 26 9t10 23t-10 23.5t-26 9.5h-38l-28 18v83q-53 17 -83 62t-30 110v295h-96v75h96v136h80v-136h131v-75h-131v-295q0 -45 25 -72.5t67 -27.5h39v-80h-36v-41z" />
    <glyph glyph-name="Tcaron" unicode="&#x164;" horiz-adv-x="371" 
d="M144 666h-126v84h336v-84h-126v-666h-84v666zM40 986h79l67 -92l66 92h79l-112 -146h-67z" />
    <glyph glyph-name="tcaron" unicode="&#x165;" horiz-adv-x="561" 
d="M148 42.5q-47 48.5 -47 131.5v295h-96v75h96v136h80v-136h131v-75h-131v-295q0 -45 25 -72.5t67 -27.5h39v-80h-39q-78 0 -125 48.5zM405 750h80l-40 -224h-80z" />
    <glyph glyph-name="Tbar" unicode="&#x166;" horiz-adv-x="371" 
d="M228 666v-256h76v-70h-76v-340h-84v340h-77v70h77v256h-126v84h336v-84h-126z" />
    <glyph glyph-name="tbar" unicode="&#x167;" horiz-adv-x="334" 
d="M181 235v-61q0 -45 25 -72.5t67 -27.5h39v-80h-39q-78 0 -125 48.5t-47 131.5v61h-85v75h85v159h-96v75h96v136h80v-136h131v-75h-131v-159h135v-75h-135z" />
    <glyph glyph-name="Utilde" unicode="&#x168;" horiz-adv-x="519" 
d="M438 169q0 -83 -49 -134t-130 -51t-129.5 51t-48.5 134v581h84v-581q0 -46 25.5 -73.5t68.5 -27.5t69 27.5t26 73.5v581h84v-581zM288 841q-14 6 -31 18q-6 4 -15.5 11.5t-16.5 11t-13 3.5q-10 0 -14.5 -8t-4.5 -18v-19h-65v23q0 37 18 56.5t47 19.5q34 0 68 -25
q3 -3 12 -10.5t17 -11t15 -3.5q9 0 14 8t5 19v21h64v-27q0 -36 -18 -55.5t-47 -19.5q-21 0 -35 6z" />
    <glyph glyph-name="utilde" unicode="&#x169;" 
d="M400 544v-544h-80v36q-39 -48 -108 -48q-67 0 -108 44t-41 129v383h80v-383q0 -42 24 -67.5t64 -25.5t64.5 25.5t24.5 67.5v383h80zM259 635q-14 6 -31 18q-6 4 -15.5 11.5t-16.5 11t-13 3.5q-10 0 -14.5 -8t-4.5 -18v-19h-65v23q0 37 18 56.5t47 19.5q34 0 68 -25
q3 -3 12 -10.5t17 -11t15 -3.5q9 0 14 8t5 19v21h64v-27q0 -36 -18 -55.5t-47 -19.5q-21 0 -35 6z" />
    <glyph glyph-name="Umacron" unicode="&#x16a;" horiz-adv-x="519" 
d="M438 169q0 -83 -49 -134t-130 -51t-129.5 51t-48.5 134v581h84v-581q0 -46 25.5 -73.5t68.5 -27.5t69 27.5t26 73.5v581h84v-581zM370 894v-63h-221v63h221z" />
    <glyph glyph-name="umacron" unicode="&#x16b;" 
d="M400 544v-544h-80v36q-39 -48 -108 -48q-67 0 -108 44t-41 129v383h80v-383q0 -42 24 -67.5t64 -25.5t64.5 25.5t24.5 67.5v383h80zM341 688v-63h-221v63h221z" />
    <glyph glyph-name="Ubreve" unicode="&#x16c;" horiz-adv-x="519" 
d="M438 169q0 -83 -49 -134t-130 -51t-129.5 51t-48.5 134v581h84v-581q0 -46 25.5 -73.5t68.5 -27.5t69 27.5t26 73.5v581h84v-581zM179 898q-32 30 -32 78v10h58v-10q0 -25 15.5 -40.5t39.5 -15.5t39 15.5t15 40.5v10h57v-10q0 -48 -31 -78t-80 -30t-81 30z" />
    <glyph glyph-name="ubreve" unicode="&#x16d;" 
d="M400 544v-544h-80v36q-39 -48 -108 -48q-67 0 -108 44t-41 129v383h80v-383q0 -42 24 -67.5t64 -25.5t64.5 25.5t24.5 67.5v383h80zM150 692q-32 30 -32 78v10h58v-10q0 -25 15.5 -40.5t39.5 -15.5t39 15.5t15 40.5v10h57v-10q0 -48 -31 -78t-80 -30t-81 30z" />
    <glyph glyph-name="Uring" unicode="&#x16e;" horiz-adv-x="519" 
d="M438 169q0 -83 -49 -134t-130 -51t-129.5 51t-48.5 134v581h84v-581q0 -46 25.5 -73.5t68.5 -27.5t69 27.5t26 73.5v581h84v-581zM193.5 805.5q-27.5 26.5 -27.5 67.5t27.5 67.5t66.5 26.5t66.5 -26.5t27.5 -67.5t-27.5 -67.5t-66.5 -26.5t-66.5 26.5zM289.5 843.5
q12.5 11.5 12.5 29.5t-12.5 29.5t-29.5 11.5q-16 0 -28.5 -11.5t-12.5 -29.5t12.5 -29.5t28.5 -11.5q17 0 29.5 11.5z" />
    <glyph glyph-name="uring" unicode="&#x16f;" 
d="M400 544v-544h-80v36q-39 -48 -108 -48q-67 0 -108 44t-41 129v383h80v-383q0 -42 24 -67.5t64 -25.5t64.5 25.5t24.5 67.5v383h80zM164.5 599.5q-27.5 26.5 -27.5 67.5t27.5 67.5t66.5 26.5t66.5 -26.5t27.5 -67.5t-27.5 -67.5t-66.5 -26.5t-66.5 26.5zM260.5 637.5
q12.5 11.5 12.5 29.5t-12.5 29.5t-29.5 11.5q-16 0 -28.5 -11.5t-12.5 -29.5t12.5 -29.5t28.5 -11.5q17 0 29.5 11.5z" />
    <glyph glyph-name="Uhungarumlaut" unicode="&#x170;" horiz-adv-x="519" 
d="M438 169q0 -83 -49 -134t-130 -51t-129.5 51t-48.5 134v581h84v-581q0 -46 25.5 -73.5t68.5 -27.5t69 27.5t26 73.5v581h84v-581zM216 986h85l-89 -172h-62zM366 986h85l-89 -172h-62z" />
    <glyph glyph-name="uhungarumlaut" unicode="&#x171;" 
d="M400 544v-544h-80v36q-39 -48 -108 -48q-67 0 -108 44t-41 129v383h80v-383q0 -42 24 -67.5t64 -25.5t64.5 25.5t24.5 67.5v383h80zM187 780h85l-89 -172h-62zM337 780h85l-89 -172h-62z" />
    <glyph glyph-name="Uogonek" unicode="&#x172;" horiz-adv-x="519" 
d="M438 750v-581q0 -79 -43.5 -129t-117.5 -55q-42 -40 -42 -84q0 -24 17 -38t47 -14h15v-62h-19q-58 0 -90.5 27.5t-32.5 73.5q0 56 47 100q-64 12 -101 60.5t-37 120.5v581h84v-581q0 -46 25.5 -73.5t68.5 -27.5t69 27.5t26 73.5v581h84z" />
    <glyph glyph-name="uogonek" unicode="&#x173;" 
d="M330 -48q-15 -24 -15 -51q0 -24 17 -38t47 -14h15v-62h-19q-58 0 -90.5 27.5t-32.5 73.5q0 34 17 63t51 55v30q-39 -48 -108 -48q-67 0 -108 44t-41 129v383h80v-383q0 -42 24 -67.5t64 -25.5t64.5 25.5t24.5 67.5v383h80v-544h-26q-29 -24 -44 -48z" />
    <glyph glyph-name="Wcircumflex" unicode="&#x174;" horiz-adv-x="654" 
d="M617 750l-103 -750h-90l-96 519l-98 -519h-90l-103 750h86l72 -561l95 561h74l95 -561l72 561h86zM294 986h67l112 -146h-79l-66 92l-67 -92h-79z" />
    <glyph glyph-name="wcircumflex" unicode="&#x175;" horiz-adv-x="559" 
d="M534 544l-88 -544h-89l-77 372l-78 -372h-89l-88 544h83l54 -416l80 416h75l80 -416l53 416h84zM246 780h67l112 -146h-79l-66 92l-67 -92h-79z" />
    <glyph glyph-name="Ycircumflex" unicode="&#x176;" 
d="M455 750l-178 -372v-378h-84v378l-179 372h86l135 -285l134 285h86zM201 986h67l112 -146h-79l-66 92l-67 -92h-79z" />
    <glyph glyph-name="ycircumflex" unicode="&#x177;" horiz-adv-x="419" 
d="M410 544l-207 -724h-86l49 170l-157 554h88l113 -414l112 414h88zM176 780h67l112 -146h-79l-66 92l-67 -92h-79z" />
    <glyph glyph-name="Ydieresis" unicode="&#x178;" 
d="M455 750l-178 -372v-378h-84v378l-179 372h86l135 -285l134 285h86zM130 986h72v-117h-72v117zM273 986h71v-117h-71v117z" />
    <glyph glyph-name="Zacute" unicode="&#x179;" horiz-adv-x="422" 
d="M388 686l-263 -602h263v-84h-353v64l262 602h-262v84h353v-64zM245 986h85l-89 -172h-62z" />
    <glyph glyph-name="zacute" unicode="&#x17a;" horiz-adv-x="382" 
d="M358 481l-232 -401h226v-80h-328v63l236 400h-231v81h329v-63zM226 780h85l-89 -172h-62z" />
    <glyph glyph-name="Zdotaccent" unicode="&#x17b;" horiz-adv-x="422" 
d="M388 686l-263 -602h263v-84h-353v64l262 602h-262v84h353v-64zM175 956h72v-117h-72v117z" />
    <glyph glyph-name="zdotaccent" unicode="&#x17c;" horiz-adv-x="382" 
d="M358 481l-232 -401h226v-80h-328v63l236 400h-231v81h329v-63zM156 750h72v-117h-72v117z" />
    <glyph glyph-name="Zcaron" unicode="&#x17d;" horiz-adv-x="422" 
d="M388 686l-263 -602h263v-84h-353v64l262 602h-262v84h353v-64zM65 986h79l67 -92l66 92h79l-112 -146h-67z" />
    <glyph glyph-name="zcaron" unicode="&#x17e;" horiz-adv-x="382" 
d="M358 481l-232 -401h226v-80h-328v63l236 400h-231v81h329v-63zM46 780h79l67 -92l66 92h79l-112 -146h-67z" />
    <glyph glyph-name="longs" unicode="&#x17f;" horiz-adv-x="281" 
d="M105 468h-101v76h101v35q0 80 47.5 130.5t125.5 50.5h40v-80h-40q-42 0 -67.5 -28t-25.5 -73v-579h-80v468z" />
    <glyph glyph-name="florin" unicode="&#x192;" horiz-adv-x="537" 
d="M40 -100h49q41 0 69 28t33 73l38 367h-100v76h109l14 135q8 80 59 130.5t124 50.5h49v-80h-49q-42 0 -70 -28t-33 -73l-14 -135h166v-76h-174l-39 -367q-8 -80 -58.5 -130.5t-123.5 -50.5h-49v80z" />
    <glyph glyph-name="Scommaaccent" unicode="&#x218;" horiz-adv-x="471" 
d="M106 35q-49 51 -49 134v27h84v-27q0 -46 26 -73.5t69 -27.5t69 27.5t26 73.5v59q0 46 -26 73.5t-69 27.5q-81 0 -130 51t-49 134v67q0 83 49 134t130 51t130 -51t49 -134v-27h-84v27q0 46 -26 73.5t-69 27.5t-69 -27.5t-26 -73.5v-67q0 -45 26 -73t69 -28q81 0 130 -51
t49 -134v-59q0 -83 -49 -134t-130 -51t-130 51zM198 -61h92l-61 -159h-55z" />
    <glyph glyph-name="scommaaccent" unicode="&#x219;" horiz-adv-x="423" 
d="M90 33.5q-47 45.5 -47 120.5v17h81v-21q0 -37 25 -59.5t65 -22.5q39 0 62.5 23t23.5 59q0 37 -24 60.5t-63 23.5q-77 0 -123.5 44t-46.5 116q0 73 46.5 117.5t123.5 44.5q76 0 122 -45.5t46 -120.5v-16h-81v20q0 37 -23.5 59.5t-63.5 22.5q-41 0 -65 -23t-24 -59
q0 -38 24 -61t65 -23q76 0 122 -44t46 -116q0 -73 -45.5 -117.5t-121.5 -44.5q-77 0 -124 45.5zM174 -61h92l-61 -159h-55z" />
    <glyph glyph-name="uni021A" unicode="&#x21a;" horiz-adv-x="371" 
d="M144 666h-126v84h336v-84h-126v-666h-84v666zM145 -61h92l-61 -159h-55z" />
    <glyph glyph-name="uni021B" unicode="&#x21b;" horiz-adv-x="334" 
d="M148 42.5q-47 48.5 -47 131.5v295h-96v75h96v136h80v-136h131v-75h-131v-295q0 -45 25 -72.5t67 -27.5h39v-80h-39q-78 0 -125 48.5zM203 -61h92l-61 -159h-55z" />
    <glyph glyph-name="uni0237" unicode="&#x237;" horiz-adv-x="219" 
d="M-54 -103h32q41 0 66 28t25 73v546h81v-542q0 -83 -47 -134t-125 -51h-32v80z" />
    <glyph glyph-name="circumflex" unicode="&#x2c6;" horiz-adv-x="328" 
d="M130 780h67l112 -146h-79l-66 92l-67 -92h-79z" />
    <glyph glyph-name="caron" unicode="&#x2c7;" horiz-adv-x="328" 
d="M18 780h79l67 -92l66 92h79l-112 -146h-67z" />
    <glyph glyph-name="uni02C9" unicode="&#x2c9;" horiz-adv-x="360" 
d="M290 750v-63h-221v63h221z" />
    <glyph glyph-name="breve" unicode="&#x2d8;" horiz-adv-x="324" 
d="M81 692q-32 30 -32 78v10h58v-10q0 -25 15.5 -40.5t39.5 -15.5t39 15.5t15 40.5v10h57v-10q0 -48 -31 -78t-80 -30t-81 30z" />
    <glyph glyph-name="dotaccent" unicode="&#x2d9;" horiz-adv-x="210" 
d="M69 750h72v-117h-72v117z" />
    <glyph glyph-name="ring" unicode="&#x2da;" horiz-adv-x="291" 
d="M78.5 618.5q-27.5 26.5 -27.5 67.5t27.5 67.5t66.5 26.5t66.5 -26.5t27.5 -67.5t-27.5 -67.5t-66.5 -26.5t-66.5 26.5zM174.5 656.5q12.5 11.5 12.5 29.5t-12.5 29.5t-29.5 11.5q-16 0 -28.5 -11.5t-12.5 -29.5t12.5 -29.5t28.5 -11.5q17 0 29.5 11.5z" />
    <glyph glyph-name="ogonek" unicode="&#x2db;" horiz-adv-x="223" 
d="M75.5 -185.5q-32.5 27.5 -32.5 73.5q0 43 26 77t80 66h16v-31q-29 -24 -44 -48t-15 -51q0 -24 17 -38t47 -14h15v-62h-19q-58 0 -90.5 27.5z" />
    <glyph glyph-name="tilde" unicode="&#x2dc;" horiz-adv-x="382" 
d="M221 682q-14 6 -31 18q-6 4 -15.5 11.5t-16.5 11t-13 3.5q-10 0 -14.5 -8t-4.5 -18v-19h-65v23q0 37 18 56.5t47 19.5q34 0 68 -25q3 -3 12 -10.5t17 -11t15 -3.5q9 0 14 8t5 19v21h64v-27q0 -36 -18 -55.5t-47 -19.5q-21 0 -35 6z" />
    <glyph glyph-name="hungarumlaut" unicode="&#x2dd;" horiz-adv-x="363" 
d="M102 780h85l-89 -172h-62zM252 780h85l-89 -172h-62z" />
    <glyph glyph-name="uni0326" unicode="&#x326;" horiz-adv-x="0" 
d="M-131 -61h92l-61 -159h-55z" />
    <glyph glyph-name="uni0394" unicode="&#x394;" horiz-adv-x="459" 
d="M185 750h90l159 -750h-409zM332 84l-102 507l-103 -507h205z" />
    <glyph glyph-name="uni03A9" unicode="&#x3a9;" horiz-adv-x="597" 
d="M563 84v-84h-235v84q43 0 69 27.5t26 73.5v366q0 59 -34.5 95t-90.5 36t-90 -36t-34 -95v-366q0 -46 25.5 -73.5t68.5 -27.5v-84h-235v84h82q-25 45 -25 101v366q0 64 26 112.5t73 75.5t109 27t109.5 -27t73.5 -75.5t26 -112.5v-366q0 -56 -25 -101h81z" />
    <glyph glyph-name="pi" unicode="&#x3c0;" horiz-adv-x="530" 
d="M352 42.5q-47 48.5 -47 131.5v295h-124v-469h-80v469h-96v75h503v-75h-123v-295q0 -45 25 -72.5t67 -27.5h31v-80h-31q-78 0 -125 48.5z" />
    <glyph glyph-name="Wgrave" unicode="&#x1e80;" horiz-adv-x="654" 
d="M617 750l-103 -750h-90l-96 519l-98 -519h-90l-103 750h86l72 -561l95 561h74l95 -561l72 561h86zM209 986h86l66 -172h-62z" />
    <glyph glyph-name="wgrave" unicode="&#x1e81;" horiz-adv-x="559" 
d="M534 544l-88 -544h-89l-77 372l-78 -372h-89l-88 544h83l54 -416l80 416h75l80 -416l53 416h84zM161 780h86l66 -172h-62z" />
    <glyph glyph-name="Wacute" unicode="&#x1e82;" horiz-adv-x="654" 
d="M617 750l-103 -750h-90l-96 519l-98 -519h-90l-103 750h86l72 -561l95 561h74l95 -561l72 561h86zM362 986h85l-89 -172h-62z" />
    <glyph glyph-name="wacute" unicode="&#x1e83;" horiz-adv-x="559" 
d="M534 544l-88 -544h-89l-77 372l-78 -372h-89l-88 544h83l54 -416l80 416h75l80 -416l53 416h84zM314 780h85l-89 -172h-62z" />
    <glyph glyph-name="Wdieresis" unicode="&#x1e84;" horiz-adv-x="654" 
d="M617 750l-103 -750h-90l-96 519l-98 -519h-90l-103 750h86l72 -561l95 561h74l95 -561l72 561h86zM223 986h72v-117h-72v117zM366 986h71v-117h-71v117z" />
    <glyph glyph-name="wdieresis" unicode="&#x1e85;" horiz-adv-x="559" 
d="M534 544l-88 -544h-89l-77 372l-78 -372h-89l-88 544h83l54 -416l80 416h75l80 -416l53 416h84zM175 780h72v-117h-72v117zM318 780h71v-117h-71v117z" />
    <glyph glyph-name="endash" unicode="&#x2013;" horiz-adv-x="526" 
d="M69 314h387v-84h-387v84z" />
    <glyph glyph-name="emdash" unicode="&#x2014;" horiz-adv-x="626" 
d="M69 314h487v-84h-487v84z" />
    <glyph glyph-name="quoteleft" unicode="&#x2018;" horiz-adv-x="237" 
d="M77 663l26 87h50l-26 -87h34v-137h-84v137z" />
    <glyph glyph-name="quoteright" unicode="&#x2019;" horiz-adv-x="237" 
d="M110 612h-34v138h84v-138l-26 -86h-50z" />
    <glyph glyph-name="quotesinglbase" unicode="&#x201a;" horiz-adv-x="237" 
d="M110 0h-34v138h84v-138l-26 -87h-50z" />
    <glyph glyph-name="quotedblleft" unicode="&#x201c;" horiz-adv-x="381" 
d="M77 663l26 87h50l-26 -87h34v-137h-84v137zM221 663l26 87h50l-26 -87h34v-137h-84v137z" />
    <glyph glyph-name="quotedblright" unicode="&#x201d;" horiz-adv-x="381" 
d="M110 612h-34v138h84v-138l-26 -86h-50zM254 612h-34v138h84v-138l-26 -86h-50z" />
    <glyph glyph-name="quotedblbase" unicode="&#x201e;" horiz-adv-x="381" 
d="M110 0h-34v138h84v-138l-26 -87h-50zM254 0h-34v138h84v-138l-26 -87h-50z" />
    <glyph glyph-name="dagger" unicode="&#x2020;" horiz-adv-x="421" 
d="M171 550h-123v76h123v124h79v-124h123v-76h-123v-273h-79v273z" />
    <glyph glyph-name="daggerdbl" unicode="&#x2021;" horiz-adv-x="465" 
d="M193 402h-123v75h123v73h-123v76h123v124h79v-124h123v-76h-123v-73h123v-75h-123v-125h-79v125z" />
    <glyph glyph-name="bullet" unicode="&#x2022;" horiz-adv-x="360" 
d="M106.5 198.5q-30.5 30.5 -30.5 73.5q0 42 30.5 73t73.5 31q42 0 72.5 -31t30.5 -73q0 -43 -30 -73.5t-73 -30.5t-73.5 30.5z" />
    <glyph glyph-name="ellipsis" unicode="&#x2026;" horiz-adv-x="644" 
d="M96 125h84v-125h-84v125zM280 125h84v-125h-84v125zM464 125h84v-125h-84v125z" />
    <glyph glyph-name="perthousand" unicode="&#x2030;" horiz-adv-x="1012" 
d="M85.5 441q-33.5 34 -33.5 89v109q0 56 33.5 90t88.5 34q54 0 87.5 -34.5t33.5 -89.5v-109q0 -55 -33.5 -89t-87.5 -34q-55 0 -88.5 34zM484 750h71l-329 -750h-71zM214 488q15 16 15 42v109q0 26 -15 42.5t-40 16.5t-40.5 -16.5t-15.5 -42.5v-109q0 -26 15.5 -42
t40.5 -16t40 16zM448.5 21q-33.5 34 -33.5 89v109q0 55 33.5 89.5t87.5 34.5q55 0 88 -34t33 -90v-109q0 -56 -33 -89.5t-88 -33.5q-54 0 -87.5 34zM750.5 21q-33.5 34 -33.5 89v109q0 56 33.5 90t88.5 34t88 -34t33 -90v-109q0 -56 -33 -89.5t-88 -33.5t-88.5 34zM576 68
q15 16 15 42v109q0 26 -15 42.5t-40 16.5t-40.5 -16.5t-15.5 -42.5v-109q0 -26 15.5 -42t40.5 -16t40 16zM879 68q15 16 15 42v109q0 26 -15 42.5t-40 16.5t-40.5 -16.5t-15.5 -42.5v-109q0 -26 15.5 -42t40.5 -16t40 16z" />
    <glyph glyph-name="guilsinglleft" unicode="&#x2039;" horiz-adv-x="294" 
d="M23 220v48l223 220v-98l-143 -146l143 -146v-98z" />
    <glyph glyph-name="guilsinglright" unicode="&#x203a;" horiz-adv-x="294" 
d="M48 98l143 146l-143 146v98l223 -220v-48l-223 -220v98z" />
    <glyph glyph-name="fraction" unicode="&#x2044;" horiz-adv-x="208" 
d="M233 750h71l-329 -750h-71z" />
    <glyph glyph-name="uni2070" unicode="&#x2070;" horiz-adv-x="319" 
d="M238 759q30 -31 30 -80v-248q0 -49 -30 -80t-78 -31q-49 0 -79 30.5t-30 80.5v248q0 50 30 80.5t79 30.5q48 0 78 -31zM124.5 716.5q-13.5 -14.5 -13.5 -37.5v-228l77 272q-13 8 -28 8q-22 0 -35.5 -14.5zM195 394q13 14 13 37v229l-77 -272q13 -8 29 -8q22 0 35 14z" />
    <glyph glyph-name="uni2074" unicode="&#x2074;" horiz-adv-x="296" 
d="M170 419h-161v54l165 307h55v-301h39v-60h-39v-89h-59v89zM170 479v188l-99 -188h99z" />
    <glyph glyph-name="uni2075" unicode="&#x2075;" horiz-adv-x="308" 
d="M82 350.5q-30 30.5 -30 80.5v19h60v-19q0 -23 13.5 -37t35.5 -14t35 14t13 37v87q0 23 -13.5 37t-36.5 14q-22 0 -34.5 -14t-12.5 -37v-6h-60v268h208v-59h-148v-113q20 21 52 21q47 0 76 -31t29 -80v-87q0 -50 -29.5 -80.5t-78.5 -30.5t-79 30.5z" />
    <glyph glyph-name="uni2076" unicode="&#x2076;" horiz-adv-x="313" 
d="M81 350.5q-30 30.5 -30 80.5v248q0 50 30 80.5t79 30.5q48 0 78 -31t30 -80v-19h-60v19q0 23 -13 37.5t-35 14.5t-35.5 -14.5t-13.5 -37.5v-71q9 10 22.5 15.5t29.5 5.5q47 0 76 -31t29 -80v-87q0 -49 -30 -80t-78 -31q-49 0 -79 30.5zM195 394q13 14 13 37v87
q0 23 -13.5 37t-36.5 14q-22 0 -34.5 -14t-12.5 -37v-87q0 -23 13.5 -37t35.5 -14t35 14z" />
    <glyph glyph-name="uni2077" unicode="&#x2077;" horiz-adv-x="231" 
d="M156 721h-152v59h212v-54l-111 -396h-63z" />
    <glyph glyph-name="uni2078" unicode="&#x2078;" horiz-adv-x="312" 
d="M78 350.5q-30 30.5 -30 80.5v48q0 52 32 81q-32 29 -32 81v38q0 50 30 80.5t79 30.5q48 0 77.5 -30.5t29.5 -80.5v-38q0 -52 -32 -81q32 -29 32 -81v-48q0 -50 -29.5 -80.5t-77.5 -30.5q-49 0 -79 30.5zM192 604q13 14 13 37v38q0 23 -13.5 37.5t-34.5 14.5
q-22 0 -36 -14.5t-14 -37.5v-38q0 -23 13.5 -37t36.5 -14q22 0 35 14zM191.5 394.5q13.5 14.5 13.5 36.5v48q0 23 -13.5 37t-34.5 14q-23 0 -36.5 -14t-13.5 -37v-48q0 -23 14 -37t36 -14q21 0 34.5 14.5z" />
    <glyph glyph-name="uni2079" unicode="&#x2079;" horiz-adv-x="313" 
d="M75 350.5q-30 30.5 -30 80.5v19h60v-19q0 -23 13.5 -37t35.5 -14t35 14t13 37v71q-9 -10 -23 -15.5t-29 -5.5q-47 0 -76 31t-29 80v87q0 50 30 80.5t79 30.5t78.5 -30.5t29.5 -80.5v-248q0 -50 -29.5 -80.5t-78.5 -30.5t-79 30.5zM189.5 555q12.5 14 12.5 37v87
q0 23 -13 37.5t-35 14.5t-35.5 -14.5t-13.5 -37.5v-87q0 -23 13.5 -37t36.5 -14q22 0 34.5 14z" />
    <glyph glyph-name="uni2080" unicode="&#x2080;" horiz-adv-x="319" 
d="M238 399q30 -31 30 -80v-248q0 -49 -30 -80t-78 -31q-49 0 -79 30.5t-30 80.5v248q0 50 30 80.5t79 30.5q48 0 78 -31zM124.5 356.5q-13.5 -14.5 -13.5 -37.5v-228l77 272q-13 8 -28 8q-22 0 -35.5 -14.5zM195 34q13 14 13 37v229l-77 -272q13 -8 29 -8q22 0 35 14z" />
    <glyph glyph-name="uni2081" unicode="&#x2081;" horiz-adv-x="196" 
d="M77 309h-65v59h15q23 0 36.5 12t13.5 33v7h59v-450h-59v339z" />
    <glyph glyph-name="uni2082" unicode="&#x2082;" horiz-adv-x="283" 
d="M31 23q0 52 24 85.5t70 71.5q33 29 48 47.5t15 42.5v49q0 23 -13.5 37.5t-35.5 14.5t-35 -14.5t-13 -37.5v-19h-60v19q0 49 30 80t78 31q49 0 79 -30.5t30 -80.5v-49q0 -38 -21 -66t-62 -63q-36 -32 -53.5 -54t-17.5 -51v-6h154v-60h-217v53z" />
    <glyph glyph-name="uni2083" unicode="&#x2083;" horiz-adv-x="294" 
d="M59 -9.5q-30 30.5 -30 80.5v19h60v-19q0 -23 13.5 -37t35.5 -14t35.5 14t13.5 37v49q0 23 -13.5 37t-35.5 14h-40v60h40q22 0 35.5 14t13.5 37v37q0 23 -13.5 37.5t-35.5 14.5t-35.5 -14.5t-13.5 -37.5v-19h-60v19q0 50 30 80.5t79 30.5t78.5 -30.5t29.5 -80.5v-37
q0 -52 -33 -81q33 -30 33 -81v-49q0 -50 -29.5 -80.5t-78.5 -30.5t-79 30.5z" />
    <glyph glyph-name="uni2084" unicode="&#x2084;" horiz-adv-x="296" 
d="M170 59h-161v54l165 307h55v-301h39v-60h-39v-89h-59v89zM170 119v188l-99 -188h99z" />
    <glyph glyph-name="uni2085" unicode="&#x2085;" horiz-adv-x="308" 
d="M82 -9.5q-30 30.5 -30 80.5v19h60v-19q0 -23 13.5 -37t35.5 -14t35 14t13 37v87q0 23 -13.5 37t-36.5 14q-22 0 -34.5 -14t-12.5 -37v-6h-60v268h208v-59h-148v-113q20 21 52 21q47 0 76 -31t29 -80v-87q0 -50 -29.5 -80.5t-78.5 -30.5t-79 30.5z" />
    <glyph glyph-name="uni2086" unicode="&#x2086;" horiz-adv-x="313" 
d="M81 -9.5q-30 30.5 -30 80.5v248q0 50 30 80.5t79 30.5q48 0 78 -31t30 -80v-19h-60v19q0 23 -13 37.5t-35 14.5t-35.5 -14.5t-13.5 -37.5v-71q9 10 23 15.5t29 5.5q47 0 76 -31t29 -80v-87q0 -49 -30 -80t-78 -31q-49 0 -79 30.5zM195 34q13 14 13 37v87q0 23 -13.5 37
t-36.5 14q-22 0 -34.5 -14t-12.5 -37v-87q0 -23 13.5 -37t35.5 -14t35 14z" />
    <glyph glyph-name="uni2087" unicode="&#x2087;" horiz-adv-x="231" 
d="M156 361h-152v59h212v-54l-111 -396h-63z" />
    <glyph glyph-name="uni2088" unicode="&#x2088;" horiz-adv-x="312" 
d="M78 -9.5q-30 30.5 -30 80.5v48q0 52 32 81q-32 29 -32 81v38q0 50 30 80.5t79 30.5q48 0 77.5 -30.5t29.5 -80.5v-38q0 -52 -32 -81q32 -29 32 -81v-48q0 -50 -29.5 -80.5t-77.5 -30.5q-49 0 -79 30.5zM192 244q13 14 13 37v38q0 23 -13.5 37.5t-34.5 14.5
q-22 0 -36 -14.5t-14 -37.5v-38q0 -23 13.5 -37t36.5 -14q22 0 35 14zM191.5 34.5q13.5 14.5 13.5 36.5v48q0 23 -13.5 37t-34.5 14q-23 0 -36.5 -14t-13.5 -37v-48q0 -23 14 -37t36 -14q21 0 34.5 14.5z" />
    <glyph glyph-name="uni2089" unicode="&#x2089;" horiz-adv-x="313" 
d="M75 -9.5q-30 30.5 -30 80.5v19h60v-19q0 -23 13.5 -37t35.5 -14t35 14t13 37v71q-9 -10 -22.5 -15.5t-29.5 -5.5q-47 0 -76 31t-29 80v87q0 50 30 80.5t79 30.5t78.5 -30.5t29.5 -80.5v-248q0 -50 -29.5 -80.5t-78.5 -30.5t-79 30.5zM189.5 195q12.5 14 12.5 37v87
q0 23 -13 37.5t-35 14.5t-35.5 -14.5t-13.5 -37.5v-87q0 -23 13.5 -37t36.5 -14q22 0 34.5 14z" />
    <glyph glyph-name="franc" unicode="&#x20a3;" horiz-adv-x="481" 
d="M209 666v-297h192v-84h-192v-111h70v-77h-70v-97h-84v97h-76v77h76v576h303v-84h-219z" />
    <glyph glyph-name="lira" unicode="&#x20a4;" horiz-adv-x="552" 
d="M416 551v27q0 46 -25.5 73.5t-68.5 27.5t-69 -27.5t-26 -73.5v-164h138v-77h-138v-88h138v-76h-138v-96h220v-77h-375v77h71v96h-71v76h71v88h-71v77h71v164q0 83 49 134t130 51t129.5 -51t48.5 -134v-27h-84z" />
    <glyph glyph-name="peseta" unicode="&#x20a7;" horiz-adv-x="563" 
d="M516 492h-46q-1 -77 -46.5 -124t-119.5 -47h-101v-321h-84v492h-53v77h53v181h185q75 0 120.5 -47.5t45.5 -124.5v-9h46v-77zM203 569h183v9q0 40 -22.5 64t-59.5 24h-101v-97zM363 429q22 24 23 63h-183v-87h101q37 0 59 24z" />
    <glyph glyph-name="Euro" unicode="&#x20ac;" horiz-adv-x="556" 
d="M405 551v27q0 46 -25.5 73.5t-68.5 27.5t-69 -27.5t-26 -73.5v-72h138v-77h-138v-108h138v-76h-138v-73q0 -46 26 -73.5t69 -27.5t68.5 27.5t25.5 73.5v27h84v-27q0 -83 -48.5 -134t-129.5 -51t-130 51t-49 134v73h-71v76h71v108h-71v77h71v72q0 83 49 134t130 51
t129.5 -51t48.5 -134v-27h-84z" />
    <glyph glyph-name="uni2113" unicode="&#x2113;" horiz-adv-x="592" 
d="M240 20.5q-41 32.5 -67 91.5q-61 -28 -123 -48l-15 59q53 14 120 46q-17 63 -17 141q0 111 31.5 202.5t85.5 145t119 53.5q45 0 80 -26t54.5 -71t19.5 -99q0 -119 -86.5 -213.5t-211.5 -162.5q18 -44 45 -69t61 -25q45 0 80 37.5t42 94.5l59 -7q-7 -53 -34 -94.5
t-67 -64.5t-84 -23q-51 0 -92 32.5zM392.5 339q70.5 79 70.5 176q0 58 -26 97.5t-66 39.5q-44 0 -82.5 -46t-61.5 -123.5t-23 -167.5q0 -50 13 -113q105 58 175.5 137z" />
    <glyph glyph-name="trademark" unicode="&#x2122;" horiz-adv-x="695" 
d="M118 691h-72v59h205v-59h-73v-391h-60v391zM297 750h57l90 -345l90 345h58v-450h-56v262l-70 -262h-43l-70 262v-262h-56v450z" />
    <glyph glyph-name="estimated" unicode="&#x212e;" horiz-adv-x="712" 
d="M207.5 22q-69.5 38 -108 103t-38.5 143q0 79 39 145t108 104.5t154 38.5q86 0 155 -38.5t108 -104.5t39 -144v-6h-483q-3 0 -3 -5v-154q0 -5 1.5 -8.5t6.5 -9.5q33 -40 75 -62t103 -22t104 23t84 71h47q-47 -56 -100.5 -84t-134.5 -28q-87 0 -156.5 38zM545 276q2 0 2 7
v155q0 10 -7 19q-41 43 -79 62.5t-99 19.5q-60 0 -102 -22.5t-73 -62.5q-7 -7 -8 -10t-1 -9v-152q0 -7 3 -7h364z" />
    <glyph glyph-name="oneeighth" unicode="&#x215b;" horiz-adv-x="716" 
d="M77 645h-65v59h15q23 0 36.5 12t13.5 33v7h59v-456h-59v345zM429 750h71l-329 -750h-71zM482 20.5q-30 30.5 -30 80.5v48q0 52 32 81q-32 29 -32 81v38q0 50 30 80.5t79 30.5q48 0 77.5 -30.5t29.5 -80.5v-38q0 -52 -32 -81q32 -29 32 -81v-48q0 -50 -29.5 -80.5
t-77.5 -30.5q-49 0 -79 30.5zM596 274q13 14 13 37v38q0 23 -13.5 37.5t-34.5 14.5q-22 0 -36 -14.5t-14 -37.5v-38q0 -23 13.5 -37t36.5 -14q22 0 35 14zM595.5 64.5q13.5 14.5 13.5 36.5v48q0 23 -13.5 37t-34.5 14q-23 0 -36.5 -14t-13.5 -37v-48q0 -23 14 -37t36 -14
q21 0 34.5 14.5z" />
    <glyph glyph-name="threeeighths" unicode="&#x215c;" horiz-adv-x="814" 
d="M59 320.5q-30 30.5 -30 80.5v19h60v-19q0 -23 13.5 -37t35.5 -14t35.5 14t13.5 37v49q0 23 -13.5 37t-35.5 14h-40v60h40q22 0 35.5 14t13.5 37v37q0 23 -13.5 37.5t-35.5 14.5t-35.5 -14.5t-13.5 -37.5v-19h-60v19q0 50 30 80.5t79 30.5t78.5 -30.5t29.5 -80.5v-37
q0 -52 -33 -81q33 -30 33 -81v-49q0 -50 -29.5 -80.5t-78.5 -30.5t-79 30.5zM527 750h71l-329 -750h-71zM580 20.5q-30 30.5 -30 80.5v48q0 52 32 81q-32 29 -32 81v38q0 50 30 80.5t79 30.5q48 0 77.5 -30.5t29.5 -80.5v-38q0 -52 -32 -81q32 -29 32 -81v-48
q0 -50 -29.5 -80.5t-77.5 -30.5q-49 0 -79 30.5zM694 274q13 14 13 37v38q0 23 -13.5 37.5t-34.5 14.5q-22 0 -36 -14.5t-14 -37.5v-38q0 -23 13.5 -37t36.5 -14q22 0 35 14zM693.5 64.5q13.5 14.5 13.5 36.5v48q0 23 -13.5 37t-34.5 14q-23 0 -36.5 -14t-13.5 -37v-48
q0 -23 14 -37t36 -14q21 0 34.5 14.5z" />
    <glyph glyph-name="fiveeighths" unicode="&#x215d;" horiz-adv-x="828" 
d="M82 320.5q-30 30.5 -30 80.5v19h60v-19q0 -23 13.5 -37t35.5 -14t35 14t13 37v87q0 23 -13.5 37t-36.5 14q-22 0 -34.5 -14t-12.5 -37v-6h-60v268h208v-59h-148v-113q20 21 52 21q47 0 76 -31t29 -80v-87q0 -50 -29.5 -80.5t-78.5 -30.5t-79 30.5zM541 750h71l-329 -750
h-71zM594 20.5q-30 30.5 -30 80.5v48q0 52 32 81q-32 29 -32 81v38q0 50 30 80.5t79 30.5q48 0 77.5 -30.5t29.5 -80.5v-38q0 -52 -32 -81q32 -29 32 -81v-48q0 -50 -29.5 -80.5t-77.5 -30.5q-49 0 -79 30.5zM708 274q13 14 13 37v38q0 23 -13.5 37.5t-34.5 14.5
q-22 0 -36 -14.5t-14 -37.5v-38q0 -23 13.5 -37t36.5 -14q22 0 35 14zM707.5 64.5q13.5 14.5 13.5 36.5v48q0 23 -13.5 37t-34.5 14q-23 0 -36.5 -14t-13.5 -37v-48q0 -23 14 -37t36 -14q21 0 34.5 14.5z" />
    <glyph glyph-name="seveneighths" unicode="&#x215e;" horiz-adv-x="751" 
d="M156 691h-152v59h212v-54l-111 -396h-63zM464 750h71l-329 -750h-71zM517 20.5q-30 30.5 -30 80.5v48q0 52 32 81q-32 29 -32 81v38q0 50 30 80.5t79 30.5q48 0 77.5 -30.5t29.5 -80.5v-38q0 -52 -32 -81q32 -29 32 -81v-48q0 -50 -29.5 -80.5t-77.5 -30.5
q-49 0 -79 30.5zM631 274q13 14 13 37v38q0 23 -13.5 37.5t-34.5 14.5q-22 0 -36 -14.5t-14 -37.5v-38q0 -23 13.5 -37t36.5 -14q22 0 35 14zM630.5 64.5q13.5 14.5 13.5 36.5v48q0 23 -13.5 37t-34.5 14q-23 0 -36.5 -14t-13.5 -37v-48q0 -23 14 -37t36 -14q21 0 34.5 14.5
z" />
    <glyph glyph-name="arrowleft" unicode="&#x2190;" horiz-adv-x="567" 
d="M507 253h-300v-125l-164 164l164 164v-125h300v-78z" />
    <glyph glyph-name="arrowup" unicode="&#x2191;" horiz-adv-x="400" 
d="M240 360v-300h-78v300h-126l164 164l164 -164h-124z" />
    <glyph glyph-name="arrowright" unicode="&#x2192;" horiz-adv-x="567" 
d="M360 128v125h-300v78h300v125l163 -164z" />
    <glyph glyph-name="arrowdown" unicode="&#x2193;" horiz-adv-x="400" 
d="M364 223l-164 -163l-164 163h126v301h78v-301h124z" />
    <glyph glyph-name="arrowboth" unicode="&#x2194;" horiz-adv-x="664" 
d="M43 292l164 164v-125h250v125l163 -164l-163 -164v125h-250v-125z" />
    <glyph glyph-name="arrowupdn" unicode="&#x2195;" horiz-adv-x="415" 
d="M44 163h124v250h-124l163 164l165 -164h-126v-250h126l-165 -163z" />
    <glyph glyph-name="uni2196" unicode="&#x2196;" horiz-adv-x="476" 
d="M383 100l-212 212l-88 -88v231l232 1l-89 -89l212 -212z" />
    <glyph glyph-name="uni2197" unicode="&#x2197;" horiz-adv-x="476" 
d="M393 224l-88 88l-212 -212l-55 55l212 212l-89 89l232 -1v-231z" />
    <glyph glyph-name="uni2198" unicode="&#x2198;" horiz-adv-x="476" 
d="M393 332v-231l-232 -1l89 89l-212 212l55 55l212 -212z" />
    <glyph glyph-name="uni2199" unicode="&#x2199;" horiz-adv-x="476" 
d="M226 189l89 -89l-232 1v231l88 -88l212 212l55 -55z" />
    <glyph glyph-name="partialdiff" unicode="&#x2202;" horiz-adv-x="499" 
d="M359.5 706q42.5 -44 42.5 -116v-590h-80v35q-38 -47 -107 -47q-68 0 -111.5 45t-43.5 129v120q0 84 43.5 129t111.5 45q69 0 107 -47v181q0 42 -25 68t-66 26h-23v66h41q68 0 110.5 -44zM298 93q24 25 24 68v121q0 43 -24 68.5t-67 25.5q-42 0 -66.5 -26t-24.5 -68v-120
q0 -42 24.5 -68t66.5 -26q43 0 67 25z" />
    <glyph glyph-name="emptyset" unicode="&#x2205;" horiz-adv-x="715" 
d="M623.5 435.5q31.5 -63.5 31.5 -144.5q0 -89 -39 -158t-107 -107t-152 -38q-61 0 -118 22l-35 -62h-83l54 97q-55 40 -86 103.5t-31 142.5q0 90 39 158.5t107.5 106t152.5 37.5q60 0 114 -20l33 58h83l-52 -92q57 -40 88.5 -103.5zM157.5 191q20.5 -45 57.5 -75l217 386
q-35 12 -75 12q-62 0 -112 -27.5t-79 -78.5t-29 -117q0 -55 20.5 -100zM468 95q50 28 79 79t29 117q0 57 -21 102.5t-59 74.5l-218 -388q41 -13 79 -13q61 0 111 28z" />
    <glyph glyph-name="product" unicode="&#x220f;" horiz-adv-x="612" 
d="M146 666h-113v84h546v-84h-114v-786h-84v786h-151v-786h-84v786z" />
    <glyph glyph-name="summation" unicode="&#x2211;" horiz-adv-x="450" 
d="M53 -56l148 371l-148 371v64h352v-84h-262l141 -351l-142 -351h263v-84h-352v64z" />
    <glyph glyph-name="minus" unicode="&#x2212;" horiz-adv-x="594" 
d="M103 314h388v-84h-388v84z" />
    <glyph glyph-name="uni2215" unicode="&#x2215;" horiz-adv-x="423" 
d="M313 780h87l-268 -830h-87z" />
    <glyph glyph-name="uni2219" unicode="&#x2219;" horiz-adv-x="408" 
d="M167 163q-29 17 -46 46t-17 63q0 33 17 62t46 46.5t63 17.5t62.5 -17t45 -46t16.5 -63q0 -52 -36 -89t-88 -37q-34 0 -63 17z" />
    <glyph glyph-name="radical" unicode="&#x221a;" horiz-adv-x="585" 
d="M42 411h84l79 -287l169 626h177v-79h-112l-185 -671h-97z" />
    <glyph glyph-name="infinity" unicode="&#x221e;" horiz-adv-x="786" 
d="M669 401.5q40 -42.5 40 -106.5t-40 -106t-102 -42h-18q-44 0 -80.5 29.5t-75.5 77.5q-39 -48 -75.5 -77.5t-80.5 -29.5h-19q-62 0 -101.5 42t-39.5 106t39.5 106.5t101.5 42.5h19q44 0 79 -26t77 -73q40 46 75.5 72.5t80.5 26.5h18q62 0 102 -42.5zM289.5 225.5
q21.5 17.5 54.5 54.5q8 11 16 19q-7 7 -31 32t-45.5 38t-41.5 13h-18q-34 0 -56 -25.5t-22 -61.5t22 -61.5t56 -25.5h18q26 0 47.5 17.5zM618 233.5q22 25.5 22 61.5t-22 61.5t-56 25.5h-18q-25 0 -47.5 -16.5t-55.5 -50.5l-16 -16l15 -17q36 -40 57 -57t47 -17h18
q34 0 56 25.5z" />
    <glyph glyph-name="integral" unicode="&#x222b;" horiz-adv-x="409" 
d="M32 -100h40q42 0 67.5 28t25.5 73v578q0 80 47.5 130.5t124.5 50.5h40v-80h-40q-42 0 -67 -28t-25 -73v-578q0 -80 -47.5 -130.5t-125.5 -50.5h-40v80z" />
    <glyph glyph-name="approxequal" unicode="&#x2248;" horiz-adv-x="549" 
d="M72 346q0 54 30 85t84 31q31 0 53.5 -9.5t47.5 -26.5q19 -12 32 -18t27 -6q20 0 30 11t10 31v20h80v-26q0 -52 -27.5 -82t-73.5 -30q-26 0 -47 9t-49 27q-25 15 -39 21.5t-30 6.5q-22 0 -35.5 -12.5t-13.5 -34.5v-18h-79v21zM72 92q0 54 30 84.5t84 30.5q31 0 53.5 -9.5
t47.5 -26.5q19 -12 32 -18t27 -6q20 0 30 11.5t10 30.5v20h80v-25q0 -52 -27.5 -82t-73.5 -30q-26 0 -47 9t-49 27q-25 15 -38.5 21.5t-30.5 6.5q-22 0 -35.5 -13t-13.5 -35v-17h-79v21z" />
    <glyph glyph-name="notequal" unicode="&#x2260;" horiz-adv-x="481" 
d="M292 330l-43 -116h160v-84h-191l-49 -130h-64l49 130h-82v84h113l43 116h-156v84h187l49 130h64l-49 -130h86v-84h-117z" />
    <glyph glyph-name="lessequal" unicode="&#x2264;" horiz-adv-x="450" 
d="M52 370v63l328 232v-88l-242 -176l242 -177v-88zM52 74h328v-74h-328v74z" />
    <glyph glyph-name="greaterequal" unicode="&#x2265;" horiz-adv-x="450" 
d="M68 224l243 177l-243 176v88l329 -232v-63l-329 -234v88zM68 74h329v-74h-329v74z" />
    <glyph glyph-name="lozenge" unicode="&#x25ca;" horiz-adv-x="456" 
d="M47 375l133 375h97l132 -375l-132 -375h-97zM322 375l-94 262l-95 -262l95 -262z" />
    <glyph glyph-name="uniF8FF" unicode="&#xf8ff;" horiz-adv-x="741" 
d="M372 483h23v-131l73 77h28l-54 -58l58 -94h-28l-46 76l-31 -32v-44h-23v206zM104 319v90h-35v20h35v37h23v-37h39v-20h-39v-90q0 -11 5.5 -15.5t18.5 -4.5h15v-22h-17q-45 0 -45 42zM208 295q-21 22 -21 59q0 35 21 57t55 22q35 0 56 -22t21 -58t-21 -58t-56 -22
q-34 0 -55 22zM532 295q-21 22 -21 59q0 35 21 57t55 22q35 0 56 -22t21 -58t-21 -58t-55 -22q-35 0 -56 22zM302.5 309.5q14.5 16.5 14.5 44.5q0 26 -14.5 42.5t-39.5 16.5q-24 0 -39 -16.5t-15 -42.5q0 -28 15 -44.5t39 -16.5q25 0 39.5 16.5zM627 309.5q14 16.5 14 44.5
q0 27 -14.5 43t-38.5 16q-25 0 -39.5 -16.5t-14.5 -42.5q0 -28 14.5 -44.5t39.5 -16.5t39 16.5zM104 95v90h-35v20h35v37h23v-37h39v-20h-39v-90q0 -11 5.5 -15.5t18.5 -4.5h15v-22h-17q-45 0 -45 42zM355 205h23v-22q20 26 52 26q31 0 50 -22t19 -58t-19 -58t-50 -22
q-34 0 -52 26v-70h-23v200zM543 71q-21 22 -21 58t20.5 58t54.5 22q33 0 52.5 -21t19.5 -56q0 -9 -1 -13h-123q3 -23 17.5 -36.5t36.5 -13.5q16 0 28.5 8t15.5 20h24q-4 -22 -22.5 -35t-45.5 -13q-35 0 -56 22zM191 22h17q13 0 19.5 3t10.5 13l6 14l-63 153h26l51 -126
l46 126h26l-66 -166q-9 -22 -21 -30.5t-35 -8.5h-17v22zM462 85q14 16 14 44t-14 44t-36 16q-21 0 -34.5 -16t-13.5 -43v-2q0 -27 13.5 -43t34.5 -16q22 0 36 16zM647 139q0 23 -13.5 36.5t-36.5 13.5q-22 0 -36 -13.5t-16 -36.5h102z" />
    <glyph glyph-name="G.ss03" horiz-adv-x="494" 
d="M123.5 35q-48.5 51 -48.5 134v412q0 83 48.5 134t129.5 51t130 -51t49 -134v-27h-84v27q0 46 -26 73.5t-69 27.5t-68.5 -27.5t-25.5 -73.5v-412q0 -46 25.5 -73.5t68.5 -27.5t69 27.5t26 73.5v209h-95v84h179v-293q0 -83 -49 -134t-130 -51t-129.5 51z" />
    <glyph glyph-name="Gbreve.ss03" horiz-adv-x="494" 
d="M123.5 35q-48.5 51 -48.5 134v412q0 83 48.5 134t129.5 51t130 -51t49 -134v-27h-84v27q0 46 -26 73.5t-69 27.5t-68.5 -27.5t-25.5 -73.5v-412q0 -46 25.5 -73.5t68.5 -27.5t69 27.5t26 73.5v209h-95v84h179v-293q0 -83 -49 -134t-130 -51t-129.5 51zM172 898
q-32 30 -32 78v10h58v-10q0 -25 15.5 -40.5t39.5 -15.5t39 15.5t15 40.5v10h57v-10q0 -48 -31 -78t-80 -30t-81 30z" />
    <glyph glyph-name="Gcircumflex.ss03" horiz-adv-x="494" 
d="M123.5 35q-48.5 51 -48.5 134v412q0 83 48.5 134t129.5 51t130 -51t49 -134v-27h-84v27q0 46 -26 73.5t-69 27.5t-68.5 -27.5t-25.5 -73.5v-412q0 -46 25.5 -73.5t68.5 -27.5t69 27.5t26 73.5v209h-95v84h179v-293q0 -83 -49 -134t-130 -51t-129.5 51zM219 986h67
l112 -146h-79l-66 92l-67 -92h-79z" />
    <glyph glyph-name="Gcommaaccent.ss03" horiz-adv-x="494" 
d="M123.5 35q-48.5 51 -48.5 134v412q0 83 48.5 134t129.5 51t130 -51t49 -134v-27h-84v27q0 46 -26 73.5t-69 27.5t-68.5 -27.5t-25.5 -73.5v-412q0 -46 25.5 -73.5t68.5 -27.5t69 27.5t26 73.5v209h-95v84h179v-293q0 -83 -49 -134t-130 -51t-129.5 51zM215 -61h92
l-61 -159h-55z" />
    <glyph glyph-name="Gdotaccent.ss03" horiz-adv-x="494" 
d="M123.5 35q-48.5 51 -48.5 134v412q0 83 48.5 134t129.5 51t130 -51t49 -134v-27h-84v27q0 46 -26 73.5t-69 27.5t-68.5 -27.5t-25.5 -73.5v-412q0 -46 25.5 -73.5t68.5 -27.5t69 27.5t26 73.5v209h-95v84h179v-293q0 -83 -49 -134t-130 -51t-129.5 51zM217 956h72v-117
h-72v117z" />
    <glyph glyph-name="IJ.ss04" horiz-adv-x="711" 
d="M86 0v750h84v-750h-84zM323 45q-49 51 -49 134v10h84v-10q0 -46 26 -73.5t69 -27.5t68.5 27.5t25.5 73.5v571h84v-571q0 -83 -48.5 -134t-129.5 -51t-130 51z" />
    <glyph glyph-name="J.ss04" horiz-adv-x="455" 
d="M67 45q-49 51 -49 134v10h84v-10q0 -46 26 -73.5t69 -27.5t68.5 27.5t25.5 73.5v571h84v-571q0 -83 -48.5 -134t-129.5 -51t-130 51z" />
    <glyph glyph-name="Jcircumflex.ss04" horiz-adv-x="455" 
d="M67 45q-49 51 -49 134v10h84v-10q0 -46 26 -73.5t69 -27.5t68.5 27.5t25.5 73.5v571h84v-571q0 -83 -48.5 -134t-129.5 -51t-130 51zM298 986h67l112 -146h-79l-66 92l-67 -92h-79z" />
    <glyph glyph-name="a.ss01" horiz-adv-x="468" 
d="M398 544v-544h-80v34q-40 -46 -106 -46q-69 0 -112.5 45t-43.5 129v220q0 84 43.5 129t112.5 45q67 0 106 -47v35h80zM294 93q24 25 24 68v221q0 43 -24 68.5t-67 25.5q-42 0 -66.5 -26t-24.5 -68v-220q0 -42 24.5 -68t66.5 -26q43 0 67 25z" />
    <glyph glyph-name="aacute.ss01" horiz-adv-x="468" 
d="M398 544v-544h-80v34q-40 -46 -106 -46q-69 0 -112.5 45t-43.5 129v220q0 84 43.5 129t112.5 45q67 0 106 -47v35h80zM294 93q24 25 24 68v221q0 43 -24 68.5t-67 25.5q-42 0 -66.5 -26t-24.5 -68v-220q0 -42 24.5 -68t66.5 -26q43 0 67 25zM269 780h85l-89 -172h-62z
" />
    <glyph glyph-name="abreve.ss01" horiz-adv-x="468" 
d="M398 544v-544h-80v34q-40 -46 -106 -46q-69 0 -112.5 45t-43.5 129v220q0 84 43.5 129t112.5 45q67 0 106 -47v35h80zM294 93q24 25 24 68v221q0 43 -24 68.5t-67 25.5q-42 0 -66.5 -26t-24.5 -68v-220q0 -42 24.5 -68t66.5 -26q43 0 67 25zM154 692q-32 30 -32 78v10h58
v-10q0 -25 15.5 -40.5t39.5 -15.5t39 15.5t15 40.5v10h57v-10q0 -48 -31 -78t-80 -30t-81 30z" />
    <glyph glyph-name="acircumflex.ss01" horiz-adv-x="468" 
d="M398 544v-544h-80v34q-40 -46 -106 -46q-69 0 -112.5 45t-43.5 129v220q0 84 43.5 129t112.5 45q67 0 106 -47v35h80zM294 93q24 25 24 68v221q0 43 -24 68.5t-67 25.5q-42 0 -66.5 -26t-24.5 -68v-220q0 -42 24.5 -68t66.5 -26q43 0 67 25zM201 780h67l112 -146h-79
l-66 92l-67 -92h-79z" />
    <glyph glyph-name="adieresis.ss01" horiz-adv-x="468" 
d="M398 544v-544h-80v34q-40 -46 -106 -46q-69 0 -112.5 45t-43.5 129v220q0 84 43.5 129t112.5 45q67 0 106 -47v35h80zM294 93q24 25 24 68v221q0 43 -24 68.5t-67 25.5q-42 0 -66.5 -26t-24.5 -68v-220q0 -42 24.5 -68t66.5 -26q43 0 67 25zM130 780h72v-117h-72v117z
M273 780h71v-117h-71v117z" />
    <glyph glyph-name="agrave.ss01" horiz-adv-x="468" 
d="M398 544v-544h-80v34q-40 -46 -106 -46q-69 0 -112.5 45t-43.5 129v220q0 84 43.5 129t112.5 45q67 0 106 -47v35h80zM294 93q24 25 24 68v221q0 43 -24 68.5t-67 25.5q-42 0 -66.5 -26t-24.5 -68v-220q0 -42 24.5 -68t66.5 -26q43 0 67 25zM116 780h86l66 -172h-62z" />
    <glyph glyph-name="amacron.ss01" horiz-adv-x="468" 
d="M398 544v-544h-80v34q-40 -46 -106 -46q-69 0 -112.5 45t-43.5 129v220q0 84 43.5 129t112.5 45q67 0 106 -47v35h80zM294 93q24 25 24 68v221q0 43 -24 68.5t-67 25.5q-42 0 -66.5 -26t-24.5 -68v-220q0 -42 24.5 -68t66.5 -26q43 0 67 25zM345 688v-63h-221v63h221z
" />
    <glyph glyph-name="aogonek.ss01" horiz-adv-x="452" 
d="M329 -48q-15 -24 -15 -51q0 -24 17 -38t47 -14h15v-62h-19q-58 0 -90.5 27.5t-32.5 73.5q0 34 16.5 62.5t50.5 54.5v29q-40 -46 -106 -46q-69 0 -112.5 45t-43.5 129v220q0 84 43.5 129t112.5 45q67 0 106 -47v35h80v-544h-25q-29 -24 -44 -48zM294 93q24 25 24 68v221
q0 43 -24 68.5t-67 25.5q-42 0 -66.5 -26t-24.5 -68v-220q0 -42 24.5 -68t66.5 -26q43 0 67 25z" />
    <glyph glyph-name="aring.ss01" horiz-adv-x="468" 
d="M398 544v-544h-80v34q-40 -46 -106 -46q-69 0 -112.5 45t-43.5 129v220q0 84 43.5 129t112.5 45q67 0 106 -47v35h80zM294 93q24 25 24 68v221q0 43 -24 68.5t-67 25.5q-42 0 -66.5 -26t-24.5 -68v-220q0 -42 24.5 -68t66.5 -26q43 0 67 25zM168.5 599.5
q-27.5 26.5 -27.5 67.5t27.5 67.5t66.5 26.5t66.5 -26.5t27.5 -67.5t-27.5 -67.5t-66.5 -26.5t-66.5 26.5zM264.5 637.5q12.5 11.5 12.5 29.5t-12.5 29.5t-29.5 11.5q-16 0 -28.5 -11.5t-12.5 -29.5t12.5 -29.5t28.5 -11.5q17 0 29.5 11.5z" />
    <glyph glyph-name="atilde.ss01" horiz-adv-x="468" 
d="M398 544v-544h-80v34q-40 -46 -106 -46q-69 0 -112.5 45t-43.5 129v220q0 84 43.5 129t112.5 45q67 0 106 -47v35h80zM294 93q24 25 24 68v221q0 43 -24 68.5t-67 25.5q-42 0 -66.5 -26t-24.5 -68v-220q0 -42 24.5 -68t66.5 -26q43 0 67 25zM263 635q-14 6 -31 18
q-6 4 -15.5 11.5t-16.5 11t-13 3.5q-10 0 -14.5 -8t-4.5 -18v-19h-65v23q0 37 18 56.5t47 19.5q34 0 68 -25q3 -3 12 -10.5t17 -11t15 -3.5q9 0 14 8t5 19v21h64v-27q0 -36 -18 -55.5t-47 -19.5q-21 0 -35 6z" />
    <glyph glyph-name="y.ss02" horiz-adv-x="463" 
d="M394 544v-550q0 -79 -48 -128t-125 -49t-124 49t-47 129v14h80v-18q0 -42 24.5 -68t66.5 -26t67 26t25 68v113q-40 -46 -106 -46q-69 0 -112.5 45t-43.5 129v312h81v-312q0 -42 24 -68t66 -26q43 0 67 25t24 68v313h81z" />
    <glyph glyph-name="yacute.ss02" horiz-adv-x="463" 
d="M394 544v-550q0 -79 -48 -128t-125 -49t-124 49t-47 129v14h80v-18q0 -42 24.5 -68t66.5 -26t67 26t25 68v113q-40 -46 -106 -46q-69 0 -112.5 45t-43.5 129v312h81v-312q0 -42 24 -68t66 -26q43 0 67 25t24 68v313h81zM256 780h85l-89 -172h-62z" />
    <glyph glyph-name="ycircumflex.ss02" horiz-adv-x="463" 
d="M394 544v-550q0 -79 -48 -128t-125 -49t-124 49t-47 129v14h80v-18q0 -42 24.5 -68t66.5 -26t67 26t25 68v113q-40 -46 -106 -46q-69 0 -112.5 45t-43.5 129v312h81v-312q0 -42 24 -68t66 -26q43 0 67 25t24 68v313h81zM188 780h67l112 -146h-79l-66 92l-67 -92h-79z" />
    <glyph glyph-name="ydieresis.ss02" horiz-adv-x="463" 
d="M394 544v-550q0 -79 -48 -128t-125 -49t-124 49t-47 129v14h80v-18q0 -42 24.5 -68t66.5 -26t67 26t25 68v113q-40 -46 -106 -46q-69 0 -112.5 45t-43.5 129v312h81v-312q0 -42 24 -68t66 -26q43 0 67 25t24 68v313h81zM117 780h72v-117h-72v117zM260 780h71v-117h-71
v117z" />
    <glyph glyph-name="longs_t" horiz-adv-x="615" 
d="M105 468h-101v76h101v35q0 80 47.5 130.5t125.5 50.5h40v-80h-40q-42 0 -67.5 -28t-25.5 -73v-579h-80v468zM429 42.5q-47 48.5 -47 131.5v295h-96v75h96v136h80v-136h131v-75h-131v-295q0 -45 25 -72.5t67 -27.5h39v-80h-39q-78 0 -125 48.5z" />
    <glyph glyph-name="zero.tf" horiz-adv-x="480" 
d="M366.5 715q47.5 -51 47.5 -134v-412q0 -83 -47.5 -134t-126.5 -51t-127 51t-48 134v412q0 83 48 134t127 51t126.5 -51zM149 169q0 -15 3 -29l139 527q-21 15 -51 15q-41 0 -66 -27.5t-25 -73.5v-412zM331 581q0 16 -3 29l-139 -527q21 -15 51 -15q41 0 66 27.5t25 73.5
v412z" />
    <glyph glyph-name="one.tf" horiz-adv-x="480" 
d="M36 84h162v496h-118v84h21q46 0 71.5 20t25.5 55v11h84v-666h161v-84h-407v84z" />
    <glyph glyph-name="two.tf" horiz-adv-x="480" 
d="M403.5 426q-20.5 -38 -50 -68t-78.5 -73q-45 -39 -72 -65.5t-45 -58.5t-18 -67v-10h284v-84h-372v72q0 59 23.5 106.5t57.5 82.5t87 80q61 51 90.5 87t29.5 79v74q0 46 -28 73.5t-74 27.5t-74 -27.5t-28 -73.5v-27h-84v27q0 83 51 134t135 51t135 -51t51 -134v-74
q0 -43 -20.5 -81z" />
    <glyph glyph-name="three.tf" horiz-adv-x="480" 
d="M395 444.5q-16 -36.5 -46 -59.5q30 -25 46 -61.5t16 -82.5v-72q0 -83 -50.5 -134t-132.5 -51t-132.5 51t-50.5 134v27h84v-27q0 -46 27.5 -73.5t71.5 -27.5q45 0 72 27.5t27 73.5v72q0 46 -27 73.5t-72 27.5h-63v84h63q45 0 72 27.5t27 73.5v54q0 46 -27 73.5t-72 27.5
q-44 0 -71.5 -27.5t-27.5 -73.5v-27h-84v27q0 83 50.5 134t132.5 51t132.5 -51t50.5 -134v-54q0 -46 -16 -82.5z" />
    <glyph glyph-name="four.tf" horiz-adv-x="480" 
d="M452 241v-83h-68v-158h-84v158h-276v76l278 516h82v-509h68zM300 596l-188 -355h188v355z" />
    <glyph glyph-name="five.tf" horiz-adv-x="480" 
d="M379.5 449q48.5 -51 48.5 -134v-146q0 -83 -49 -134t-129 -51t-129 51t-49 134v27h84v-27q0 -46 25.5 -73.5t68.5 -27.5t68.5 27.5t25.5 73.5v146q0 46 -26.5 73.5t-71.5 27.5q-41 0 -65.5 -27.5t-24.5 -73.5v-10h-84v445h345v-84h-261v-206q37 40 97 40q78 0 126.5 -51z
" />
    <glyph glyph-name="six.tf" horiz-adv-x="480" 
d="M337 554v27q0 46 -25.5 73.5t-66.5 27.5q-42 0 -67.5 -27.5t-25.5 -73.5v-121q35 40 96 40q77 0 125 -51t48 -134v-146q0 -83 -48.5 -134t-127.5 -51q-80 0 -128.5 51t-48.5 134v412q0 83 48.5 134t128.5 51q79 0 127.5 -51t48.5 -134v-27h-84zM176.5 388.5
q-24.5 -27.5 -24.5 -73.5v-146q0 -46 25.5 -73.5t67.5 -27.5q41 0 66.5 27.5t25.5 73.5v146q0 45 -26 73t-70 28q-40 0 -64.5 -27.5z" />
    <glyph glyph-name="seven.tf" horiz-adv-x="480" 
d="M431 750v-75l-215 -675h-89l214 666h-302v84h392z" />
    <glyph glyph-name="eight.tf" horiz-adv-x="480" 
d="M402 443.5q-15 -36.5 -43 -60.5q28 -24 43 -61t15 -82v-71q0 -83 -48.5 -134t-128.5 -51t-128.5 51t-48.5 134v71q0 93 58 143q-28 24 -43 60.5t-15 82.5v55q0 83 48.5 134t128.5 51t128.5 -51t48.5 -134v-55q0 -46 -15 -82.5zM333 581q0 46 -25.5 73.5t-67.5 27.5
t-67.5 -27.5t-25.5 -73.5v-55q0 -46 25.5 -73.5t67.5 -27.5t67.5 27.5t25.5 73.5v55zM333 240q0 45 -25.5 73t-67.5 28t-67.5 -28t-25.5 -73v-71q0 -46 25.5 -73.5t67.5 -27.5t67.5 27.5t25.5 73.5v71z" />
    <glyph glyph-name="nine.tf" horiz-adv-x="480" 
d="M363.5 715q48.5 -51 48.5 -134v-412q0 -83 -48.5 -134t-127.5 -51q-80 0 -128.5 51t-48.5 134v27h84v-27q0 -46 25.5 -73.5t67.5 -27.5t67 27.5t25 73.5v121q-35 -40 -96 -40q-77 0 -125 51t-48 134v146q0 83 48.5 134t128.5 51q79 0 127.5 -51zM304 361.5
q24 27.5 24 73.5v146q0 46 -25 73.5t-67 27.5t-67.5 -27.5t-25.5 -73.5v-146q0 -45 26 -73t70 -28q41 0 65 27.5z" />
    <glyph glyph-name="zero.dnom" horiz-adv-x="319" 
d="M238 429q30 -31 30 -80v-248q0 -49 -30 -80t-78 -31q-49 0 -79 30.5t-30 80.5v248q0 50 30 80.5t79 30.5q48 0 78 -31zM124.5 386.5q-13.5 -14.5 -13.5 -37.5v-228l77 272q-13 8 -28 8q-22 0 -35.5 -14.5zM195 64q13 14 13 37v229l-77 -272q13 -8 29 -8q22 0 35 14z" />
    <glyph glyph-name="one.dnom" horiz-adv-x="196" 
d="M77 339h-65v59h15q23 0 36.5 12t13.5 33v7h59v-450h-59v339z" />
    <glyph glyph-name="two.dnom" horiz-adv-x="283" 
d="M31 53q0 52 24 85.5t70 71.5q33 29 48 47.5t15 42.5v49q0 23 -13.5 37.5t-35.5 14.5t-35 -14.5t-13 -37.5v-19h-60v19q0 49 30 80t78 31q49 0 79 -30.5t30 -80.5v-49q0 -38 -21 -66t-62 -63q-36 -32 -53.5 -54t-17.5 -51v-6h154v-60h-217v53z" />
    <glyph glyph-name="three.dnom" horiz-adv-x="294" 
d="M59 20.5q-30 30.5 -30 80.5v19h60v-19q0 -23 13.5 -37t35.5 -14t35.5 14t13.5 37v49q0 23 -13.5 37t-35.5 14h-40v60h40q22 0 35.5 14t13.5 37v37q0 23 -13.5 37.5t-35.5 14.5t-35.5 -14.5t-13.5 -37.5v-19h-60v19q0 50 30 80.5t79 30.5t78.5 -30.5t29.5 -80.5v-37
q0 -52 -33 -81q33 -30 33 -81v-49q0 -50 -29.5 -80.5t-78.5 -30.5t-79 30.5z" />
    <glyph glyph-name="four.dnom" horiz-adv-x="296" 
d="M170 89h-161v54l165 307h55v-301h39v-60h-39v-89h-59v89zM170 149v188l-99 -188h99z" />
    <glyph glyph-name="five.dnom" horiz-adv-x="308" 
d="M82 20.5q-30 30.5 -30 80.5v19h60v-19q0 -23 13.5 -37t35.5 -14t35 14t13 37v87q0 23 -13.5 37t-36.5 14q-22 0 -34.5 -14t-12.5 -37v-6h-60v268h208v-59h-148v-113q20 21 52 21q47 0 76 -31t29 -80v-87q0 -50 -29.5 -80.5t-78.5 -30.5t-79 30.5z" />
    <glyph glyph-name="six.dnom" horiz-adv-x="313" 
d="M81 20.5q-30 30.5 -30 80.5v248q0 50 30 80.5t79 30.5q48 0 78 -31t30 -80v-19h-60v19q0 23 -13 37.5t-35 14.5t-35.5 -14.5t-13.5 -37.5v-71q9 10 23 15.5t29 5.5q47 0 76 -31t29 -80v-87q0 -49 -30 -80t-78 -31q-49 0 -79 30.5zM195 64q13 14 13 37v87q0 23 -13.5 37
t-36.5 14q-22 0 -34.5 -14t-12.5 -37v-87q0 -23 13.5 -37t35.5 -14t35 14z" />
    <glyph glyph-name="seven.dnom" horiz-adv-x="231" 
d="M156 391h-152v59h212v-54l-111 -396h-63z" />
    <glyph glyph-name="eight.dnom" horiz-adv-x="312" 
d="M78 20.5q-30 30.5 -30 80.5v48q0 52 32 81q-32 29 -32 81v38q0 50 30 80.5t79 30.5q48 0 77.5 -30.5t29.5 -80.5v-38q0 -52 -32 -81q32 -29 32 -81v-48q0 -50 -29.5 -80.5t-77.5 -30.5q-49 0 -79 30.5zM192 274q13 14 13 37v38q0 23 -13.5 37.5t-34.5 14.5
q-22 0 -36 -14.5t-14 -37.5v-38q0 -23 13.5 -37t36.5 -14q22 0 35 14zM191.5 64.5q13.5 14.5 13.5 36.5v48q0 23 -13.5 37t-34.5 14q-23 0 -36.5 -14t-13.5 -37v-48q0 -23 14 -37t36 -14q21 0 34.5 14.5z" />
    <glyph glyph-name="nine.dnom" horiz-adv-x="313" 
d="M75 20.5q-30 30.5 -30 80.5v19h60v-19q0 -23 13.5 -37t35.5 -14t35 14t13 37v71q-9 -10 -22.5 -15.5t-29.5 -5.5q-47 0 -76 31t-29 80v87q0 50 30 80.5t79 30.5t78.5 -30.5t29.5 -80.5v-248q0 -50 -29.5 -80.5t-78.5 -30.5t-79 30.5zM189.5 225q12.5 14 12.5 37v87
q0 23 -13 37.5t-35 14.5t-35.5 -14.5t-13.5 -37.5v-87q0 -23 13.5 -37t36.5 -14q22 0 34.5 14z" />
    <glyph glyph-name="zero.numr" horiz-adv-x="319" 
d="M238 729q30 -31 30 -80v-248q0 -49 -30 -80t-78 -31q-49 0 -79 30.5t-30 80.5v248q0 50 30 80.5t79 30.5q48 0 78 -31zM124.5 686.5q-13.5 -14.5 -13.5 -37.5v-228l77 272q-13 8 -28 8q-22 0 -35.5 -14.5zM195 364q13 14 13 37v229l-77 -272q13 -8 29 -8q22 0 35 14z" />
    <glyph glyph-name="one.numr" horiz-adv-x="196" 
d="M77 645h-65v59h15q23 0 36.5 12t13.5 33v7h59v-456h-59v345z" />
    <glyph glyph-name="two.numr" horiz-adv-x="283" 
d="M31 353q0 52 24 85.5t70 71.5q33 29 48 47.5t15 42.5v49q0 23 -13.5 37.5t-35.5 14.5t-35 -14.5t-13 -37.5v-19h-60v19q0 49 30 80t78 31q49 0 79 -30.5t30 -80.5v-49q0 -38 -21 -66t-62 -63q-36 -32 -53.5 -54t-17.5 -51v-6h154v-60h-217v53z" />
    <glyph glyph-name="three.numr" horiz-adv-x="294" 
d="M59 320.5q-30 30.5 -30 80.5v19h60v-19q0 -23 13.5 -37t35.5 -14t35.5 14t13.5 37v49q0 23 -13.5 37t-35.5 14h-40v60h40q22 0 35.5 14t13.5 37v37q0 23 -13.5 37.5t-35.5 14.5t-35.5 -14.5t-13.5 -37.5v-19h-60v19q0 50 30 80.5t79 30.5t78.5 -30.5t29.5 -80.5v-37
q0 -52 -33 -81q33 -30 33 -81v-49q0 -50 -29.5 -80.5t-78.5 -30.5t-79 30.5z" />
    <glyph glyph-name="four.numr" horiz-adv-x="296" 
d="M170 389h-161v54l165 307h55v-301h39v-60h-39v-89h-59v89zM170 449v188l-99 -188h99z" />
    <glyph glyph-name="five.numr" horiz-adv-x="308" 
d="M82 320.5q-30 30.5 -30 80.5v19h60v-19q0 -23 13.5 -37t35.5 -14t35 14t13 37v87q0 23 -13.5 37t-36.5 14q-22 0 -34.5 -14t-12.5 -37v-6h-60v268h208v-59h-148v-113q20 21 52 21q47 0 76 -31t29 -80v-87q0 -50 -29.5 -80.5t-78.5 -30.5t-79 30.5z" />
    <glyph glyph-name="six.numr" horiz-adv-x="313" 
d="M81 320.5q-30 30.5 -30 80.5v248q0 50 30 80.5t79 30.5q48 0 78 -31t30 -80v-19h-60v19q0 23 -13 37.5t-35 14.5t-35.5 -14.5t-13.5 -37.5v-71q9 10 22.5 15.5t29.5 5.5q47 0 76 -31t29 -80v-87q0 -49 -30 -80t-78 -31q-49 0 -79 30.5zM195 364q13 14 13 37v87
q0 23 -13.5 37t-36.5 14q-22 0 -34.5 -14t-12.5 -37v-87q0 -23 13.5 -37t35.5 -14t35 14z" />
    <glyph glyph-name="seven.numr" horiz-adv-x="231" 
d="M156 691h-152v59h212v-54l-111 -396h-63z" />
    <glyph glyph-name="eight.numr" horiz-adv-x="312" 
d="M78 320.5q-30 30.5 -30 80.5v48q0 52 32 81q-32 29 -32 81v38q0 50 30 80.5t79 30.5q48 0 77.5 -30.5t29.5 -80.5v-38q0 -52 -32 -81q32 -29 32 -81v-48q0 -50 -29.5 -80.5t-77.5 -30.5q-49 0 -79 30.5zM192 574q13 14 13 37v38q0 23 -13.5 37.5t-34.5 14.5
q-22 0 -36 -14.5t-14 -37.5v-38q0 -23 13.5 -37t36.5 -14q22 0 35 14zM191.5 364.5q13.5 14.5 13.5 36.5v48q0 23 -13.5 37t-34.5 14q-23 0 -36.5 -14t-13.5 -37v-48q0 -23 14 -37t36 -14q21 0 34.5 14.5z" />
    <glyph glyph-name="nine.numr" horiz-adv-x="313" 
d="M75 320.5q-30 30.5 -30 80.5v19h60v-19q0 -23 13.5 -37t35.5 -14t35 14t13 37v71q-9 -10 -23 -15.5t-29 -5.5q-47 0 -76 31t-29 80v87q0 50 30 80.5t79 30.5t78.5 -30.5t29.5 -80.5v-248q0 -50 -29.5 -80.5t-78.5 -30.5t-79 30.5zM189.5 525q12.5 14 12.5 37v87
q0 23 -13 37.5t-35 14.5t-35.5 -14.5t-13.5 -37.5v-87q0 -23 13.5 -37t36.5 -14q22 0 34.5 14z" />
    <glyph glyph-name="acute.case" horiz-adv-x="213" 
d="M107 780h85l-89 -172h-62z" />
    <glyph glyph-name="breve.case" horiz-adv-x="324" 
d="M91 692q-32 30 -32 78v10h58v-10q0 -25 15.5 -40.5t39.5 -15.5t39 15.5t15 40.5v10h57v-10q0 -48 -31 -78t-80 -30t-81 30z" />
    <glyph glyph-name="caron.case" horiz-adv-x="328" 
d="M33 780h79l67 -92l66 92h79l-112 -146h-67z" />
    <glyph glyph-name="circumflex.case" horiz-adv-x="328" 
d="M146 780h67l112 -146h-79l-66 92l-67 -92h-79z" />
    <glyph glyph-name="dieresis.case" horiz-adv-x="352" 
d="M84 780h72v-117h-72v117zM227 780h71v-117h-71v117z" />
    <glyph glyph-name="dotaccent.case" horiz-adv-x="210" 
d="M84 750h72v-117h-72v117z" />
    <glyph glyph-name="grave.case" horiz-adv-x="213" 
d="M40 780h86l66 -172h-62z" />
    <glyph glyph-name="hungarumlaut.case" horiz-adv-x="363" 
d="M116 780h85l-89 -172h-62zM266 780h85l-89 -172h-62z" />
    <glyph glyph-name="macron.case" horiz-adv-x="360" 
d="M295 750v-63h-221v63h221z" />
    <glyph glyph-name="ring.case" horiz-adv-x="291" 
d="M93.5 618.5q-27.5 26.5 -27.5 67.5t27.5 67.5t66.5 26.5t66.5 -26.5t27.5 -67.5t-27.5 -67.5t-66.5 -26.5t-66.5 26.5zM189.5 656.5q12.5 11.5 12.5 29.5t-12.5 29.5t-29.5 11.5q-16 0 -28.5 -11.5t-12.5 -29.5t12.5 -29.5t28.5 -11.5q17 0 29.5 11.5z" />
    <glyph glyph-name="tilde.case" horiz-adv-x="382" 
d="M231 682q-14 6 -31 18q-6 4 -15.5 11.5t-16.5 11t-13 3.5q-10 0 -14.5 -8t-4.5 -18v-19h-65v23q0 37 18 56.5t47 19.5q34 0 68 -25q3 -3 12 -10.5t17 -11t15 -3.5q9 0 14 8t5 19v21h64v-27q0 -36 -18 -55.5t-47 -19.5q-21 0 -35 6z" />
    <glyph glyph-name="caron.salt" horiz-adv-x="219" 
d="M89 750h80l-40 -224h-80z" />
    </font>
</defs>
</svg>
